<?xml version="1.0" standalone="no"?>
<!DOCTYPE svg PUBLIC "-//W3C//DTD SVG 1.1//EN" "http://www.w3.org/Graphics/SVG/1.1/DTD/svg11.dtd" >
<svg>
<metadata>
Created by FontForge 20090914 at Tue Oct  9 23:12:46 2012
 By www-data
Copyright (c) A.S.Puskin &#38; ParaType, 1999. All rights reserved.
</metadata>
<defs>
<font id="Pushkin" horiz-adv-x="572" >
  <font-face 
    font-family="Pushkin"
    font-weight="400"
    font-stretch="normal"
    units-per-em="1000"
    panose-1="2 0 5 0 0 0 0 2 0 2"
    ascent="800"
    descent="-200"
    x-height="222.999"
    cap-height="658"
    bbox="-1058 -748.003 3179.02 934.211"
    underline-thickness="20"
    underline-position="-123"
    unicode-range="U+0001-U+2026"
  />
<missing-glyph horiz-adv-x="500" 
d="M50 0h400v512h-400v-512zM58 8v496h384v-496h-384z" />
    <glyph glyph-name=".notdef" horiz-adv-x="500" 
d="M50 0h400v512h-400v-512zM58 8v496h384v-496h-384z" />
    <glyph glyph-name=".null" horiz-adv-x="0" 
 />
    <glyph glyph-name="nonmarkingreturn" horiz-adv-x="300" 
 />
    <glyph glyph-name="acute" horiz-adv-x="429" 
d="M313 588c0 -6 -7.66504 -13.166 -22.998 -21.499l-45 -24.5l-55 -35c-20 -12 -33.333 -18 -40 -18c-6 0 -10.833 3 -14.5 9s-4.83398 11.667 -3.50098 17c2.66699 11.333 14.667 23 36 35l63 35l30 20c10 6.66699 17.333 10 22 10c7.33301 0 14.166 -2.83301 20.499 -8.5
s9.5 -11.834 9.5 -18.501z" />
    <glyph glyph-name="space" unicode=" " horiz-adv-x="300" 
 />
    <glyph glyph-name="exclam" unicode="!" horiz-adv-x="774" 
d="M842 735c0.666992 -5.33301 -33 -41.667 -101 -109c-97.333 -96 -158.666 -157.333 -183.999 -184l-161 -180c-58.667 -66 -91.667 -99 -99 -99c-12.667 0 -19.334 6.33301 -20.001 19c-1.33301 16.667 85 119.667 259 309c170.667 186 264.667 279 282 279
c14.667 0 22.667 -11.667 24 -35zM172 24.999c0.666992 -10.667 -2.33203 -20 -8.99902 -28s-15.334 -12 -26.001 -12c-20 0 -30.333 5 -31 15c-0.666992 8.66699 5.33301 20.167 18 34.5s23 21.5 31 21.5c9.33301 0 15 -10.333 17 -31z" />
    <glyph glyph-name="quotedbl" unicode="&#x22;" horiz-adv-x="324" 
d="M151 513c-6 -7.33301 -14.332 -10.999 -24.999 -10.999c-12.667 0 -19 6.33301 -19 19c0 0.666992 4 23.667 12 69c3.33301 21.333 6.5 43 9.5 65s6.66699 35.5 11 40.5s9.83301 6.83301 16.5 5.5c7.33301 -0.666992 12.833 -3.66699 16.5 -9s5.5 -13.333 5.5 -24
c0 -10 -2 -25 -6 -45c-6 -28.667 -9.33301 -45.667 -10 -51c-0.666992 -16.667 -4.33398 -36.334 -11.001 -59.001zM256.001 519.001c-6 -7.33301 -14.332 -10.999 -24.999 -10.999c-12.667 0 -19 6.33301 -19 19c0 0.666992 4 23.667 12 69c3.33301 21.333 6.5 43 9.5 65
s6.66699 35.5 11 40.5s9.83301 6.83301 16.5 5.5c7.33301 -0.666992 12.833 -3.66699 16.5 -9s5.5 -13.333 5.5 -24c0 -10 -2 -25 -6 -45c-6 -28.667 -9.33301 -45.667 -10 -51c-0.666992 -16.667 -4.33398 -36.334 -11.001 -59.001z" />
    <glyph glyph-name="numbersign" unicode="#" horiz-adv-x="3120" 
d="M3179 168c0.666992 -6.66699 -16.333 -18.332 -51 -34.999l-94 -47c-98.667 -54.667 -174 -82 -226 -82c-25.333 0 -67.333 7.33301 -126 22c-24.667 -10.667 -58 -32 -100 -64c-67.333 -52 -107 -78.333 -119 -79c-10 -0.666992 -15 6 -15 20
c0 7.33301 7.5 16.666 22.5 27.999l45.5 33c28.667 21.333 67.667 55 117 101c-8 -1.33301 -24.833 -7.83301 -50.5 -19.5s-39.834 -17.5 -42.5 -17.5c-12.667 0 -19 5.33301 -19 16c0 7.33301 14 19.333 42 36c42.667 25.333 67.667 40.666 75 45.999l116 90l73 61
c26.667 22.667 43.667 33.667 51 33c15.333 -1.33301 21.333 -6.66602 18 -15.999c-2.66699 -8 -32.667 -42 -90 -102c0 -5.33301 -3 -17 -9 -35s-11 -29.667 -15 -35c-12 -14.667 -24.333 -25.667 -37 -33l-38 -22c32.667 -17.333 67.334 -24.666 104 -21.999
c43.333 3.33301 114.333 28.333 213 75l145 68c5.33301 1.33301 8.66602 -5.33398 10 -20.001zM3159 609.002c-0.666992 -4 -32.3301 -18.8242 -94.9961 -44.4912c-62.667 -25.667 -122 -48.167 -178 -67.5c-124.667 -43.333 -219.667 -71 -285 -83
c10 -34.667 14 -70 12 -106c-3.33301 -53.333 -25.666 -103.666 -67 -150.999c-36.667 -41.333 -70.667 -65 -102 -71c-13.333 -2.66699 -25.333 -2 -36 2c-50 -12 -94 -20 -132 -24c-6.66699 -0.666992 -13 3.66602 -19 12.999s-11 13.666 -15 12.999
c-37.333 -5.33301 -60 -9.33301 -68 -12c-12 -15.333 -24.667 -22 -38 -20c-17.333 3.33301 -26.666 10.666 -28 21.999c-27.333 -16 -52.666 -24.667 -75.999 -26c-29.333 -2 -67.333 4 -114 18c-41.333 -19.333 -72 -29 -92 -29c-25.333 0 -42 16.333 -50 49
c-32 -8.66699 -74 -17.667 -126 -27c-39.333 -2 -70 9.66699 -92 35c-30 -17.333 -74 -25.333 -132 -24c-12.667 0 -25.667 4.33301 -39 13c-10.667 6.66699 -16.334 11.667 -17.001 15c-18 -18 -33 -27 -45 -27c-18.667 0 -27.334 14 -26.001 42
c-71.333 -24 -119.666 -37.667 -144.999 -41c-22 -3.33301 -40.667 1.33398 -56 14.001c-66 -30 -120.667 -46 -164 -48c-8.66699 -0.666992 -24.667 8.66602 -48 27.999c-26.667 -14.667 -54.667 -23.334 -84 -26.001c-10.667 -0.666992 -20.667 3.66602 -30 12.999
s-14 20.666 -14 33.999c0 10 5.83301 23.167 17.5 39.5s21.834 24.166 30.501 23.499c14 -0.666992 22.333 -6.66699 25 -18c1.33301 -4.66699 -1.83398 -10.5 -9.50098 -17.5s-11.834 -12.167 -12.501 -15.5c-0.666992 -6 4.33301 -9 15 -9
c19.333 0 50.666 16.667 93.999 50l30 26c12.667 10 23 15 31 15c10 0 15 -6.66699 15 -20c0 -9.33301 -6.5 -21.333 -19.5 -36s-20.167 -24.667 -21.5 -30c-1.33301 -6 4 -9.33301 16 -10c10 -0.666992 30.333 3.83301 61 13.5s50 17.5 58 23.5c8 16 20.5 32.167 37.5 48.5
s30.5 23.5 40.5 21.5c19.333 -3.33301 28.333 -14.666 27 -33.999c-0.666992 -10.667 -1 -17 -1 -19c-1.33301 -5.33301 -5 -13 -11 -23l169 54c2 0.666992 12.333 5 31 13c11.333 4.66699 21 7 29 7c6 0 12.667 -5.33301 20 -16c13.333 4.66699 31 15 53 31
c20 14 32.667 21.333 38 22c18 2 27 -3.33301 27 -16c0 -13.333 -12.333 -28 -37 -44c-21.333 -13.333 -44 -23.666 -68 -30.999c-0.666992 -4 -0.666992 -10.667 0 -20c4 -10 10.333 -15 19 -15c26.667 0 56.667 10.333 90 31l44 28.5
c15.333 9.66699 25.333 14.167 30 13.5c4 -0.666992 7.66699 -2.83398 11 -6.50098s4.33301 -7.5 3 -11.5c-2 -4.66699 -8.33301 -11.834 -19 -21.501s-18 -18.167 -22 -25.5c12.667 -10 28.667 -15 48 -15c22 0 63.667 8 125 24c30 28 58.667 44 86 48
c7.33301 0.666992 14 1 20 1c20.667 0 41.667 -6.33301 63 -19c22.667 21.333 38 32 46 32c5.33301 0 9.66602 -2 12.999 -6c5.33301 -6 8 -11.333 8 -16c0 -6.66699 -5.83301 -16.834 -17.5 -30.501s-17.5 -23.5 -17.5 -29.5s1.66699 -9.66699 5 -11
s9.33301 -1.66602 18 -0.999023c13.333 1.33301 21.333 2 24 2c28 0.666992 60.667 8 98 22l19 17c9.33301 6.66699 19 10 29 10c12 -0.666992 19.667 -6 23 -16c2 -5.33301 1.33301 -12 -2 -20c6 1.33301 22.333 6.66602 49 15.999c20 6 33.333 9 40 9
c6 0 11.167 -4 15.5 -12s9.5 -12.333 15.5 -13s35 3.66602 87 12.999c22.667 15.333 42 26 58 32l42 8c56 50 84 111 84 183c0 20 -5 41.333 -15 64c-172 -40.667 -299 -61 -381 -61c-46 0 -110.667 10 -194 30c-109.333 26 -164 57 -164 93
c0 15.333 11.333 33.666 34 54.999c29.333 26.667 68.333 48.334 117 65.001c61.333 20.667 133.333 31 215.999 31c98 0 186 -22 264 -66c51.333 -28.667 94.333 -64 129 -106c62.667 15.333 164.667 43.666 306 84.999c29.333 10 82.333 32 159 66
c58 25.333 91.333 37 100 35c8 -2 11.333 -10.333 10 -25zM1129 576.011c-5.33301 -17.333 -22.668 -37.3311 -52.001 -59.998c-64 -49.333 -101 -78.333 -111 -87l-177 -150c-24 -22 -75.333 -73 -154 -153c-46.667 -48 -76 -71.333 -88 -70
c-6.66699 0.666992 -13.167 4 -19.5 10s-9.5 11 -9.5 15c0 2.66699 11.667 14.334 35 35.001l68 62c6.66699 15.333 16 39.666 28 72.999c-8.66699 -6 -82 -44.667 -220 -116c-128.667 -66.667 -245.667 -100 -351 -100c-12 0 -24.333 3.33301 -37 10
c-16 8 -24.333 18.667 -25 32c-1.33301 19.333 8.16699 38.5 28.5 57.5s42.166 28.5 65.499 28.5c6 0 12.667 -1.66699 20 -5c10.667 -4.66699 15.667 -10.334 15 -17.001c-0.666992 -5.33301 -6 -12 -16 -20s-14.333 -15.333 -13 -22
c2.66699 -15.333 11.334 -23 26.001 -23s47.334 9.33301 98.001 28c53.333 19.333 109.333 42.666 168 69.999c68 32 151 78 249 138c4 33.333 2.33301 66.333 -5 99c-6 28 -12.667 47.833 -20 59.5s-20 23.5 -38 35.5c-56.667 -32.667 -92 -52.334 -106 -59.001
c-62 -29.333 -118 -44 -168 -44c-24 0 -44 5 -60 15c-19.333 11.333 -29.333 27.333 -30 48c-1.33301 36 21 67.667 67 95s95 40.333 147 39c28 -0.666992 58.333 -5.33398 91 -14.001c39.333 -9.33301 64.666 -14.666 75.999 -15.999c35.333 26 53 53 53 81
c0 31.333 -32.333 47.333 -97 48c-17.333 0 -43 -4.66699 -77 -14c-31.333 -8 -50.666 -11.333 -57.999 -10c-10 2 -14.667 4.33301 -14 7c2.66699 14.667 20.5 28.667 53.5 42s65.167 20 96.5 20c33.333 0 63.333 -6 90 -18c33.333 -14.667 50 -36.667 50 -66
c0 -42 -22.333 -84 -67 -126l32 -36c8.66699 -12.667 16.334 -31.834 23.001 -57.501s10 -62.5 10 -110.5c3.33301 2.66699 28.333 17.334 75 44.001c51.333 28.667 106 65 164 109c6 4.66699 36.333 30 91 76c39.333 33.333 62.333 50 69 50c8 0 14.667 -3.66699 20 -11
s6.66602 -14.666 3.99902 -21.999zM2540 436.013c-23.333 40 -67 73.333 -131 100c-66 26.667 -138.667 40 -218 40c-98 0 -180 -15 -246 -45c-52 -24 -78 -45.333 -78 -64c0 -14.667 38 -31.334 114 -50.001c73.333 -18 133.333 -26.333 180 -25
c122 2.66699 248.333 17.334 379 44.001zM1897 122.013c-1.33301 9.33301 -11.666 12.667 -30.999 10c-34 -4.66699 -51.667 -16.667 -53 -36c0 -4.66699 2.16699 -9.16699 6.5 -13.5s9.16602 -6.5 14.499 -6.5c13.333 0 27.5 5.16699 42.5 15.5s21.833 20.5 20.5 30.5z
M749.002 311.014c-9.33301 -6 -25.667 -14.999 -49 -26.999c-5.33301 -10.667 -13 -28.334 -23 -53.001c30.667 30 54.667 56.667 72 80zM550.001 532.015c-34 18 -70.334 26 -109.001 24c-36.667 -1.33301 -73.5 -11.333 -110.5 -30s-54.833 -37 -53.5 -55
c0.666992 -16 13.334 -24 38.001 -24c32 0 73.333 9.33301 124 28c48.667 18 85.667 37 111 57z" />
    <glyph glyph-name="dollar" unicode="$" horiz-adv-x="2446" 
d="M2442 275c0.666992 -39.333 -11.6602 -80.6777 -36.9932 -124.011s-60.333 -81.666 -105 -114.999c-90 -67.333 -202.667 -101 -338 -101c-46.667 0 -82.667 3 -108 9c-27.333 -44 -66 -114.667 -116 -212c-10 -20 -32 -73 -66 -159
c-24.667 -62 -41.334 -92.667 -50.001 -92c-5.33301 0 -10.333 2.83301 -15 8.5s-7 10.834 -7 15.501c0 15.333 10.833 51.5 32.5 108.5s45.5 111.167 71.5 162.5l94 182c-12 16.667 -24.667 30.667 -38 42c-10.667 -1.33301 -21 -3 -31 -5
c-12.667 -2 -24.334 -1.66699 -35.001 1c-12.667 2.66699 -26 18.667 -40 48c-60.667 -28.667 -110.334 -42 -149.001 -40c-25.333 1.33301 -41.666 14.666 -48.999 39.999c-29.333 -21.333 -51.333 -32 -66 -32c-12 0 -22 4.66699 -30 14
c-32 -7.33301 -51.333 -10.666 -58 -9.99902c-18 2 -34 10 -48 24l-45 -8c-18.667 -3.33301 -32.334 -4.66602 -41.001 -3.99902c-9.33301 0.666992 -14.666 6.66699 -15.999 18c0 -0.666992 1.33301 5.33301 4 18l-70 -16c-45.333 -10 -70 -14.667 -74 -14
c-11.333 1.33301 -21.333 10.666 -30 27.999c-33.333 -11.333 -50.666 -16.666 -51.999 -15.999c-6 1.33301 -11 5 -15 11c-1.33301 3.33301 -3 7 -5 11c-58 -21.333 -103.333 -30.666 -136 -27.999c-11.333 0.666992 -25.333 9.33398 -42 26.001
c-26.667 -6.66699 -53.334 -10 -80.001 -10c-13.333 0 -26 7.33301 -38 22c-44.667 -18.667 -79.667 -26 -105 -22c-14.667 2 -29 10.667 -43 26c-22 -12.667 -80 -50 -174 -112c-46 -30 -110 -76 -192 -138c-10 -7.33301 -34.333 -28 -73 -62
c-26.667 -22.667 -43 -34 -49 -34c-9.33301 0 -14 4.66699 -14 14c0 10 38 48.667 114 116c51.333 45.333 113 104 185 176c-4.66699 17.333 -6.66699 30.333 -6 39c-28 -5.33301 -52 -7.66602 -72 -6.99902c-19.333 0.666992 -32.333 8 -39 22
c-2 4.66699 -4.66699 18 -8 40c-2.66699 -0.666992 -18.667 -9 -48 -25c-21.333 -11.333 -37.666 -16.666 -48.999 -15.999c-12 0.666992 -20.833 5.33398 -26.5 14.001s-7.83398 17.667 -6.50098 27c2.66699 24.667 48 73.334 136 146.001c72 60 111.667 89.667 119 89
c5.33301 -0.666992 10.5 -3.16699 15.5 -7.5s7.16699 -8.5 6.5 -12.5c-2 -9.33301 -14.333 -23.166 -37 -41.499l-66 -53.5c-66.667 -54.667 -100 -85.667 -100 -93c0 -8 3 -11.667 9 -11c6.66699 0.666992 24.334 9.66699 53.001 27s50 32.333 64 45
c50 46 81.333 68.667 94 68c4.66699 0 9.33398 -2 14.001 -6s6.66699 -7.33301 6 -10c-0.666992 -6.66699 -9.66699 -17 -27 -31c-24.667 -19.333 -42.334 -34.666 -53.001 -45.999l-32 -34c-14.667 -15.333 -21.667 -26.666 -21 -33.999
c1.33301 -16 7.66602 -24 18.999 -24c3.33301 0 22 5.66699 56 17l35 45c16.667 20 31.334 30 44.001 30c10.667 0 15.667 -5.66699 15 -17c-0.666992 -5.33301 -3.66699 -12 -9 -20c-6 -10 -9.66699 -18 -11 -24c-3.33301 -16 -4 -27.667 -2 -35
c13.333 13.333 31.666 28.666 54.999 45.999c28 20.667 46.333 31 55 31c10 0 15 -6 15 -18c0 -9.33301 -9 -21.333 -27 -36c-4 -3.33301 -22 -16.666 -54 -39.999c-26 -18.667 -42.667 -31 -50 -37c-18 -14 -32.333 -27.667 -43 -41c24 13.333 60.333 35.333 109 66
c21.333 14 52.666 36 93.999 66c27.333 30 42.333 45 45 45c12 0 18 -6.66699 18 -20c0 -4 -4.66699 -12 -14 -24s-14.666 -21.333 -15.999 -28c-2 -9.33301 3.66699 -15.333 17 -18c26 -5.33301 56 5.66699 90 33l32 30c14 12.667 24.333 18.667 31 18
c10 -1.33301 15 -7.66602 15 -18.999c0 -8 -5 -16.667 -15 -26c-14.667 -15.333 -23 -24.333 -25 -27c6.66699 -4.66699 19 -7.66699 37 -9c13.333 -0.666992 32.5 10 57.5 32s39.5 32.667 43.5 32c14 -2.66699 20 -8.66699 18 -18c-1.33301 -8.66699 -6.33301 -18 -15 -28
c-12 -14 -19 -23 -21 -27c11.333 -5.33301 20 -8 26 -8c40 0 82 14 126 42c10 6 24.333 17 43 33c13.333 11.333 22.666 17 27.999 17c7.33301 0 12 -3.66699 14 -11c2 -4.66699 2.66699 -12 2 -22c-1.33301 -15.333 -2 -22.333 -2 -21c28 8.66699 48 18.334 60 29.001
c33.333 28.667 54.333 42.667 63 42c9.33301 -0.666992 12.666 -8 9.99902 -22c-2 -8.66699 -13 -21.667 -33 -39l-49 -40c32.667 -1.33301 62.334 4 89.001 16l28.5 23.5c10.333 8.33301 18.833 12.166 25.5 11.499c17.333 -2 25 -8 23 -18
c-4.66699 -8 -12 -21.667 -22 -41c8 -0.666992 21.333 4 40 14c4 2 13 10 27 24c10.667 10.667 20 15.334 28 14.001c13.333 -2.66699 19.333 -9.33398 18 -20.001c-0.666992 -4.66699 -8.66699 -18.334 -24 -41.001c18.667 -5.33301 27.667 -8 27 -8
c16.667 0 44 10.333 82 31c7.33301 4 18.666 12.667 33.999 26c12 10 20.333 15.333 25 16c7.33301 0.666992 15 -10 23 -32c6.66699 2 18 7.66699 34 17c13.333 8.66699 22.666 13 27.999 13c4.66699 0 8.66699 -2.33301 12 -7s4.66602 -9 3.99902 -13
c-2 -8 -10.833 -18.333 -26.5 -31s-23.834 -21 -24.501 -25c-0.666992 -6 6 -9.33301 20 -10c20 -0.666992 59.667 13.333 119 42c23.333 11.333 51.333 30.333 84 57c0 2 -2.33301 13.667 -7 35c-2.66699 12.667 -3.66699 27.334 -3 44.001c1.33301 26 12.333 50.333 33 73
c18.667 20 35.667 30.333 51 31c13.333 0.666992 24.5 -4.5 33.5 -15.5s12.833 -22.833 11.5 -35.5c-2.66699 -22.667 -10.167 -44.5 -22.5 -65.5l-35.5 -61.5l-2 -71c-1.33301 -32.667 4 -59.334 16 -80.001l81 98c45.333 53.333 91.333 102.333 138 147
c92.667 89.333 176.667 136.666 252 141.999c34 2.66699 65.333 -4.33301 94 -21c34 -20.667 51.333 -50.667 52 -90zM1234.01 877.988c0.666992 -50 -25.334 -90.002 -78.001 -120.002c-40.667 -22.667 -102 -41 -184 -55l-212 -27c-112 -10.667 -274 -28.667 -486 -54
c-130.667 -18 -243 -45.333 -337 -82c-114.667 -44 -172.667 -92 -174 -144c-0.666992 -22 14 -42.667 44 -62c34.667 -21.333 77.667 -32 129 -32c36.667 0 71.667 6.33301 105 19c18.667 6.66699 42.334 18.334 71.001 35.001c22 12.667 37 19 45 19c10 0 15 -3 15 -9
c0 -18 -29.333 -39.5 -88 -64.5s-109 -36.833 -151 -35.5c-69.333 2.66699 -122.333 18 -159 46c-30.667 24 -46.667 53.333 -48 88c-2.66699 66 34.666 119.667 111.999 161c74.667 40 201.334 76.333 380.001 109c60 10.667 145.667 23.334 257 38.001l329 44
c244 34 370 76 378 126v42c0 10.667 4.66699 15.334 14 14.001c10.667 -1.33301 19.667 -7.33301 27 -18s11 -23.334 11 -38.001zM2395 252.986c0 35.333 -6.99902 60.334 -20.999 75.001c-16 16 -44.333 24 -85 24c-22.667 0 -58 -16.667 -106 -50
c-42 -29.333 -84.333 -64.666 -127 -105.999c-35.333 -34 -75 -76.667 -119 -128c-38 -44.667 -61.333 -74.334 -70 -89.001c38 -7.33301 60.667 -11 68 -11c151.333 0 269.666 36 354.999 108c32.667 27.333 59 59 79 95c17.333 31.333 26 58.666 26 81.999z
M1827.01 253.987c0.666992 15.333 -2 23.335 -8 24.002c-8.66699 1.33301 -17 -3.83398 -25 -15.501s-13 -24.834 -15 -39.501c-4 -24.667 -1.33301 -39.667 8 -45c13.333 17.333 22 29.333 26 36c9.33301 14.667 14 28 14 40zM1756.01 61.9893l-3.99805 29
c-12.667 -8 -27.334 -19.667 -44.001 -35c3.33301 -13.333 8.66602 -20.666 15.999 -21.999c14 -2.66699 24.667 6.66602 32 27.999z" />
    <glyph glyph-name="quotesingle" unicode="'" horiz-adv-x="255" 
d="M151 513c-6 -7.33301 -14.332 -10.999 -24.999 -10.999c-12.667 0 -19 6.33301 -19 19c0 0.666992 4 23.667 12 69c3.33301 21.333 6.5 43 9.5 65s6.66699 35.5 11 40.5s9.83301 6.83301 16.5 5.5c7.33301 -0.666992 12.833 -3.66699 16.5 -9s5.5 -13.333 5.5 -24
c0 -10 -2 -25 -6 -45c-6 -28.667 -9.33301 -45.667 -10 -51c-0.666992 -16.667 -4.33398 -36.334 -11.001 -59.001z" />
    <glyph glyph-name="parenleft" unicode="(" horiz-adv-x="306" 
d="M424 672c0 -4.66699 -4.00195 -11.001 -12.002 -19.001c-12.667 -12.667 -22 -23 -28 -31l-196 -250c-31.333 -38.667 -60.333 -85 -87 -139c-27.333 -56 -41 -97.667 -41 -125c0 -11.333 1.66699 -24 5 -38s5 -23.667 5 -29s-0.666992 -10.333 -2 -15
c-5.33301 -17.333 -10.666 -26 -15.999 -26c-11.333 0 -20 12.333 -26 37c-5.33301 22.667 -7.33301 46.334 -6 71.001c3.33301 53.333 19.333 107 48 161c18.667 35.333 49.334 81 92.001 137l149 194c55.333 69.333 89 104 101 104c9.33301 0 14 -10.667 14 -32z" />
    <glyph glyph-name="parenright" unicode=")" horiz-adv-x="432" 
d="M372 684c0 -83.333 -10 -171.337 -30 -264.004c-22 -102 -54 -192 -96 -270c-52.667 -98.667 -118 -166 -196 -202c-2 -0.666992 -4.83301 0.833008 -8.5 4.5s-5.5 6.83398 -5.5 9.50098c0 8.66699 16.333 27.334 49 56.001c42 36.667 75 73.334 99 110.001
c66.667 103.333 112 247.333 136 432c6.66699 52 10 96 10 132c0 8.66699 -5.66699 23.5 -17 44.5s-17 33.5 -17 37.5c0 16 6 24 18 24c9.33301 0 21 -12.667 35 -38c15.333 -27.333 23 -52.666 23 -75.999z" />
    <glyph glyph-name="plus" unicode="+" horiz-adv-x="624" 
d="M561 279c3.33301 -3.33301 5.00195 -7.66895 5.00195 -13.002c0 -7.33301 -4.33301 -16 -13 -26c-2.66699 -2.66699 -28 -3 -76 -1l-144 6v-26c-0.666992 -12.667 -1 -21 -1 -25c0 -4.66699 1 -39.334 3 -104.001c0.666992 -38 -1 -59 -5 -63
c-9.33301 -8.66699 -18.333 -8.66699 -27 0c-7.33301 6.66699 -13 68 -17 184c-0.666992 18.667 -1 30.334 -1 35.001c-12.667 0 -38 -0.666992 -76 -2c-34.667 -0.666992 -59.667 -1 -75 -1c-23.333 0 -36.5 1.83301 -39.5 5.5s-4.5 7.83398 -4.5 12.501
c0 5.33301 2.16699 10.333 6.5 15s67.166 9.66699 188.499 15c0 104 4.66699 161.333 14 172c4 3.33301 8.33301 5 13 5c7.33301 0 16 -4.33301 26 -13c3.33301 -2.66699 2.33301 -57 -3 -163c139.333 2.66699 214.666 -1.66602 225.999 -12.999z" />
    <glyph glyph-name="comma" unicode="," horiz-adv-x="336" 
d="M291 60c0 -36 -39.667 -82 -119 -138c-21.333 -14.667 -46.333 -28.667 -75 -42c-31.333 -14 -54.333 -21 -69 -21c-17.333 0 -26.666 3.66699 -27.999 11c-0.666992 5.33301 2.16602 9.16602 8.49902 11.499s12.833 4.5 19.5 6.5c40.667 16 76.667 37.333 108 64
s53.333 51.334 66 74.001l22 48c7.33301 15.333 16 23 26 23c27.333 0 41 -12.333 41 -37z" />
    <glyph glyph-name="hyphenminus" unicode="-" horiz-adv-x="728" 
d="M648 237c3.33301 -3.33301 4.99902 -7.33203 4.99902 -11.999c0 -8.66699 -5 -18.334 -15 -29.001c-2 -2 -12 -3 -30 -3c-18.667 0 -62.667 1.66699 -132 5c-73.333 4 -127 6.33301 -161 7c-19.333 0 -48.333 -0.833008 -87 -2.5s-64 -2.5 -76 -2.5
c-24 0 -37.833 1.83301 -41.5 5.5s-5.5 8.16699 -5.5 13.5s1.66699 9.66602 5 12.999c8.66699 8.66699 84.334 15.334 227.001 20.001c67.333 2 132.333 2 195 0c70 -2.66699 108.667 -7.66699 116 -15z" />
    <glyph glyph-name="period" unicode="." horiz-adv-x="285" 
d="M215 40c0 -10 -3.33496 -19.166 -10.002 -27.499s-14.667 -12.833 -24 -13.5c-11.333 -0.666992 -21.166 2.5 -29.499 9.5s-12.5 16.167 -12.5 27.5c0 10.667 4.33301 20.667 13 30s18.334 13.666 29.001 12.999c22.667 -2 34 -15 34 -39z" />
    <glyph glyph-name="zero" unicode="0" horiz-adv-x="625" 
d="M630 503c0 -37.333 -27.668 -102.166 -83.001 -194.499s-123.166 -168.833 -203.499 -229.5s-154.833 -91 -223.5 -91c-25.333 0 -50 9.66699 -74 29s-37.333 37.666 -40 54.999c-2 10 -3 21 -3 33c0 52 16.667 111.167 50 177.5s79 128.833 137 187.5
c54 54 114 96.333 180 127c56.667 26 105.667 39 147 39c24 0 48.833 -15.5 74.5 -46.5s38.5 -59.833 38.5 -86.5zM577.999 513c-4 20.667 -13.5 38.167 -28.5 52.5s-32.833 21.5 -53.5 21.5c-38.667 0 -88.5 -20.333 -149.5 -61s-113.5 -87.667 -157.5 -141
c-89.333 -107.333 -134 -195 -134 -263c0 -8 0.666992 -16 2 -24c2.66699 -16 10.5 -30 23.5 -42s27.5 -18 43.5 -18c53.333 0 114 27.333 182 82c60 48.667 117.333 111.667 172 189c72.667 102.667 106 170.667 100 204z" />
    <glyph glyph-name="one" unicode="1" horiz-adv-x="422" 
d="M480 600c0 -23.333 -20.667 -66.667 -62 -130c-10.667 -16 -51.667 -74.333 -123 -175c-149.333 -210.667 -232.333 -316 -249 -316c-6 0 -11 3.66699 -15 11s-6 14.666 -6 21.999c0 4 25.333 40.333 76 109l142 193c74.667 103.333 133 189 175 257l-175 -95
c-15.333 -8 -54.666 -34.667 -117.999 -80c-50.667 -36 -82.334 -54 -95.001 -54c-8.66699 0 -13 6 -13 18c0 22.667 68.333 77.667 205 165c42 26.667 85.833 51.834 131.5 75.501s74.5 35.5 86.5 35.5c26.667 0 40 -12 40 -36z" />
    <glyph glyph-name="two" unicode="2" horiz-adv-x="480" 
d="M504 523c0 -22.667 -15.998 -56 -47.998 -100l-94 -121c-27.333 -38 -80 -102 -158 -192c60 -46.667 90 -79 90 -97c0 -8 -3.33301 -16.167 -10 -24.5s-14.334 -12.5 -23.001 -12.5s-16.334 5.33301 -23.001 16c-10 16 -16.667 25.333 -20 28
c-15.333 14 -37.333 29.667 -66 47c-12 -2.66699 -21.333 -5.33398 -28 -8.00098c-12 -4 -22.667 -9.66699 -32 -17c-6 -4.66699 -16 -15 -30 -31c-11.333 -13.333 -18.666 -20 -21.999 -20c-24 0 -36 14 -36 42c0 16.667 23.667 41.667 71 75
c10 7.33301 24.167 13.5 42.5 18.5s29.833 8.83301 34.5 11.5c48.667 42 103.667 102 165 180c29.333 37.333 58.833 77.833 88.5 121.5s44.5 68.834 44.5 75.501c0 2 0.333008 5.5 1 10.5s1 8.83301 1 11.5c0 16 -11 24 -33 24s-62.667 -25.667 -122 -77
c-6.66699 -6 -22 -21.667 -46 -47c-18 -19.333 -29 -29 -33 -29c-15.333 0 -23 8.33301 -23 25c0 24 34 61.333 102 112c59.333 44 103.666 66 132.999 66c26.667 0 46.667 -10.667 60 -32c9.33301 -16 14 -34.667 14 -56z" />
    <glyph glyph-name="three" unicode="3" horiz-adv-x="538" 
d="M596 558c0 -34.667 -10.001 -62.999 -30.001 -84.999l-64 -55c-13.333 -12.667 -35 -30.334 -65 -53.001c-35.333 -26 -56 -41.667 -62 -47c28.667 -22 43 -47.667 43 -77c0 -22.667 -9 -52.667 -27 -90c-21.333 -44.667 -48 -79.334 -80 -104.001
c-56 -43.333 -118 -65 -186 -65c-14 0 -36.333 8.33301 -67 25c-37.333 20 -56 41.667 -56 65c0 4.66699 2.33301 9.66699 7 15c6 8 14 12 24 12c4.66699 0 16.667 -10.5 36 -31.5s38 -31.5 56 -31.5c34.667 0 62.667 3.66699 84 11c18.667 6 40.167 17.833 64.5 35.5
s44.833 43.834 61.5 78.501c14 28.667 21 52 21 70c0 17.333 -14 27.333 -42 30c-10 0.666992 -26.5 -6.16602 -49.5 -20.499s-37.5 -21.5 -43.5 -21.5c-16 0 -24 16 -24 48c0 8.66699 16.333 21.667 49 39c47.333 24.667 78 42 92 52l120 82c50 37.333 75 65.666 75 84.999
c0 18 -10.333 26 -31 24c-26 -5.33301 -61.667 -24.333 -107 -57l-105 -85c-3.33301 -2 -6.66602 -3 -9.99902 -3c-11.333 0 -17 7.33301 -17 22c0 6.66699 10.667 21 32 43c24 24 52 46.667 84 68c62.667 42 117 63 163 63c10 0 21.5 -4.5 34.5 -13.5
s19.5 -18.5 19.5 -28.5z" />
    <glyph glyph-name="four" unicode="4" horiz-adv-x="398" 
d="M463 488c0 -8.66699 -9.33301 -22.999 -28 -42.999l-63 -69l-159 -183l-113 -145c-36 -44 -61 -66 -75 -66c-4.66699 0 -9.33398 2.5 -14.001 7.5s-7 9.83301 -7 14.5c0 7.33301 19.667 36 59 86l110 137c44.667 52.667 98 119 160 199c-20 -4 -44 -4 -72 0
c-21.333 3.33301 -41.333 12.166 -60 26.499s-28 29.5 -28 45.5c0 18 7.66699 41.333 23 70c16.667 32 32.334 45.667 47.001 41l21 -6c7.33301 -2 11 -5.66699 11 -11c0 -10 -6 -26 -18 -48s-18 -34.333 -18 -37c0 -20.667 19 -31 57 -31c25.333 0 54.5 6.5 87.5 19.5
s50.5 19.5 52.5 19.5c18 0 27 -9 27 -27z" />
    <glyph glyph-name="five" unicode="5" horiz-adv-x="507" 
d="M616 500c-3.33301 -14 -11.333 -20.998 -24 -20.998c-6.66699 0 -21.667 5.33301 -45 16c-25.333 11.333 -42.666 18 -51.999 20c-33.333 6.66699 -70.666 10 -111.999 10l-59 -42c-26.667 -19.333 -49.334 -38.333 -68.001 -57c-20.667 -20.667 -42.667 -47 -66 -79
c-22 -29.333 -33 -46 -33 -50c0 -9.33301 7.66699 -18.5 23 -27.5l44 -25.5c29.333 -18 44 -40 44 -66c0 -34.667 -27.667 -73.5 -83 -116.5s-103.333 -64.5 -144 -64.5c-6.66699 0 -13.834 3 -21.501 9s-11.5 12.333 -11.5 19c0 6 15.333 14.667 46 26c38 14 60 23 66 27
c32 19.333 53 33.666 63 42.999c19.333 17.333 29 36.333 29 57c0 8 -20.5 23.833 -61.5 47.5s-61.5 42.167 -61.5 55.5c0 34 41 93.667 123 179c16.667 17.333 39.334 36.666 68.001 57.999l81 58c7.33301 0 27.666 1 60.999 3c19.333 1.33301 37.333 0.333008 54 -3
c93.333 -20 140 -45.333 140 -76z" />
    <glyph glyph-name="six" unicode="6" horiz-adv-x="497" 
d="M533 540c0 -22 -9 -32 -27 -30c-4.66699 0.666992 -11.334 3.33398 -20.001 8.00098s-16 7 -22 7c-20.667 0 -56 -17.333 -106 -52c-46.667 -32 -91.334 -68.333 -134.001 -109c-64.667 -62 -117.334 -133.333 -158.001 -214c42.667 36 78 62 106 78
c38.667 22 76 33 112 33c22 0 42.333 -6.33301 61 -19c21.333 -15.333 32 -34 32 -56c0 -56 -28 -104.333 -84 -145c-48 -35.333 -94 -53 -138 -53c-47.333 0 -85.666 12.667 -114.999 38s-44 56.666 -44 93.999c0 22 19 61.667 57 119s79.667 108 125 152
c50.667 48.667 103.334 91.667 158.001 129c58.667 39.333 101.334 59 128.001 59c21.333 0 35.333 -1 42 -3c18 -5.33301 27 -17.333 27 -36zM317 165c0 12 -5.16602 22.499 -15.499 31.499s-22.166 13.5 -35.499 13.5c-26 0 -73 -24 -141 -72
c-14.667 -10.667 -29.334 -28.667 -44.001 -54c3.33301 -15.333 14.666 -27.666 33.999 -36.999c14 -7.33301 25.333 -11 34 -11c36 0 71.667 11.333 107 34c40.667 26 61 57.667 61 95z" />
    <glyph glyph-name="seven" unicode="7" horiz-adv-x="392" 
d="M407 563c0 -12.667 -12.667 -35.666 -38 -68.999c-41.333 -53.333 -64 -83.333 -68 -90c-16.667 -25.333 -38.334 -62 -65.001 -110c8 -8 23.667 -18 47 -30c17.333 -9.33301 26 -17.333 26 -24c0 -22.667 -8.33301 -34 -25 -34c-4.66699 0 -15.667 4 -33 12
c-24 11.333 -40.667 18.666 -50 21.999c-106 -166.667 -164 -247 -174 -241c-5.33301 3.33301 -12 6 -20 8c-2.66699 1.33301 -4 4 -4 8c0 15.333 27 63.333 81 144l72 108c-17.333 4.66699 -44.666 14.667 -81.999 30c-47.333 19.333 -71 33.333 -71 42
c0 16.667 13 23.667 39 21c20 -2 49 -9.66699 87 -23c36 -12.667 55 -19 57 -19c12.667 22 35 58 67 108l77 105h-216c-12 0 -18 10.667 -18 32c0 18.667 58.667 28 176 28c50.667 0 83.667 -1 99 -3c24 -4 36 -12.333 36 -25z" />
    <glyph glyph-name="eight" unicode="8" horiz-adv-x="458" 
d="M519 492c0 -33.333 -28 -74.6689 -84 -124.002c-46.667 -42 -103.667 -82 -171 -120c0 -6 3.5 -18.5 10.5 -37.5s9.83301 -35.167 8.5 -48.5c-6 -45.333 -37 -85 -93 -119c-48.667 -28.667 -93.334 -43 -134.001 -43c-14 0 -26.833 6.66699 -38.5 20s-17.5 27 -17.5 41
c0 45.333 26.667 88.333 80 129c14.667 12 57.334 38 128.001 78c-8 46.667 -11 88.667 -9 126c4 68 19 102 45 102c18 0 27 -10 27 -30c0 -5.33301 -2.5 -15.666 -7.5 -30.999s-7.5 -25.666 -7.5 -30.999c-2.66699 -38 0 -71.333 8 -100c38.667 20 77 45 115 75
c54.667 44 82 81.667 82 113c0 21.333 -9.5 43 -28.5 65s-28.5 36 -28.5 42c0 14.667 12 22 36 22c12 0 27.333 -11.333 46 -34c22 -28 33 -59.667 33 -95zM227 161.997c1.33301 20 -2 40.666 -10 61.999c-42 -25.333 -78.333 -51 -109 -77c-34.667 -30 -52 -52.667 -52 -68
c0 -16 8 -24 24 -24c20.667 0 47.667 9 81 27c42 22.667 64 49.334 66 80.001z" />
    <glyph glyph-name="nine" unicode="9" horiz-adv-x="434" 
d="M478 533c-2.66699 -36 -17.6709 -89.3311 -45.0039 -159.998c-30 -76 -63 -141 -99 -195c-44.667 -68 -90.667 -122 -138 -162c-50.667 -44 -96 -66 -136 -66c-51.333 0 -79.666 15.667 -84.999 47c-1.33301 6.66699 2.33398 12 11.001 16c6.66699 4 13.667 6 21 6
c4.66699 0 11.834 -2.5 21.501 -7.5s18.834 -7.5 27.501 -7.5c26 0 58 14.333 96 43c36 27.333 68.667 60.666 98 99.999c35.333 46.667 59.333 82.667 72 108c17.333 33.333 40.666 91.666 69.999 174.999c-38 -15.333 -73 -23 -105 -23c-25.333 0 -46.666 12 -63.999 36
c-16.667 22 -24 45 -22 69c2 32.667 23.333 64.667 64 96c38 28.667 72.333 43 103 43c32.667 0 59.667 -12.5 81 -37.5s31 -51.833 29 -80.5zM406.996 533.002c0.666992 16.667 -4.17188 31.667 -14.5049 45s-22.833 20 -37.5 20s-34.667 -10.333 -60 -31
s-38.666 -39 -39.999 -55s5.33398 -30 20.001 -42c12.667 -10.667 27.334 -16 44.001 -16c20.667 0 40.334 8.16699 59.001 24.5s28.334 34.5 29.001 54.5z" />
    <glyph glyph-name="colon" unicode=":" horiz-adv-x="339" 
d="M249 286c0 -10 -3.33496 -19.166 -10.002 -27.499s-14.667 -12.833 -24 -13.5c-11.333 -0.666992 -21.166 2.5 -29.499 9.5s-12.5 16.167 -12.5 27.5c0 10.667 4.33301 20.667 13 30s18.334 13.666 29.001 12.999c22.667 -2 34 -15 34 -39zM244.998 80.001
c0 -10 -3.33496 -19.166 -10.002 -27.499s-14.667 -12.833 -24 -13.5c-11.333 -0.666992 -21.166 2.5 -29.499 9.5s-12.5 16.167 -12.5 27.5c0 10.667 4.33301 20.667 13 30s18.334 13.666 29.001 12.999c22.667 -2 34 -15 34 -39z" />
    <glyph glyph-name="semicolon" unicode=";" horiz-adv-x="408" 
d="M355 280c0 -10 -3.33496 -19.166 -10.002 -27.499s-14.667 -12.833 -24 -13.5c-11.333 -0.666992 -21.166 2.5 -29.499 9.5s-12.5 16.167 -12.5 27.5c0 10.667 4.33301 20.667 13 30s18.334 13.666 29.001 12.999c22.667 -2 34 -15 34 -39zM320.998 80.001
c0 -36 -39.667 -82 -119 -138c-21.333 -14.667 -46.333 -28.667 -75 -42c-31.333 -14 -54.333 -21 -69 -21c-17.333 0 -26.666 3.66699 -27.999 11c-0.666992 5.33301 2.16602 9.16602 8.49902 11.499s12.833 4.5 19.5 6.5c40.667 16 76.667 37.333 108 64
s53.333 51.334 66 74.001l22 48c7.33301 15.333 16 23 26 23c27.333 0 41 -12.333 41 -37z" />
    <glyph glyph-name="equal" unicode="=" horiz-adv-x="728" 
d="M646 299c3.33301 -3.33301 4.99902 -7.33203 4.99902 -11.999c0 -8.66699 -5 -18.334 -15 -29.001c-2 -2 -12 -3 -30 -3c-18.667 0 -62.667 1.66699 -132 5c-73.333 4 -127 6.33301 -161 7c-19.333 0 -48.333 -0.833008 -87 -2.5s-64 -2.5 -76 -2.5
c-24 0 -37.833 1.83301 -41.5 5.5s-5.5 8.16699 -5.5 13.5s1.66699 9.66602 5 12.999c8.66699 8.66699 84.334 15.334 227.001 20.001c67.333 2 132.333 2 195 0c70 -2.66699 108.667 -7.66699 116 -15zM647.999 157.001c3.33301 -3.33301 4.99902 -7.33203 4.99902 -11.999
c0 -8.66699 -5 -18.334 -15 -29.001c-2 -2 -12 -3 -30 -3c-18.667 0 -62.667 1.66699 -132 5c-73.333 4 -127 6.33301 -161 7c-19.333 0 -48.333 -0.833008 -87 -2.5s-64 -2.5 -76 -2.5c-24 0 -37.833 1.83301 -41.5 5.5s-5.5 8.16699 -5.5 13.5s1.66699 9.66602 5 12.999
c8.66699 8.66699 84.334 15.334 227.001 20.001c67.333 2 132.333 2 195 0c70 -2.66699 108.667 -7.66699 116 -15z" />
    <glyph glyph-name="question" unicode="?" horiz-adv-x="709" 
d="M726 660c-5.33301 -52 -46.3301 -100.998 -122.997 -146.998l-218 -120c-81.333 -54 -129 -115.667 -143 -185c-7.33301 -12 -17 -18 -29 -18c-17.333 0 -24 12.333 -20 37c10 63.333 55.333 122.666 136 177.999l219 126c77.333 45.333 118 88.333 122 129
c1.33301 14 -19.334 25 -62.001 33c-30.667 5.33301 -57.334 7.66602 -80.001 6.99902c-45.333 -1.33301 -94 -18 -146 -50l-104 -75c-4.66699 0 -9.5 0.333008 -14.5 1s-7.5 4 -7.5 10c0 3.33301 1 8.33301 3 15c46.667 50 91 86.667 133 110
c50.667 28.667 105.667 43 165 43c43.333 0 81.666 -7.33301 114.999 -22c39.333 -17.333 57.333 -41.333 54 -72zM193.003 29.002c0 -8 -3 -15.168 -9 -21.501s-13 -9.5 -21 -9.5c-13.333 0 -21.333 6 -24 18c-1.33301 2.66699 -2 5.33398 -2 8.00098c0 14 7 24 21 30
c8.66699 2.66699 16.667 1.5 24 -3.5s11 -12.167 11 -21.5z" />
    <glyph glyph-name="at" unicode="@" horiz-adv-x="2232" 
d="M1788 4c0 -13.333 -2.66797 -21.667 -8.00098 -25s-14.666 -5 -27.999 -5c-42.667 0 -64 11.333 -64 34c0 11.333 5.83301 21.833 17.5 31.5s22.5 14.5 32.5 14.5c13.333 0 25 -4.83301 35 -14.5s15 -21.5 15 -35.5zM2214 493.999
c0 -12 -6.00488 -18.001 -18.0049 -18.001h-252.5c-12.333 0 -50.166 1.33301 -113.499 4c-49.333 2.66699 -93.333 3.33398 -132 2.00098c-21.333 -0.666992 -59.333 -2.66699 -114 -6c-10.667 -9.33301 -23 -24.333 -37 -45c-22.667 -32 -37 -51.667 -43 -59
c-23.333 -29.333 -60.666 -80 -111.999 -152l166 108c72.667 54.667 122.667 82 150 82c13.333 0 20 -6 20 -18c0 -8 -16 -26 -48 -54l-74 -62c-80 -72.667 -133 -124 -159 -154c-22 -25.333 -33 -46 -33 -62c0 -12.667 8.66699 -20 26 -22
c8 -1.33301 24.333 -0.166016 49 3.50098s42.334 5.16699 53.001 4.5c20.667 -0.666992 38.5 -6 53.5 -16s22.5 -23.333 22.5 -40c0 -10.667 -9 -40 -27 -88c-21.333 -56.667 -45.666 -110 -72.999 -160c-14.667 -26.667 -40.667 -57.667 -78 -93
c-40 -37.333 -80 -67 -120 -89c-63.333 -34.667 -142.666 -52 -237.999 -52c-64 0 -116 14 -156 42c-12.667 8.66699 -23.167 20 -31.5 34s-12.5 25.333 -12.5 34c0 9.33301 4.66699 14 14 14c5.33301 0 14 -7.66699 26 -23c13.333 -18 22 -28.333 26 -31
c18 -12.667 38 -21 60 -25c13.333 -2 38 -3 74 -3c74.667 0 148 17.333 220 52c78 38 142 104.667 192 200c15.333 29.333 31 65 47 107c15.333 39.333 23 62.333 23 69c0 16.667 -10.667 25.334 -32 26.001c-9.33301 0 -25.833 -2 -49.5 -6s-41.834 -6 -54.501 -6
c-17.333 0 -31.333 5.66699 -42 17s-16 26.333 -16 45c0 24 18 57.667 54 101c12.667 15.333 44 49 94 101c-48 -30.667 -75.333 -48.334 -82 -53.001c-42 -29.333 -89.333 -67 -142 -113l-75.999 -70c-22 -20 -35.333 -30 -40 -30c-4 0 -8.66699 1.83301 -14 5.5
s-8 7.83398 -8 12.501c0 7.33301 13 25 39 53l77 83c44.667 50 97.334 117 158.001 201l88 113c-9.33301 3.33301 -27.333 1.33301 -54 -6l-106 -102c-81.333 -74.667 -131.333 -112 -150 -112c-8 0 -12 4 -12 12c0 2 16.333 16.667 49 44l91 78l78 80
c-34 5.33301 -62.667 7.33301 -86 6c-6.66699 0 -19.167 -2.33301 -37.5 -7s-31.5 -7 -39.5 -7c-19.333 0 -29 8.66699 -29 26c0 11.333 12.833 23.166 38.5 35.499s48.167 18.5 67.5 18.5c8.66699 0 27 -1.33301 55 -4c23.333 -2.66699 42.333 -3.33398 57 -2.00098
c13.333 0 31.333 2 54 6c20 14.667 50 40.667 90 78c38 41.333 63.333 62 76 62c6 0 12.167 -2.5 18.5 -7.5s9.5 -9.83301 9.5 -14.5c0 -15.333 -9.33301 -35.333 -28 -60c-24.667 -32.667 -38.667 -52 -42 -58h344c99.333 0 153.666 -0.333008 162.999 -1
c59.333 -3.33301 89 -13 89 -29zM925.994 69.998c0 -11.333 -4.66797 -23.167 -14.001 -35.5s-19.333 -18.5 -30 -18.5c-8.66699 0 -17.667 2.66699 -27 8c-11.333 6 -17 13.333 -17 22c0 9.33301 6.5 20.333 19.5 33s25.833 19 38.5 19c6.66699 0 13.334 -3 20.001 -9
s10 -12.333 10 -19zM1109.99 777.997c0 -13.333 -19.665 -43.335 -58.998 -90.002l-113 -126c-61.333 -68.667 -125.333 -154.667 -192 -258c8 1.33301 30 9.33301 66 24c39.333 16 81.333 37.333 126 64c16.667 10 42.667 29 78 57c28 22 44.667 33 50 33
c10.667 0 16 -4 16 -12c0 -16 -10.667 -33 -32 -51c-17.333 -15.333 -51.333 -38.333 -102 -69c-24 -14.667 -63.333 -35 -118 -61c-80.667 -38 -125.667 -59.333 -135 -64c-36.667 -39.333 -74.334 -87.666 -113.001 -144.999c-58.667 -86.667 -96 -130 -112 -130
c-8 0 -12 5.33301 -12 16c0 14.667 18.667 47.334 56 98.001c40 54 60 99.333 60 136c0 7.33301 -6.33301 14 -19 20c-20.667 9.33301 -34.334 16.333 -41.001 21c-12.667 -10.667 -61 -43 -145 -97c-102 -65.333 -198.333 -98 -289 -98c-36 0 -54 11.333 -54 34
c0 12.667 18.5 39.167 55.5 79.5s63.833 60.5 80.5 60.5c14.667 0 22 -6.66699 22 -20c0 -6 -12.667 -22.333 -38 -49s-38 -44.334 -38 -53.001c0 -5.33301 4 -8.33301 12 -9c-10.667 0.666992 -2.66699 1 24 1c13.333 0 39.666 7.33301 78.999 22
c45.333 17.333 86 37 122 59c44.667 27.333 88.334 59.333 131.001 96c-21.333 24 -32.333 36.667 -33 38c-11.333 15.333 -17 30.333 -17 45c0 12 10.667 33.333 32 64c24 34.667 50.667 63.334 80 86.001c37.333 29.333 73.333 44 108 44
c25.333 0 46.666 -6.33301 63.999 -19c5.33301 -4 17.333 -16.333 36 -37l92 73c26.667 22.667 63.334 57 110.001 103c87.333 86.667 135.333 130 144 130c12 0 18 -5.33301 18 -16zM781.995 457.995c-35.333 -18 -65.333 -46.667 -90 -86c0 -11.333 6 -20.333 18 -27
c18.667 21.333 42.667 59 72 113zM691.995 451.995c0 29.333 -16.668 44 -50.001 44c-27.333 0 -60.666 -20.667 -99.999 -62c-37.333 -38.667 -56 -66 -56 -82c0 -11.333 5.5 -22.166 16.5 -32.499s20.833 -15.5 29.5 -15.5c17.333 11.333 44.833 34.166 82.5 68.499
s63.5 60.833 77.5 79.5zM634.994 297.995c2.66699 15.333 2.66797 24 0.000976562 26c-2.66699 2.66699 -8.66699 4 -18 4c-5.33301 -5.33301 -15.333 -13.833 -30 -25.5s-25 -20.5 -31 -26.5c8.66699 -7.33301 20.667 -14 36 -20c17.333 10.667 31.666 24.667 42.999 42z
" />
    <glyph glyph-name="A" unicode="A" horiz-adv-x="787" 
d="M1020 645c0 -8.66699 -30.334 -54.6709 -91.001 -138.004c-54.667 -76 -91 -124.333 -109 -145c20 -4.66699 40 -9 60 -13c18 -5.33301 27 -12.666 27 -21.999c0 -21.333 -9.66699 -31.666 -29 -30.999c-6 0 -22.333 3 -49 9c-23.333 5.33301 -39.666 7.33301 -48.999 6
c-16.667 -17.333 -34.5 -39.166 -53.5 -65.499s-33.667 -45.166 -44 -56.499s-35.166 -47.333 -74.499 -108c-32.667 -51.333 -52.667 -77 -60 -77c-22.667 0 -34 7.33301 -34 22c0 8 42 70 126 186c17.333 21.333 42 54.333 74 99c-7.33301 0 -19.833 1.33301 -37.5 4
s-29.834 4 -36.501 4c-86.667 -90 -179.667 -160.667 -279 -212c-64.667 -33.333 -107.334 -54 -128.001 -62c-44 -18 -84.667 -27 -122 -27c-18.667 0 -38.334 5 -59.001 15c-26.667 14 -40 32 -40 54c0 18 7 35.833 21 53.5s30.667 28.5 50 32.5
c2.66699 0.666992 5.83398 0 9.50098 -2s5.16699 -4.33301 4.5 -7c-2 -6.66699 -7.33301 -15 -16 -25c-6.66699 -7.33301 -10 -15.333 -10 -24c0 -28.667 17.667 -43 53 -43c38 0 110.333 27.333 217 82c92 46.667 171 101.667 237 165l-52 12c-22 6 -33 12.333 -33 19
c0 14.667 20.667 22 62 22c8.66699 0 20.834 -0.333008 36.501 -1s26.5 -1 32.5 -1l202.5 185.5c93 84.333 149.5 126.5 169.5 126.5c16 0 24 -12.333 24 -37zM925.999 583.996c-34.667 -27.333 -70 -56.667 -106 -88c-51.333 -44.667 -97.333 -86.667 -138 -126l76 -8
l69 92z" />
    <glyph glyph-name="B" unicode="B" horiz-adv-x="649" 
d="M772 170c0 -10 -20.6709 -23.335 -62.0039 -40.002l-102 -39c-4.66699 -2 -43.667 -19.667 -117 -53c-48.667 -22.667 -81 -34 -97 -34c-6.66699 0 -11.667 4 -15 12c-3.33301 9.33301 7.33398 19.666 32.001 30.999c32 13.333 52 25.333 60 36
c25.333 32.667 39.333 51.667 42 57c12.667 22 19 48 19 78c0 5.33301 -4.33301 11.833 -13 19.5s-13 14.834 -13 21.501c0 12 9.83301 26.833 29.5 44.5l59.5 52.5c18 16.667 33.833 35.167 47.5 55.5s20.5 35.833 20.5 46.5c0 8 -0.666992 13.333 -2 16
s-5.66602 4 -12.999 4s-37.666 -20 -90.999 -60c-50.667 -36.667 -99.167 -74.667 -145.5 -114s-94.5 -84 -144.5 -134l-177 -175l-62 -64c-18.667 -17.333 -31.334 -24.666 -38.001 -21.999c-13.333 7.33301 -20 14 -20 20c0 20 55.667 102.333 167 247
c22.667 29.333 52 71.333 88 126c45.333 68.667 71.666 108 78.999 118c-20.667 -12 -41 -27.333 -61 -46l-46 -44c-7.33301 -6 -23.666 -23.667 -48.999 -53c-18 -20.667 -31 -31 -39 -31c-2 0 -4 0.833008 -6 2.5s-5.33301 2.83398 -10 3.50098c-2 0.666992 -3 3 -3 7
c0 20 95.333 120.333 286 301c130.667 124 208 186 232 186c5.33301 0 10 -2.83301 14 -8.5s6 -11.5 6 -17.5c0 -13.333 -21.333 -41.666 -64 -84.999c-68 -68.667 -111.333 -114.334 -130 -137.001c-50 -59.333 -102.333 -126.666 -157 -201.999
c-51.333 -71.333 -83.666 -120.333 -96.999 -147c46 44 123.333 113 232 207l150 120c48 34.667 87.333 52 118 52c20 0 30 -19.333 30 -58c0 -22.667 -16.167 -54.834 -48.5 -96.501s-63.166 -70.167 -92.499 -85.5c10.667 -15.333 16 -33 16 -53
c0 -15.333 -5.5 -37.166 -16.5 -65.499s-23.167 -51.833 -36.5 -70.5c19.333 8.66699 51.333 22 96 40c88 30 133.333 45 136 45c5.33301 -4.66699 8 -9.33398 8 -14.001z" />
    <glyph glyph-name="C" unicode="C" horiz-adv-x="566" 
d="M763 593c0 -43.333 -28.833 -91.4961 -86.5 -144.496s-105.5 -79.5 -143.5 -79.5c-15.333 0 -28.333 3.66699 -39 11c-12.667 8 -19 18.667 -19 32c0 32.667 25.667 58 77 76c6.66699 2 12.5 -4.5 17.5 -19.5s10.833 -22.5 17.5 -22.5c13.333 0 34.666 13.667 63.999 41
c32 30.667 48 58 48 82c0 7.33301 -3.5 13.833 -10.5 19.5s-12.833 8.5 -17.5 8.5c-13.333 0 -39 -8.66699 -77 -26c-55.333 -24.667 -110.333 -58.334 -165 -101.001c-82.667 -64.667 -159 -132.667 -229 -204c-87.333 -88.667 -131 -153.667 -131 -195
c0 -4.66699 2.66699 -9.33398 8 -14.001s10.666 -7 15.999 -7c47.333 0 147.333 17.667 300 53c51.333 12 121.333 31.667 210 59c78.667 24.667 118.334 37 119.001 37c16.667 0 25 -5.33301 25 -16c0 -8 -37.333 -24.667 -112 -50c-64 -21.333 -133.333 -42 -208 -62
c-167.333 -44.667 -285.333 -67 -354 -67c-45.333 0 -68 22.333 -68 67c0 16 12.333 43.333 37 82c29.333 46 69.666 95.667 120.999 149c62.667 65.333 155.334 144.666 278.001 237.999c38.667 29.333 86.334 55.666 143.001 78.999c50.667 20.667 87.667 31 111 31
c45.333 0 68 -19 68 -57z" />
    <glyph glyph-name="D" unicode="D" horiz-adv-x="1018" 
d="M1230 696c-4.66699 -10.667 -18.3369 -25.998 -41.0039 -45.998c-35.333 -31.333 -54 -48 -56 -50c8 -21.333 13 -39.333 15 -54v-48c0 -38.667 -16 -89 -48 -151c-34 -65.333 -75.333 -122.333 -124 -171c-56 -56 -123.667 -102 -203 -138
c-72 -32 -134.667 -48 -188 -48c-50 0 -110.333 12.667 -181 38c-14 -10 -52 -25.667 -114 -47c-76 -26 -137.333 -39 -184 -39c-94 0 -141 28.667 -141 86c0 26 28 49 84 69c51.333 18 105.333 27.333 162 28c28.667 0.666992 59 -4 91 -14l88 -27c36 36 126 109 270 219
l206 151l193 146c-20 22.667 -49 42 -87 58c-48.667 20 -104 30 -166 30c-42 0 -92 -7.66699 -150 -23c-61.333 -16 -118.333 -37.667 -171 -65c-57.333 -29.333 -109.666 -65 -156.999 -107c-50.667 -45.333 -76 -81.666 -76 -108.999c0 -13.333 4 -22.666 12 -27.999
c4.66699 -2.66699 14.667 -5.33398 30 -8.00098c22 -3.33301 58.333 5.33398 109 26.001s93.667 44 129 70c71.333 53.333 107 98.666 107 135.999c0 10 -1 18.333 -3 25c-0.666992 2.66699 0.333008 6 3 10c8 13.333 17.333 19.333 28 18c12.667 -2 18.334 -13 17.001 -33
c-4 -58.667 -44.667 -118 -122 -178c-42 -32.667 -93.333 -61.334 -154 -86.001c-53.333 -22 -91.333 -33 -114 -33c-23.333 0 -44.833 8.16699 -64.5 24.5s-28.5 35.166 -26.5 56.499c6 68 92.667 151 260 249c56.667 33.333 119.334 59.666 188.001 78.999
c60.667 17.333 112.334 26 155.001 26c112.667 0 210 -31.667 292 -95c12.667 11.333 34 29 64 53l31.5 28c11 9.33301 19.167 14 24.5 14c10.667 0 16 -7.66699 16 -23c0 -6.66699 -1.33301 -13 -4 -19zM1098 498.002c0 14.667 -4 35.3301 -12 61.9971
c-59.333 -51.333 -122 -101.333 -188 -150l-196 -131c-145.333 -103.333 -234.333 -172.666 -267 -207.999c60.667 -18 110.667 -27 150 -27c53.333 0 111.333 13 174 39c70 28 130.333 67 181 117c47.333 46.667 85.5 96.834 114.5 150.501s43.5 102.834 43.5 147.501z
M338.997 43.998c-22.667 5.33301 -44.998 11 -66.998 17c-28.667 6 -54.334 9.33301 -77.001 10c-34.667 1.33301 -74.334 -4.66699 -119.001 -18s-67 -24.333 -67 -33c0 -25.333 32.333 -38 97 -38c26 0 71.667 9.66699 137 29c58.667 17.333 90.667 28.333 96 33z" />
    <glyph glyph-name="E" unicode="E" horiz-adv-x="398" 
d="M630 704c0 -16.667 -10.332 -39.665 -30.999 -68.998c-2.66699 -2.66699 -24.334 -29.667 -65.001 -81c-61.333 -76 -115.333 -137.333 -162 -184l-136 -133c-120.667 -115.333 -181 -186.333 -181 -213c0 -13.333 3 -20 9 -20c24.667 0 85.334 17.333 182.001 52
c22.667 8 58.667 24.333 108 49c39.333 20 63.333 30 72 30c9.33301 0 14 -4.33301 14 -13c0 -16.667 -62 -50.667 -186 -102c-96.667 -40 -165.667 -60 -207 -60c-12.667 0 -24.334 6.16699 -35.001 18.5s-15 26.166 -13 41.499c3.33301 28.667 27.333 68.667 72 120
c24 27.333 71.667 76.666 143 147.999c36 34 80.667 79 134 135c-11.333 7.33301 -28 21.333 -50 42c-21.333 26.667 -32 51.334 -32 74.001c0 32.667 41.333 78.667 124 138c26.667 19.333 59 36.666 97 51.999c34 14 57.333 21 70 21c17.333 0 33 -3.33301 47 -10
c17.333 -8.66699 26 -20.667 26 -36zM571.001 690.002c0.666992 2 1 3.66699 1 5c0 6 -9.33301 9 -28 9c-31.333 0 -74 -18.667 -128 -56c-30 -20.667 -56.667 -43 -80 -67c-18.667 -19.333 -28 -31 -28 -35c0 -36 24 -65.333 72 -88c21.333 20.667 54 55 98 103l62 70.5
c20.667 24.333 31 43.833 31 58.5z" />
    <glyph glyph-name="F" unicode="F" 
d="M1340 718c0 -37.333 -33.335 -74 -100.002 -110c-62 -33.333 -156 -50 -282 -50c-62 0 -130 8.33301 -204 25s-134.333 25 -181 25c-174.667 0 -281.667 -52.667 -321 -158l-16 -54c-6.66699 -21.333 -14 -32 -22 -32c-16 0 -24 11 -24 33c0 82.667 37.667 148 113 196
c66.667 42 147.667 63 243 63c70.667 0 148.834 -9.33301 234.501 -28s147.5 -28 185.5 -28c90.667 0 155.334 5.33301 194.001 16c18 21.333 44.667 48 80 80c28 25.333 48.333 38 61 38c8 0 16.5 -1.83301 25.5 -5.5s13.5 -7.16699 13.5 -10.5zM589.998 207
c0 -17.333 -10.6689 -26.333 -32.002 -27c-58 -2.66699 -104.667 3.33301 -140 18c-13.333 5.33301 -27.333 15.333 -42 30l-66 -67c-64 -60 -111.333 -101.333 -142 -124c-52.667 -38.667 -97.667 -58 -135 -58c-5.33301 0 -13 5.66699 -23 17s-15 21.333 -15 30
c0 12.667 6.33301 31.667 19 57c14.667 30 29.334 45 44.001 45c13.333 0 20 -4.66699 20 -14c0 -3.33301 -5.66699 -13 -17 -29s-17 -27 -17 -33c0 -9.33301 4.66699 -14 14 -14c39.333 0 113.333 53.667 222 161l61 59c-8.66699 5.33301 -17 9.33301 -25 12
c-13.333 4 -24.666 6 -33.999 6c-15.333 0 -25.333 -8.83301 -30 -26.5s-9 -26.5 -13 -26.5c-16.667 0 -25 9 -25 27c0 51.333 18.667 77 56 77c19.333 0 42.666 -5 69.999 -15c10 -4 22 -11.667 36 -23l105 98c52 48 82.667 72 92 72c11.333 0 17 -3 17 -9
c0 -12.667 -60 -75.667 -180 -189c16.667 -12.667 31.334 -21.667 44.001 -27c16.667 -7.33301 45.667 -12.333 87 -15c32.667 -2.66699 49 -6.66699 49 -12z" />
    <glyph glyph-name="G" unicode="G" horiz-adv-x="382" 
d="M663 621c0 -10 -28.667 -44.002 -86 -102.002c-76 -77.333 -121.667 -125 -137 -143c-58.667 -69.333 -104 -131.666 -136 -186.999l-56 -107l107 51l69.5 32c23.667 10.667 40.167 16 49.5 16c20 0 30 -5.33301 30 -16c0 -8.66699 -10.333 -17.334 -31 -26.001
c-67.333 -27.333 -126 -52.666 -176 -75.999l-50 -24c-13.333 -8 -45.333 -29 -96 -63l-152 -208c-76 -102 -147.667 -186 -215 -252c-105.333 -103.333 -165 -161.333 -179 -174c-66.667 -60 -113 -90 -139 -90c-13.333 0 -25 4.83301 -35 14.5s-15 20.834 -15 33.501
c0 21.333 24.667 62.333 74 123c41.333 51.333 91 106 149 164c53.333 53.333 113 108.333 179 165l195 164c29.333 23.333 80.333 66.333 153 129c57.333 74 108.333 161 153 261c-69.333 -49.333 -125.333 -74 -168 -74c-9.33301 0 -19 4.16699 -29 12.5
s-15 16.833 -15 25.5c0 38 32 100.667 96 188c96.667 132 189.667 197.333 279 196c32 -0.666992 66.667 -14.667 104 -42c28 25.333 46.333 38 55 38c14.667 0 22 -9.66699 22 -29zM550 577.998c-14.667 18.667 -38 29.333 -70 32c-61.333 4.66699 -138 -48.333 -230 -159
c-22 -26 -43.667 -60.333 -65 -103c-18 -34.667 -27 -54.667 -27 -60c0 -12 6.66699 -18 20 -18c17.333 0 55 22.667 113 68c51.333 40 106 87.333 164 142zM36 -114.003c-39.333 -28.667 -95.667 -75 -169 -139c-78.667 -68.667 -143.667 -128.667 -195 -180
c-156 -155.333 -228.333 -244.333 -217 -267c2.66699 -6 9.66699 -9 21 -9c16.667 0 50.667 24 102 72l167 162c100.667 98 197.667 218.333 291 361z" />
    <glyph glyph-name="H" unicode="H" horiz-adv-x="655" 
d="M738 227c0 -14 -45.6719 -49.3359 -137.005 -106.003c-81.333 -50.667 -140.333 -76 -177 -76c-21.333 0 -39.833 7.83301 -55.5 23.5s-23.5 33.167 -23.5 52.5c0 20.667 12 62.667 36 126c-22 10.667 -48.667 14 -80 10c-26 -3.33301 -49.667 -12.666 -71 -27.999
c-12 -9.33301 -30.667 -27.333 -56 -54c-10 -10.667 -38 -47 -84 -109c-33.333 -45.333 -55.666 -68 -66.999 -68c-15.333 0 -23 5.33301 -23 16c0 12 12 41 36 87l76 146c-4 1.33301 -8.5 4.83301 -13.5 10.5s-7.5 11.5 -7.5 17.5c0 2.66699 0.666992 5.33398 2 8.00098
c12 19.333 44 54 96 104c68 66.667 110.667 109.334 128 128.001c116.667 126.667 182.334 190 197.001 190c11.333 0 17 -6.33301 17 -19c0 -18.667 -25 -54.667 -75 -108l-125 -127c-55.333 -58.667 -93.666 -112 -114.999 -160c10 0 28.667 2.66699 56 8s44.333 8 51 8
c3.33301 0 15.666 -2.66699 36.999 -8s37.333 -8 48 -8c36 52 72.333 98 109 138c84.667 92 135.334 138 152.001 138c8.66699 0 13 -3.66699 13 -11c0 -5.33301 -15.333 -24.333 -46 -57c-41.333 -44 -68.666 -74 -81.999 -90l-58 -68.5
c-19.333 -23 -35.333 -46.167 -48 -69.5c-34.667 -62.667 -52 -106.667 -52 -132c0 -13.333 4 -24.333 12 -33s17 -13 27 -13c36.667 0 87.334 20 152.001 60l84.5 55c29 18.667 46.5 28 52.5 28c9.33301 0 14 -3 14 -9z" />
    <glyph glyph-name="I" unicode="I" horiz-adv-x="593" 
d="M755 612c0 -21.333 -8.66504 -38.668 -25.998 -52.001c-8.66699 -6.66699 -28.334 -17.167 -59.001 -31.5s-54 -28.166 -70 -41.499l-200 -162l-205 -184v-9c61.333 28.667 137.333 58.667 228 90c31.333 10.667 68 21.667 110 33s67 17 75 17c10 0 15 -8.66699 15 -26
c0 -6.66699 -20.667 -16 -62 -28l-115 -34c-98 -32.667 -167.667 -60 -209 -82c-30.667 -16.667 -72.334 -42.334 -125.001 -77.001c-38.667 -25.333 -61.334 -38 -68.001 -38c-12.667 0 -19 9.66699 -19 29c0 16.667 13 38.334 39 65.001c3.33301 4 50 47.667 140 131
c30.667 28.667 85.334 77.334 164.001 146.001c28.667 25.333 70.334 59 125.001 101c58.667 45.333 88.667 68.666 90 69.999c-0.666992 0 -15.334 -1 -44.001 -3c-17.333 -1.33301 -33 -0.333008 -47 3c-8.66699 2 -24 21.667 -46 59l-96 -76
c-52 -40 -98.667 -71.667 -140 -95c-106.667 -60.667 -172 -91 -196 -91c-4 0 -8.16699 2 -12.5 6s-6.5 8.66699 -6.5 14c0 13.333 24.667 31 74 53c71.333 32 115.333 53.333 132 64c29.333 18.667 81 59.667 155 123c55.333 48 92.333 72 111 72c21.333 0 37 -8 47 -24
c2.66699 -4 7.66699 -18.667 15 -44c4.66699 -16 12 -24 22 -24c21.333 0 53 12.333 95 37s67 37 75 37c7.33301 0 14.833 -3.5 22.5 -10.5s11.5 -12.833 11.5 -17.5z" />
    <glyph glyph-name="J" unicode="J" horiz-adv-x="593" 
d="M755 642c0 -21.333 -8.66113 -38.668 -25.9941 -52.001c-8.66699 -6.66699 -28.334 -17.167 -59.001 -31.5s-54 -28.166 -70 -41.499c-74.667 -62.667 -141.334 -125.667 -200.001 -189c-29.333 -31.333 -88 -98 -176 -200c-66 -75.333 -111.667 -124 -137 -146v-9
c61.333 28.667 137.333 58.667 228 90c29.333 10 83.666 24 162.999 42c76 17.333 118.333 26 127 26c10 0 15 -8.66699 15 -26c0 -6 -38.333 -18.333 -115 -37c-97.333 -24 -153 -38.333 -167 -43c-98 -32.667 -167.667 -60 -209 -82
c-30.667 -16.667 -72.334 -42.334 -125.001 -77.001c-38.667 -25.333 -61.334 -38 -68.001 -38c-12.667 0 -19 9.66699 -19 29c0 16.667 13 38.334 39 65.001c3.33301 4 50 47.667 140 131l272 308c44 48.667 115.667 114.667 215 198c-0.666992 0 -15.334 -1 -44.001 -3
c-17.333 -1.33301 -33 -0.333008 -47 3c-8.66699 2 -24 21.667 -46 59l-96 -76c-52 -40 -98.667 -71.667 -140 -95c-106.667 -60.667 -172 -91 -196 -91c-4 0 -8.16699 2 -12.5 6s-6.5 8.66699 -6.5 14c0 13.333 24.667 31 74 53c71.333 32 115.333 53.333 132 64
c29.333 18.667 81 59.667 155 123c55.333 48 92.333 72 111 72c21.333 0 37 -8 47 -24c2.66699 -4 7.66699 -18.667 15 -44c4.66699 -16 12 -24 22 -24c21.333 0 53 12.333 95 37s67 37 75 37c7.33301 0 14.833 -3.5 22.5 -10.5s11.5 -12.833 11.5 -17.5z" />
    <glyph glyph-name="K" unicode="K" horiz-adv-x="812" 
d="M1006 631c0 -11.333 -82.001 -72.333 -246.001 -183c-70.667 -48 -146.667 -94.667 -228 -140c-68.667 -38.667 -125.667 -68.667 -171 -90c17.333 -35.333 39.666 -69.666 66.999 -102.999c34 -40.667 62.667 -61 86 -61c18 0 71 8.66699 159 26
c20.667 4 53.667 12.333 99 25c36.667 10 58.667 15 66 15c12 0 18 -5 18 -15c0 -14 -55.333 -35.667 -166 -65c-97.333 -26 -161 -39 -191 -39c-24.667 0 -62.667 26.333 -114 79c-7.33301 8 -20.666 25.333 -39.999 52c-13.333 18.667 -23.333 28 -30 28
c-10.667 0 -26.5 -8 -47.5 -24l-63.5 -48c-100 -72 -154.333 -108 -163 -108c-10.667 0 -21.167 5.16699 -31.5 15.5s-15.5 22.166 -15.5 35.499c0 8.66699 25 30.667 75 66c72 50.667 117 83.334 135 98.001c93.333 77.333 199.666 174 318.999 290
c44 42.667 94 94 150 154c10 0 16.667 -1.83301 20 -5.5s5 -10.5 5 -20.5s-17.333 -32.333 -52 -67c-55.333 -56.667 -87 -89.334 -95 -98.001c-31.333 -30 -78.666 -80.667 -141.999 -152c44 15.333 154.333 78.333 331 189c30 18.667 81.333 53.667 154 105
c55.333 40 86 60 92 60c10.667 0 17.334 -6.33301 20.001 -19z" />
    <glyph glyph-name="L" unicode="L" horiz-adv-x="709" 
d="M994 691c0 -29.333 -42.9971 -80.6699 -128.997 -154.003c-20 -17.333 -71 -53 -153 -107l-197 -145c-22 -16 -48 -37 -78 -63c-36.667 -32 -68.334 -58.667 -95.001 -80c36.667 -31.333 79 -59.666 127 -84.999c46 -25.333 77.667 -38 95 -38
c24.667 0 52.167 7.33301 82.5 22s51.666 22 63.999 22s18.5 -8.66699 18.5 -26c0 -7.33301 -20 -19.666 -60 -36.999s-71.667 -26 -95 -26c-27.333 0 -82.666 22.333 -165.999 67c-18.667 12 -53 33 -103 63c-18.667 -6.66699 -39.334 -16.167 -62.001 -28.5l-67 -37.5
l-49 -27c-25.333 -12 -47.333 -18 -66 -18c-36.667 0 -55 10 -55 30c0 29.333 40.333 56.333 121 81c35.333 10.667 79.666 23.334 132.999 38.001l73 53c39.333 29.333 70 55 92 77c-107.333 -32 -169.333 -48 -186 -48c-8 0 -15 3.66699 -21 11s-9 15 -9 23
c0 8.66699 25.667 17.667 77 27c68 12.667 114.333 23.667 139 33c38 14.667 61.667 24 71 28c20 9.33301 46.667 24 80 44l98 96c42.667 40 82.667 75 120 105l102 82c36.667 28.667 60.667 43 72 43c17.333 0 26 -8.33301 26 -25z" />
    <glyph glyph-name="M" unicode="M" horiz-adv-x="1255" 
d="M1326 224c0 -14.667 -16.165 -29.6689 -48.498 -45.002l-97.5 -46c-84.667 -42.667 -139 -64 -163 -64c-8.66699 0 -17.334 4.83301 -26.001 14.5s-13 18.5 -13 26.5c0 22.667 9.33301 52 28 88c8 14.667 30.333 52 67 112c4 6.66699 23.667 33 59 79
c26 34.667 39 57 39 67c0 9.33301 -4.66699 14 -14 14c-8 0 -38 -11.333 -90 -34c-56.667 -25.333 -101.334 -48.333 -134.001 -69c-38 -24 -75.667 -52.667 -113 -86l-99 -91l-76 -71c-31.333 -28.667 -52.333 -43 -63 -43c-7.33301 0 -14.5 2.33301 -21.5 7
s-10.5 10.334 -10.5 17.001c0 12 17 37 51 75c30 33.333 56.667 59 80 77l107 79c42 31.333 72.333 57.333 91 78c75.333 84 113 147.333 113 190c0 20 -4.66699 30 -14 30c-22 0 -74.667 -33 -158 -99l-258 -217c-57.333 -51.333 -141.333 -121.666 -252 -210.999
c-52 -37.333 -104.333 -65.666 -157 -84.999c-38 -14 -68 -21 -90 -21c-20.667 0 -36.334 11.333 -47.001 34c-8.66699 18 -13 38.667 -13 62c0 42 20 63 60 63c19.333 0 32.333 -3.33301 39 -10c4.66699 -4 8.33398 -13.333 11.001 -28c2 -11.333 3.33301 -21.333 4 -30
c0 -6 -0.5 -11.667 -1.5 -17s-1.5 -8.33301 -1.5 -9c16 0 42 9 78 27c38.667 19.333 78.667 44.333 120 75c14 10.667 93 77.334 237 200.001c66 56.667 167 138.667 303 246c70 55.333 120.333 83 151 83c14 0 25.833 -4.83301 35.5 -14.5s14.5 -21.834 14.5 -36.501
c0 -28.667 -10.333 -64.334 -31 -107.001c-28 -58 -42 -87.333 -42 -88c104 46.667 174.667 70 212 70c11.333 0 21 -4.5 29 -13.5s12 -17.5 12 -25.5c0 -14 -11.667 -39 -35 -75l-71 -108c-60 -92 -90 -142 -90 -150c0 -7.33301 5.33301 -11 16 -11c18.667 0 61 16 127 48
l84 42c21.333 11.333 35 17 41 17c14 0 21 -5.33301 21 -16z" />
    <glyph glyph-name="N" unicode="N" horiz-adv-x="1061" 
d="M1170 569c0 -10.667 -35.668 -46.001 -107.001 -106.001l-240 -207l-154 -151c-2 -2 -20 -22 -54 -60c-21.333 -24.667 -36 -37 -44 -37c-6 0 -11.5 3.5 -16.5 10.5s-7.5 13.833 -7.5 20.5c0 9.33301 19 33.666 57 72.999c66 68 101.667 105 107 111
c0 16.667 2.83301 51.834 8.5 105.501s10.5 91.834 14.5 114.501c-22.667 -14.667 -69.334 -51.334 -140.001 -110.001l-150 -123c-68 -52.667 -142.5 -101.334 -223.5 -146.001s-134.833 -67 -161.5 -67c-13.333 0 -26 4 -38 12c-17.333 10.667 -26 26.667 -26 48
c0 24 7.33301 50.333 22 79c16 31.333 33.333 47 52 47c10 0 15.667 -6.33301 17 -19c0.666992 -9.33301 -5 -24.333 -17 -45c-13.333 -23.333 -20.666 -38.333 -21.999 -45c-1.33301 -5.33301 1 -10.833 7 -16.5s11 -8.5 15 -8.5c20.667 0 75.667 26.667 165 80
c92 54.667 173.667 110 245 166c28.667 22.667 102 84 220 184c71.333 60 112.666 90 123.999 90c12.667 0 18.334 0 17.001 0c4.66699 -0.666992 8 -4.66699 10 -12c0.666992 -3.33301 1 -6.33301 1 -9c0 -11.333 -7.66699 -22.666 -23 -33.999
c-21.333 -15.333 -33 -24.333 -35 -27c-18.667 -77.333 -28 -149.666 -28 -216.999l254 224c74.667 65.333 119.334 98 134.001 98c11.333 0 17 -7.66699 17 -23z" />
    <glyph glyph-name="O" unicode="O" horiz-adv-x="691" 
d="M835 529c1.33301 -50.667 -31.333 -115.667 -98 -195c-69.333 -82.667 -153.333 -154 -252 -214c-113.333 -69.333 -223.666 -108.666 -330.999 -117.999c-86.667 -8 -133.667 29 -141 111c-2 22 13 60.667 45 116c29.333 49.333 60 92.666 92 129.999
c-26 -16 -68.333 -40 -127 -72c-13.333 -6.66699 -38 -22.667 -74 -48c-28.667 -19.333 -48 -29.666 -58 -30.999c-2 0 -4 1.83301 -6 5.5s-3.66699 6.16699 -5 7.5s-2 3 -2 5c0 20 47 56 141 108c80 44 168.333 89.333 265 136c30.667 27.333 73 60 127 98
c60 43.333 97 65.666 111 66.999c9.33301 0.666992 14.666 -5 15.999 -17c0.666992 -4.66699 -3.66602 -11 -12.999 -19c-14 -12.667 -23.667 -22.334 -29 -29.001c47.333 14.667 106 30.334 176 47.001c12 0.666992 23 1 33 1c85.333 0 128.666 -29.667 129.999 -89z
M790.001 514c-4 45.333 -42.001 65 -114.001 59c-62 -5.33301 -126 -25 -192 -59l-180 -102c-86 -83.333 -137.333 -135 -154 -155c-55.333 -65.333 -81 -121.333 -77 -168c2.66699 -28.667 30.334 -43 83.001 -43c10.667 0 22 0.666992 34 2
c75.333 8.66699 163.333 45 264 109c90.667 56.667 170.167 121 238.5 193s100.833 126.667 97.5 164z" />
    <glyph glyph-name="P" unicode="P" horiz-adv-x="556" 
d="M843 641c0 -63.333 -48.335 -140.334 -145.002 -231.001c-28.667 -26.667 -69 -56.667 -121 -90c-48.667 -30.667 -78 -46 -88 -46c-7.33301 0 -11 5.66699 -11 17c0 4 27 25.333 81 64c62 44.667 101.333 75.334 118 92.001c70 70 105 132.333 105 187
c0 24.667 -22.333 40 -67 46c-8 1.33301 -16 2 -24 2c-60 0 -131 -24 -213 -72c-51.333 -30 -98 -65 -140 -105c-44.667 -42.667 -69 -77.334 -73 -104.001c-2 -11.333 4 -20.666 18 -27.999c12 -6 24 -9 36 -9c12.667 0 30.334 6.66699 53.001 20l63 40
c21.333 13.333 53.666 38.666 96.999 75.999c35.333 30 56.333 45 63 45c15.333 0 23 -10.333 23 -31c0 -20 -43 -65 -129 -135l-250 -203c-25.333 -20 -68.666 -59 -129.999 -117c-49.333 -46.667 -76.666 -70 -81.999 -70c-17.333 0 -26 9.33301 -26 28
c0 8.66699 22.333 32.334 67 71.001l124 106l138 121c-82.667 0 -124 28.667 -124 86c0 30 27.667 71.333 83 124c53.333 50.667 112.333 93 177 127c96.667 51.333 179.667 77 249 77c16 0 38.333 -6.33301 67 -19c40.667 -18 61 -41 61 -69z" />
    <glyph glyph-name="Q" unicode="Q" horiz-adv-x="691" 
d="M746 579c4.66699 -57.333 -21.334 -129.331 -78.001 -215.998c-54 -82.667 -122 -158.334 -204 -227.001c-17.333 -14.667 -50 -36.667 -98 -66c8 -11.333 19.333 -24 34 -38c12 -11.333 35.333 -24.666 70 -39.999c27.333 -12.667 40 -21.334 38 -26.001
c-4 -10.667 -12.333 -16 -25 -16c-4.66699 0 -9.33398 0.666992 -14.001 2c-25.333 8.66699 -44 15.667 -56 21c-29.333 13.333 -52.666 28 -69.999 44c-4.66699 6 -11.667 13.667 -21 23c-56 -30 -106.333 -45.333 -151 -46c-102.667 -2 -159.667 29 -171 93
c-6 32.667 11.667 88.667 53 168c40 77.333 87.333 148.333 142 213c36 42 77 83 123 123s76.667 61.333 92 64c10 2 16.333 -3 19 -15c1.33301 -4.66699 -1.66699 -11.334 -9 -20.001c-12.667 -15.333 -20.667 -25.333 -24 -30c44.667 18.667 100.667 39 168 61
c22.667 4 43.667 6 63 6c74.667 0 114.334 -26 119.001 -78zM616.999 612.002c-12.667 0 -26.335 -1.33301 -41.002 -4c-66 -12 -129.667 -36.667 -191 -74c-44 -26.667 -94.333 -65.334 -151 -116.001c-68.667 -87.333 -106.667 -136.333 -114 -147
c-41.333 -61.333 -62 -113 -62 -155c0 -12.667 1.66699 -24.334 5 -35.001c6.66699 -24 30.667 -36 72 -36c16.667 0 34.334 2 53.001 6c24 4.66699 59.333 14.334 106 29.001c-8.66699 22.667 -16 35.334 -22 38.001c-17.333 14 -31.666 21 -42.999 21
c-6 0 -10.667 -2 -14 -6c-17.333 -22.667 -28 -33 -32 -31c-6 2 -10.333 6.33301 -13 13s-3 13.334 -1 20.001c8 22 21 39.667 39 53c4.66699 3.33301 10.334 5 17.001 5c20 0 48 -14 84 -42c11.333 -10.667 23.666 -26.334 36.999 -47.001l68 56
c78 59.333 146 127.5 204 204.5s87 136.833 87 179.5c0 45.333 -29.333 68 -88 68z" />
    <glyph glyph-name="R" unicode="R" horiz-adv-x="587" 
d="M674 102c0 -6.66699 -23.9971 -18.667 -71.9971 -36c-43.333 -15.333 -88 -29 -134 -41c-83.333 -21.333 -174.333 -32 -273 -32c-26 0 -50.333 6.33301 -73 19c-25.333 14 -38 31.333 -38 52s53.333 102 160 244l73 108c-48.667 -9.33301 -81.334 -14 -98.001 -14
c-11.333 0 -22 1.33301 -32 4c-16.667 4 -34 15 -52 33c-21.333 21.333 -34 43.666 -38 66.999c-35.333 -27.333 -90.333 -67.666 -165 -120.999c-117.333 -76.667 -187.333 -115 -210 -115c-10 0 -15 5.33301 -15 16c0 2.66699 26.667 19.334 80 50.001
c64 36.667 110.333 66 139 88c51.333 39.333 111.333 93.333 180 162c58.667 58.667 104 88 136 88c24 0 36 -12 36 -36c0 -14.667 -11.333 -33.667 -34 -57c-20.667 -20.667 -45.667 -40.334 -75 -59.001c7.33301 -22.667 13.666 -37.667 18.999 -45c12 -16 30 -24 54 -24
c36.667 0 80 11.333 130 34s95.333 51 136 85l58 52c24 21.333 40 32 48 32c22 0 33 -6 33 -18s-10.833 -27.5 -32.5 -46.5l-64.5 -55.5c-17.333 -15.333 -39.666 -31 -66.999 -47c-32 -19.333 -55 -34.333 -69 -45c-35.333 -33.333 -80.333 -85.333 -135 -156
c-24.667 -32 -52.334 -72.333 -83.001 -121c-34 -52 -51 -83 -51 -93s4.5 -19 13.5 -27s21.167 -12 36.5 -12c91.333 0 177.666 8.66699 258.999 26c31.333 6.66699 74 19 128 37c48 16.667 72.333 25 73 25c12.667 0 19 -7 19 -21z" />
    <glyph glyph-name="S" unicode="S" horiz-adv-x="696" 
d="M1056 534c4.66699 -29.333 0.666016 -44.001 -12.001 -44.001c-10 0 -19.333 9.33301 -28 28c-12.667 24.667 -20.667 39 -24 43c-37.333 40.667 -88.666 61 -153.999 61c-41.333 0 -94 -29.667 -158 -89l-166 -169l-225 -241
c-84.667 -87.333 -146.334 -131 -185.001 -131c-32 0 -57 12 -75 36c-16.667 21.333 -25 48 -25 80c0 24 5.33301 47.333 16 70s22.334 34 35.001 34c18 0 27 -9.66699 27 -29c0 -8 -2.66699 -18.833 -8 -32.5s-8 -24.5 -8 -32.5c0 -13.333 3 -26.666 9 -39.999
c8 -16.667 17.667 -25 29 -25c28 0 82 40 162 120c14.667 14.667 82.667 87.334 204 218.001c172 184.667 294.667 277 368 277c50 0 96.667 -12 140 -36c46 -26.667 72 -59.334 78 -98.001z" />
    <glyph glyph-name="T" unicode="T" 
d="M1136 716c0 -12.667 -10.5 -30.833 -31.5 -54.5s-43.833 -42.167 -68.5 -55.5c-30.667 -16.667 -72.334 -27 -125.001 -31c-21.333 -1.33301 -73 -2.33301 -155 -3c-28.667 0 -65.667 2.66699 -111 8s-76.666 8 -93.999 8c-70 0 -137.833 -13.833 -203.5 -41.5
s-105.5 -59.834 -119.5 -96.501c-4.66699 -21.333 -9.66699 -42.666 -15 -63.999c-6.66699 -27.333 -14 -41 -22 -41c-15.333 0 -23 10.667 -23 32c0 82.667 38 148 114 196c66 42 146.667 63 242 63c29.333 0 68.833 -3.5 118.5 -10.5s90.167 -10.833 121.5 -11.5
c106 -1.33301 173.333 2 202 10c12.667 8 36 27.333 70 58c36.667 33.333 57 50 61 50c8 0 16.5 -1.83301 25.5 -5.5s13.5 -7.16699 13.5 -10.5zM590 450.001c0 -18 -93.333 -114.334 -280 -289.001c-64.667 -60.667 -112 -102 -142 -124
c-52.667 -38.667 -97.667 -58 -135 -58c-5.33301 0 -13 5.66699 -23 17s-15 21.333 -15 30c0 12.667 6.33301 31.667 19 57c14.667 30 29.334 45 44.001 45c13.333 0 20 -4.66699 20 -14c0 -3.33301 -5.66699 -13 -17 -29s-17 -27 -17 -33c0 -9.33301 4.66699 -14 14 -14
c25.333 0 60.666 18 105.999 54c26 20.667 64.667 56.334 116 107.001l144 133c89.333 84.667 139 127 149 127c11.333 0 17 -3 17 -9z" />
    <glyph glyph-name="U" unicode="U" horiz-adv-x="849" 
d="M972 165c0 -6.66699 -24.6631 -21.334 -73.9961 -44.001l-135 -61l-200 -93c-70 -28.667 -132.333 -43 -187 -43c-12.667 0 -25.834 6.83301 -39.501 20.5s-20.5 26.167 -20.5 37.5c0 8 6 27.333 18 58c14 36 28 64.333 42 85c-44.667 -34 -96 -65.667 -154 -95
c-64.667 -32 -113.334 -48 -146.001 -48c-16.667 0 -31.334 4.33301 -44.001 13c-16.667 10.667 -25 26.667 -25 48c0 18.667 24.333 55.5 73 110.5l147 164.5l-151 -75c-6 -2.66699 -34.667 -16.667 -86 -42c-30 -15.333 -51 -23 -63 -23
c-4.66699 0 -9.16699 2.83301 -13.5 8.5s-6.5 10.834 -6.5 15.501c0 5.33301 20.333 18 61 38l108 52c52.667 28 125.334 64.667 218.001 110c68 49.333 132 102.666 192 159.999c97.333 93.333 152.666 140 165.999 140c12.667 0 19 -6 19 -18
c0 -13.333 -15 -34.666 -45 -63.999l-110 -100l-164 -156l-185 -187c-68 -71.333 -102 -116 -102 -134c0 -5.33301 1.33301 -8.33301 4 -9s11.667 -1 27 -1c45.333 0 115 30.333 209 91c88.667 57.333 177.667 127.333 267 210c47.333 43.333 108.666 105.333 183.999 186
c22.667 24 48.834 48.333 78.501 73s47.5 37 53.5 37c5.33301 0 10.166 -2.5 14.499 -7.5s6.5 -10.5 6.5 -16.5c0 -10.667 -14.333 -29 -43 -55c-50.667 -46 -76.667 -69.667 -78 -71l-168 -172c-162.667 -166 -244 -270 -244 -312c0 -16.667 7.33301 -25 22 -25
c34 0 84 12.333 150 37l186 76c23.333 9.33301 67.333 29.333 132 60c48 22.667 76 34 84 34c14.667 0 22 -4.33301 22 -13z" />
    <glyph glyph-name="V" unicode="V" horiz-adv-x="529" 
d="M517 349c-79.333 -80.667 -170.004 -160.668 -272.004 -240.001s-164 -117.666 -186 -114.999c-38.667 4 -57.667 24.333 -57 61c0.666992 21.333 21.334 62.666 62.001 123.999c21.333 32.667 69.333 100.667 144 204c15.333 21.333 54.666 71 117.999 149
c51.333 64 78.333 100.333 81 109c4 8.66699 0.666992 13 -10 13c-6.66699 0 -30.167 -11.333 -70.5 -34s-74.5 -43.667 -102.5 -63c-22.667 -15.333 -56.667 -46.333 -102 -93c-38 -38.667 -60.333 -57.667 -67 -57c-10 1.33301 -15 6.33301 -15 15
c0.666992 16 20 42.667 58 80c34.667 34 73.334 65.667 116.001 95s86 55.666 130 78.999c49.333 26 81.666 38.667 96.999 38c22.667 -1.33301 32.334 -16 29.001 -44c-2.66699 -24 -27.667 -66.667 -75 -128l-135 -168
c-71.333 -91.333 -128.666 -174.666 -171.999 -249.999c-15.333 -27.333 -23.666 -46.333 -24.999 -57c-0.666992 -4.66699 0.333008 -8 3 -10s6 -2.66699 10 -2c6.66699 0.666992 18.334 7 35.001 19l134 96c80 60 144.667 113.333 194 160
c46.667 44.667 93 94.667 139 150l128 158c14.667 17.333 23.667 26 27 26c14 0 21 -7 21 -21c0 -19.333 -35 -69.666 -105 -150.999z" />
    <glyph glyph-name="W" unicode="W" horiz-adv-x="672" 
d="M957 540c-3.33301 -14 -52 -73.332 -146 -177.999c-52.667 -59.333 -100 -107.666 -142 -144.999c-168.667 -152 -276 -227 -322 -225c-22 0.666992 -40 9.33398 -54 26.001c-11.333 14 -17 29.333 -17 46c0 33.333 31.333 93.333 94 180
c-27.333 -24.667 -79 -68.667 -155 -132c-54 -44 -84.667 -68.667 -92 -74c-36.667 -26.667 -64.334 -40 -83.001 -40c-11.333 0 -20.666 4.66699 -27.999 14c-9.33301 10.667 -13.666 25 -12.999 43c0.666992 40 69.667 153.667 207 341c9.33301 12.667 46 58.667 110 138
c46 57.333 69.667 91 71 101c1.33301 9.33301 -1.33398 14.333 -8.00098 15c-23.333 3.33301 -77.333 -24.667 -162 -84c-26 -18 -59.667 -49.667 -101 -95c-35.333 -38 -54.333 -56.667 -57 -56c-8 2 -11.333 9.66699 -10 23c1.33301 15.333 17 39.666 47 72.999
s62 62.666 96 87.999c37.333 28 76.5 51.5 117.5 70.5s74.167 28.5 99.5 28.5c24 0 36 -12.333 36 -37c0 -6 -0.666992 -11.667 -2 -17c-4 -14.667 -25.667 -49 -65 -103c-86 -115.333 -131.333 -176.333 -136 -183l-162 -229c-14.667 -26 -23 -43 -25 -51
c-0.666992 -4 -0.333984 -8 0.999023 -12s3.33301 -6 6 -6c8.66699 0.666992 17 4.5 25 11.5l23 19.5l132 109l179 141l108 117c48.667 53.333 80.334 80 95.001 80c14 0 21 -8 21 -24c0 -2.66699 -0.333008 -4.66699 -1 -6c-10.667 -24.667 -31.334 -52 -62.001 -82
l-73 -72c-35.333 -40.667 -71.666 -88.667 -108.999 -144c-48 -70.667 -72.667 -118.667 -74 -144c-0.666992 -2.66699 1.83301 -7.5 7.5 -14.5s9.5 -10.5 11.5 -10.5c44 1.33301 145.667 74 305 218c20.667 18.667 64 63.667 130 135c18 19.333 50.667 56.666 98 111.999
c35.333 40.667 54 61 56 61c6 -0.666992 11.667 -4 17 -10s7.33301 -11.667 6 -17z" />
    <glyph glyph-name="X" unicode="X" horiz-adv-x="809" 
d="M905 683c-1.33301 -8 -25.3291 -37.001 -71.9961 -87.001l-129 -137c-76.667 -82.667 -148.667 -157 -216 -223l65 -107c33.333 -49.333 59.333 -74 78 -74c25.333 0 73.666 17.333 144.999 52c65.333 32 101.666 48 108.999 48c12 0 16.667 -5.66699 14 -17
c-4.66699 -19.333 -45.334 -45.666 -122.001 -78.999l-82 -37c-34.667 -14 -59 -21 -73 -21c-21.333 0 -52.333 28 -93 84c-30 41.333 -54.333 80.333 -73 117c-174 -146.667 -298 -220 -372 -220c-31.333 0 -55.333 13.667 -72 41c-13.333 22 -20.333 50.667 -21 86
c-0.666992 20 1.33301 40.333 6 61c6 26 18 39 36 39c4 0 6 -4 6 -12c0 -4.66699 -1.5 -17.334 -4.5 -38.001s-4.16699 -36 -3.5 -46c1.33301 -20 8 -37.333 20 -52c13.333 -17.333 31.333 -26 54 -26c36.667 0 91.667 24.667 165 74c20.667 14 74.334 59 161.001 135
c-2.66699 8 -12.834 29.333 -30.501 64s-29.5 62.334 -35.5 83.001c-21.333 70 -30.666 111.333 -27.999 124c4.66699 24 13.667 36 27 36c4 0 10 -16.333 18 -49c11.333 -45.333 19.666 -75.666 24.999 -90.999c26.667 -74 47 -119.333 61 -136
c53.333 49.333 123.333 118.666 210 207.999c8.66699 8.66699 50.667 55.667 126 141c46 52 74.333 78 85 78c13.333 0 18.666 -6.33301 15.999 -19z" />
    <glyph glyph-name="Y" unicode="Y" horiz-adv-x="382" 
d="M663 621c0 -10 -28.6689 -44.0039 -86.002 -102.004c-76 -77.333 -121.667 -125 -137 -143c-58.667 -69.333 -104 -131.666 -136 -186.999l-56 -107l107 51l69.5 32c23.667 10.667 40.167 16 49.5 16c20 0 30 -5.33301 30 -16c0 -8.66699 -10.333 -17.334 -31 -26.001
c-67.333 -27.333 -126 -52.666 -176 -75.999l-50 -24c-13.333 -8 -45.333 -29 -96 -63l-152 -208c-76 -102 -147.667 -186 -215 -252c-105.333 -103.333 -165 -161.333 -179 -174c-66.667 -60 -113 -90 -139 -90c-13.333 0 -25 4.83301 -35 14.5s-15 20.834 -15 33.501
c0 21.333 24.667 62.333 74 123c41.333 51.333 91 106 149 164c53.333 53.333 113 108.333 179 165l195 164c29.333 23.333 80.333 66.333 153 129c57.333 74 108.333 161 153 261c-69.333 -49.333 -125.333 -74 -168 -74c-9.33301 0 -19 4.16699 -29 12.5
s-15 16.833 -15 25.5c0 15.333 11 39 33 71l75 101c58 78.667 87 129.667 87 153c0 14.667 0.333008 20.334 1 17.001c-1.33301 6 -5.66602 9 -12.999 9c-17.333 0 -53 -13.333 -107 -40c-59.333 -29.333 -116 -63 -170 -101c-45.333 -32 -104.666 -83.667 -177.999 -155
c-62.667 -62 -95.667 -93 -99 -93c-12 0 -18 8.66699 -18 26c0 6.66699 31.667 40.334 95 101.001c66.667 64 124.834 115.167 174.501 153.5s107.834 72.5 174.501 102.5c62.667 28.667 107.667 43 135 43c38.667 0 58 -17.667 58 -53c0 -38.667 -31 -95.334 -93 -170.001
c-22.667 -27.333 -46.334 -59 -71.001 -95c-22 -31.333 -33 -48.666 -33 -51.999c0 -12 6.66699 -18 20 -18c17.333 0 55.333 22.667 114 68c51.333 40.667 105.666 88 162.999 142c119.333 113.333 181.333 170 186 170c14.667 0 22 -9.66699 22 -29zM35.998 -114.004
c-39.333 -28.667 -95.667 -75 -169 -139c-78.667 -68.667 -143.667 -128.667 -195 -180c-156 -155.333 -228.333 -244.333 -217 -267c2.66699 -6 9.66699 -9 21 -9c16.667 0 50.667 24 102 72l167 162c100.667 98 197.667 218.333 291 361z" />
    <glyph glyph-name="Z" unicode="Z" 
d="M777 643c0 -65.333 -87.666 -163.669 -262.999 -295.002c17.333 -26.667 26 -52.667 26 -78s-19.667 -59.666 -59 -102.999c-42.667 -47.333 -92.667 -86.666 -150 -117.999c-68.667 -38 -135 -57 -199 -57c-39.333 0 -72 13 -98 39c-21.333 21.333 -32 42 -32 62
c0 10 3.33301 16.333 10 19c4 1.33301 13.333 2 28 2c2.66699 0 7 -7 13 -21c7.33301 -17.333 16 -30.666 26 -39.999c15.333 -14 36 -21 62 -21c64.667 0 136.167 28 214.5 84s117.5 107.333 117.5 154c0 18.667 -6.66699 31.667 -20 39c-2.66699 1.33301 -15 5 -37 11
c-13.333 3.33301 -20 9.66602 -20 18.999c0 7.33301 8.33301 15 25 23c37.333 18.667 59.333 30 66 34c34 19.333 66.333 44 97 74l86 79c36 38 54 69.333 54 94c0 14 -9.66699 24.333 -29 31c-14 5.33301 -29.333 8 -46 8c-38 0 -119.333 -41 -244 -123
c-36.667 -24 -85 -64.667 -145 -122c-49.333 -46.667 -78 -70 -86 -70c-9.33301 0 -14 4.33301 -14 13c0 9.33301 25.333 38.333 76 87c53.333 50.667 103.666 92 150.999 124c129.333 88.667 219.333 133 270 133c34.667 0 62.667 -6.66699 84 -20
c24 -14.667 36 -35 36 -61z" />
    <glyph glyph-name="backslash" unicode="\" horiz-adv-x="429" 
d="M403 -20c-3.33301 -14 -17 -18 -41 -12c-4.66699 1.33301 -24 35.333 -58 102c-48.667 95.333 -80.334 156.333 -95.001 183l-120 214c-60 108.667 -89 166.667 -87 174c2.66699 12 10.334 16.333 23.001 13c7.33301 -2 43 -59.333 107 -172l128 -224
c36 -57.333 68.667 -114 98 -170c32.667 -62 47.667 -98 45 -108z" />
    <glyph glyph-name="underscore" unicode="_" horiz-adv-x="576" 
d="M556 -71c3.33301 -3.33301 4.99902 -7.33203 4.99902 -11.999c0 -8.66699 -5 -18.334 -15 -29.001c-2 -2 -12 -3 -30 -3c-18.667 0 -62.667 1.66699 -132 5c-73.333 4 -127 6.33301 -161 7c-19.333 0 -48.333 -0.833008 -87 -2.5s-64 -2.5 -76 -2.5
c-24 0 -37.833 1.83301 -41.5 5.5s-5.5 8.16699 -5.5 13.5s1.66699 9.66602 5 12.999c8.66699 8.66699 84.334 15.334 227.001 20.001c67.333 2 132.333 2 195 0c70 -2.66699 108.667 -7.66699 116 -15z" />
    <glyph glyph-name="grave" unicode="`" horiz-adv-x="429" 
d="M262 466c0 -7.33301 -2.83203 -14.1689 -8.49902 -20.502s-11.834 -9.5 -18.501 -9.5c-6 0 -13.333 7.66699 -22 23l-25 45l-34.5 56.5c-11.667 19 -17.5 31.833 -17.5 38.5c0 6 3 10.833 9 14.5s11.667 4.83398 17 3.50098c10.667 -2.66699 22.667 -15 36 -37l35 -62
c19.333 -31.333 29 -48.666 29 -51.999z" />
    <glyph glyph-name="a" unicode="a" horiz-adv-x="518" 
d="M618 120c0 -10.667 -40.998 -34 -122.998 -70c-58.667 -26 -115.334 -39 -170.001 -39c-16.667 0 -29.667 6.33301 -39 19l-18 34c-70 -48.667 -135.333 -73 -196 -73c-22 0 -39.333 5.66699 -52 17s-19 25.333 -19 42c0 37.333 24.667 71.666 74 102.999
c54.667 34 123 51 205 51c31.333 0 55 -10.667 71 -32c12 8 25.333 12 40 12c10.667 0 16 -9.66699 16 -29c0 -4.66699 -12 -16.167 -36 -34.5s-36 -33.166 -36 -44.499c0 -17.333 5.33301 -26 16 -26c45.333 0 89 10 131 30c71.333 34 111.666 51 120.999 51
c10 0 15 -3.66699 15 -11zM280.002 145c1.33301 6.66699 -6.00098 10 -22.001 10c-32 0 -71.667 -10.333 -119 -31c-54 -24 -81 -48.667 -81 -74c0 -10 4.66699 -15.667 14 -17c24 -4 61.667 5.33301 113 28c56.667 25.333 88.334 53.333 95.001 84z" />
    <glyph glyph-name="b" unicode="b" horiz-adv-x="496" 
d="M910 666c0 -13.333 -22.002 -40.999 -66.002 -82.999c-50 -47.333 -109 -93.666 -177 -138.999c-44 -29.333 -111 -64 -201 -104c-126.667 -56 -195.5 -88 -206.5 -96l-50.5 -36c-28 -22 -52 -43.667 -72 -65c-58.667 -63.333 -88 -102.333 -88 -117
c0 -10 4.66699 -15 14 -15c16.667 0 43 10.333 79 31l95 58c9.33301 11.333 26 26.666 50 45.999c38 31.333 65.667 47 83 47c13.333 0 20 -7 20 -21c0 -26 -25.667 -56.667 -77 -92c13.333 -10.667 32.333 -16 57 -16c32 0 66.333 4.66699 103 14s59 14 67 14s12 -7 12 -21
c0 -4.66699 -26.667 -13.667 -80 -27c-55.333 -13.333 -96.666 -20 -123.999 -20c-25.333 0 -58.333 11.667 -99 35l-99 -54c-39.333 -19.333 -73.666 -29 -102.999 -29c-15.333 0 -29 6 -41 18c-9.33301 9.33301 -14 17.666 -14 24.999c0 22 11.333 47.333 34 76
c4.66699 5.33301 28.667 31.333 72 78c20.667 22 44.667 43 72 63c50 36.667 76 56 78 58l132 111c72 60 135.333 108 190 144l169 111c62 37.333 104.333 56 127 56c11.333 0 21.5 -5.16699 30.5 -15.5s13.5 -21.833 13.5 -34.5zM863.998 666.001
c0 5.33301 -2.00098 8.00195 -6.00098 8.00195c-27.333 0 -115.666 -53.333 -264.999 -160c-32.667 -23.333 -97.334 -76 -194.001 -158c56 21.333 95 37 117 47c46.667 20.667 89.334 43.667 128.001 69c48 31.333 96.667 68.666 146 111.999s74 70.666 74 81.999z" />
    <glyph glyph-name="c" unicode="c" horiz-adv-x="390" 
d="M470 123c0 -10.667 -62.668 -36.666 -188.001 -77.999c-108.667 -36 -181.667 -54 -219 -54c-44 0 -66 19.333 -66 58c0 35.333 42.333 81 127 137c54 36 92 54 114 54c11.333 0 21 -3.5 29 -10.5s12 -15.833 12 -26.5c0 -4 -4 -12 -12 -24c-10 -14 -19 -22.333 -27 -25
c-8.66699 -2.66699 -20 6.66602 -34 27.999c-16.667 -8 -40.334 -21.333 -71.001 -40c-58 -44 -87 -75 -87 -93c0 -4 2.5 -7.83301 7.5 -11.5s9.83301 -5.5 14.5 -5.5c26.667 0 94.334 17.333 203.001 52c112.667 36 169.334 54 170.001 54c18 0 27 -5 27 -15z" />
    <glyph glyph-name="d" unicode="d" horiz-adv-x="298" 
d="M427 412c0 -52 -18.998 -110.666 -56.998 -175.999s-85 -120 -141 -164c-62 -48 -122.333 -72 -181 -72c-15.333 0 -27.666 6 -36.999 18s-14 25.667 -14 41s11.667 34.333 35 57c21.333 21.333 47 40.333 77 57c37.333 20.667 68.666 31 93.999 31
c13.333 0 20 -6.33301 20 -19c0 -15.333 -13 -26 -39 -32c-37.333 -9.33301 -57.666 -15 -60.999 -17c-43.333 -26 -65 -49.333 -65 -70c0 -10 8.33301 -15 25 -15c54 0 116.667 40.833 188 122.5s107 155.167 107 220.5c0 51.333 -5.66699 94.666 -17 129.999
c-10.667 32 -29.334 67.667 -56.001 107c-28.667 42 -43.334 63.667 -44.001 65c-15.333 17.333 -34 26 -56 26c-16 0 -30.5 -15.167 -43.5 -45.5s-22.167 -45.5 -27.5 -45.5c-16.667 0 -25 6.66699 -25 20c0 14 8.66699 36 26 66c21.333 36.667 44.666 55 69.999 55
c26.667 0 52 -11 76 -33c11.333 -11.333 31.333 -36.666 60 -75.999c57.333 -78.667 86 -162.334 86 -251.001z" />
    <glyph glyph-name="e" unicode="e" horiz-adv-x="289" 
d="M338 76c0 -8.66699 -27.332 -23.667 -81.999 -45c-60 -24 -110 -36 -150 -36c-32.667 0 -59 6 -79 18s-30 26.333 -30 43c0 33.333 27.667 74 83 122c30 26 63.667 51 101 75c34.667 22 56 33 64 33c21.333 0 32 -8.66699 32 -26c0 -25.333 -29 -58.333 -87 -99
c-45.333 -32 -82 -55 -110 -69c-19.333 -13.333 -29 -25.333 -29 -36c0 -17.333 21.333 -26 64 -26c29.333 0 70.166 10.333 122.499 31s79.833 31 82.5 31c12 0 18 -5.33301 18 -16z" />
    <glyph glyph-name="f" unicode="f" horiz-adv-x="420" 
d="M528 414c0 -11.333 -12.3311 -28.002 -36.998 -50.002c-40 -36.667 -62 -57 -66 -61c-44.667 -48.667 -98.334 -99.334 -161.001 -152.001c120 24 191.333 36 214 36c26 0 39 -5.33301 39 -16c0 -8.66699 -15 -16.667 -45 -24l-78 -16c-22 -3.33301 -44 -7 -66 -11
c-31.333 -5.33301 -57.666 -12.666 -78.999 -21.999c-8.66699 -3.33301 -23 -10.666 -43 -21.999l-79 -99c-47.333 -58 -88.666 -105 -123.999 -141l-117 -123c-43.333 -43.333 -75 -65 -95 -65c-14.667 0 -22 6.66699 -22 20c0 26.667 51 96.667 153 210
c27.333 30.667 61.666 63 102.999 97c56 46 89 73.667 99 83c15.333 16 42.666 47 81.999 93c-110 -50 -177.667 -75 -203 -75c-15.333 0 -23 10 -23 30c0 2.66699 14.667 9 44 19c41.333 13.333 74.666 26 99.999 38c22.667 10.667 61 33.334 115 68.001
c35.333 22.667 89.333 65.667 162 129c59.333 51.333 94 77 104 77c15.333 0 23 -7.66699 23 -23z" />
    <glyph glyph-name="g" unicode="g" horiz-adv-x="328" 
d="M343 208c0 -18 -28.333 -59.665 -85 -124.998l-74 -90c12.667 -9.33301 19 -17.666 19 -24.999c0 -2.66699 -1 -5.66699 -3 -9c-10 -16.667 -38 -37.667 -84 -63c-85.333 -102.667 -157.333 -178.667 -216 -228c-53.333 -44.667 -116.166 -84.334 -188.499 -119.001
s-126.833 -52 -163.5 -52c-35.333 0 -53 9 -53 27c0 27.333 37.667 69.666 113 126.999c62.667 48 136 95.333 220 142c88 48.667 159 86 213 112c32 21.333 65 57 99 107c-36 0 -65.333 5.33301 -88 16c-28.667 13.333 -45.667 31.666 -51 54.999
c-8.66699 39.333 66.666 87 225.999 143c26.667 9.33301 52.667 14 78 14s38 -10.667 38 -32zM268 174.002c0 5.33301 -3.33301 8.00098 -10 8.00098c-22.667 0 -58 -12 -106 -36c-61.333 -30.667 -92 -51.667 -92 -63c0 -10.667 7.33301 -18.334 22 -23.001
c30.667 -10 58.667 -10 84 0c68 59.333 102 97.333 102 114zM8 -161.997c-38 -11.333 -101 -43.9971 -189 -97.9971c-38.667 -23.333 -87 -56 -145 -98c-64.667 -46.667 -97 -73.334 -97 -80.001c0 -8.66699 4 -13 12 -13c17.333 0 51 13.167 101 39.5s97 55.166 141 86.499
c52.667 37.333 111.667 91.666 177 162.999z" />
    <glyph glyph-name="h" unicode="h" horiz-adv-x="506" 
d="M653 538c0 -28 -66.332 -85.667 -198.999 -173l-113 -75c-47.333 -32.667 -78 -57 -92 -73c47.333 16.667 84 25 110 25c11.333 0 21.833 -5.16699 31.5 -15.5s14.5 -21.166 14.5 -32.499c0 -12 -16.333 -36.833 -49 -74.5s-49 -59.167 -49 -64.5
c0 -16.667 17.333 -25 52 -25c20.667 0 58 8.33301 112 25c9.33301 2.66699 23 8.66699 41 18c16 8 24.333 12 25 12c13.333 0 20 -6.66699 20 -20c0 -4 -8.16699 -9.33301 -24.5 -16l-48.5 -19c-52.667 -23.333 -98 -35 -136 -35c-64.667 0 -97 17.333 -97 52
c0 16 14.5 40.833 43.5 74.5s43.5 53.5 43.5 59.5c0 4.66699 -2.83301 9 -8.5 13s-11.167 6 -16.5 6c-16.667 0 -43 -9 -79 -27l-88 -55l-95 -92c-30 -27.333 -54.333 -41 -73 -41c-8.66699 0 -13 3.33301 -13 10c0 14.667 13 36.667 39 66
c11.333 13.333 37.666 41 78.999 83l131 135c46 45.333 106 97.666 180 156.999c106 84.667 178.667 127 218 127c10 0 19.333 -2.66699 28 -8s13 -11 13 -17z" />
    <glyph glyph-name="i" unicode="i" horiz-adv-x="278" 
d="M292 303c-20.667 0 -31 10.333 -31 31s10.333 31 31 31c8.66699 0 16.167 -3.16699 22.5 -9.5s9.5 -13.833 9.5 -22.5c0 -20 -10.667 -30 -32 -30zM315 66c0 -10 -30.001 -24.334 -90.001 -43.001c-64.667 -21.333 -122.667 -32 -174 -32
c-17.333 0 -32.5 5.66699 -45.5 17s-19.5 25.333 -19.5 42c0 15.333 26.667 46.333 80 93c52 44.667 87.333 69 106 73c8.66699 2 13 -4.33301 13 -19c0 -6 -23.667 -29.167 -71 -69.5s-71 -66.166 -71 -77.499c0 -12 12.333 -18 37 -18c30.667 0 72.334 8.66699 125.001 26
s80 26 82 26c18.667 0 28 -6 28 -18z" />
    <glyph glyph-name="j" unicode="j" horiz-adv-x="441" 
d="M546 392c2.66699 -8.66699 1.16602 -17.6689 -4.50098 -27.002s-13.167 -14.333 -22.5 -15c-10 -1.33301 -18.667 1.83398 -26 9.50098s-10.666 16.5 -9.99902 26.5c0.666992 8.66699 4 16.334 10 23.001s13.333 10 22 10c16 0 26.333 -9 31 -27zM506.999 115.998
c0 -8.66699 -10.668 -18.0029 -32.001 -28.0029c-34.667 -14.667 -55 -24 -61 -28c-34 -21.333 -87.667 -46.666 -161 -75.999l-111 -99c-46.667 -40 -91.667 -74 -135 -102c-40 -25.333 -86.833 -48.333 -140.5 -69s-92.834 -31 -117.501 -31
c-17.333 0 -30.666 5 -39.999 15c-8.66699 8 -12.334 17.667 -11.001 29c2.66699 26.667 30.334 56 83.001 88c10.667 6.66699 56 30.667 136 72c79.333 36 185.333 88 318 156l95 113l-3 3l-175 -95c-79.333 -44 -127.666 -66 -144.999 -66c-8.66699 0 -13 3.33301 -13 10
c0 12.667 23 31 69 55l127 65l132 78c47.333 27.333 76 41 86 41c12.667 0 19 -6.66699 19 -20s-19.667 -43.666 -59 -90.999l-82 -92c32.667 10.667 68.667 27.334 108 50.001c48 27.333 82.667 41 104 41c6 0 9 -6.33301 9 -19zM177.998 -29.0049l-246.002 -124
c-116.667 -58.667 -175 -94 -175 -106c0 -10 5.66699 -14.667 17 -14c12 0.666992 43.5 11.834 94.5 33.501s85.833 38.5 104.5 50.5c24.667 16 59.334 41 104.001 75c48.667 37.333 82.334 65.666 101.001 84.999z" />
    <glyph glyph-name="k" unicode="k" horiz-adv-x="511" 
d="M581 79c0 -5.33301 -41.665 -23.998 -124.998 -55.998c-80.667 -30.667 -144.334 -46 -191.001 -46c-27.333 0 -48 13.333 -62 40c-10.667 20.667 -16 46 -16 76l-83 -44l-55 -32c-22 -10.667 -40.667 -16 -56 -16c-8.66699 0 -13 10 -13 30c0 4.66699 8.66699 15 26 31
l47 43c104.667 102.667 161 154 169 154c5.33301 0 10.166 -2.33301 14.499 -7s6.5 -9.33398 6.5 -14.001c0 -12.667 -34.667 -51 -104 -115l69 25c41.333 27.333 111 70.666 209 129.999l83 50c30 17.333 50 26 60 26c11.333 0 17 -4 17 -12
c0 -6.66699 -17.667 -20 -53 -40c-60.667 -36 -93 -55.333 -97 -58c-77.333 -50 -138.666 -92.667 -183.999 -128c0 -7.33301 -1.33301 -15 -4 -23s-4 -16 -4 -24c0 -14.667 4.66699 -28 14 -40s18.666 -18 27.999 -18c30 0 86.667 14 170 42
c79.333 26.667 118.333 40 117 40c11.333 0 17 -4.66699 17 -14z" />
    <glyph glyph-name="l" unicode="l" horiz-adv-x="355" 
d="M480 368c0 -23.333 -19.334 -44.334 -58.001 -63.001l-115 -54c-30 -12.667 -72.667 -35.334 -128 -68.001c-71.333 -54 -107 -94 -107 -120c0 -14.667 8.33301 -22 25 -22c23.333 0 80.666 15.333 171.999 46c13.333 4.66699 37 14.667 71 30c26.667 12 43.667 18 51 18
c6.66699 0 10 -4 10 -12c0 -10.667 -13.333 -22.667 -40 -36l-76 -33c-37.333 -17.333 -81.666 -31.666 -132.999 -42.999c-42 -9.33301 -74.667 -14 -98 -14c-15.333 0 -28.166 5.33301 -38.499 16s-15.5 24 -15.5 40c0 16.667 34 55.667 102 117
c56 50.667 99 86.334 129 107.001c105.333 72.667 181.333 109 228 109c14 0 21 -6 21 -18z" />
    <glyph glyph-name="m" unicode="m" horiz-adv-x="808" 
d="M885 89c0 -5.33301 -11.168 -14.3359 -33.501 -27.0029s-45.5 -23 -69.5 -31c-80.667 -27.333 -144 -41 -190 -41c-16 0 -29.667 4.16699 -41 12.5s-17 19.5 -17 33.5c0 7.33301 10 22.333 30 45l51 55c-44 -6.66699 -95.333 -24 -154 -52
c-91.333 -43.333 -141 -65 -149 -65c-11.333 0 -17 8.33301 -17 25c0 2 14.833 16.5 44.5 43.5s44.5 45.167 44.5 54.5c0 7.33301 -3 11 -9 11c-9.33301 0 -36.666 -8 -81.999 -24c-50 -17.333 -98 -36.333 -144 -57c-6.66699 -2.66699 -38 -18.667 -94 -48
c-37.333 -19.333 -61 -29 -71 -29c-12.667 0 -19 8 -19 24c0 14 38.333 50.667 115 110s125.334 89 146.001 89c10 0 15 -4.33301 15 -13c0 -4.66699 -14 -18 -42 -40c-32.667 -25.333 -52.334 -42.333 -59.001 -51c0.666992 0 29.334 9.33301 86.001 28
c10.667 3.33301 44.667 16 102 38c38 14 62.333 21 73 21c17.333 0 31.166 -4.66699 41.499 -14s14.5 -20.666 12.5 -33.999c-2.66699 -20 -7.66699 -35.333 -15 -46c27.333 12.667 72 31 134 55c64 20.667 106.667 31 128 31c14 0 21 -7.66699 21 -23
c0 -6 -12 -17.667 -36 -35c-30.667 -21.333 -50.667 -36.666 -60 -45.999l-28 -28c-9.33301 -9.33301 -14 -17.666 -14 -24.999c0 -8.66699 10 -13 30 -13c30 0 78.333 10.333 145 31c16.667 5.33301 40 14.333 70 27c26 11.333 40 17 42 17c8.66699 0 13 -3 13 -9z" />
    <glyph glyph-name="n" unicode="n" horiz-adv-x="540" 
d="M595 89c0 -5.33301 -11.167 -14.335 -33.5 -27.002s-45.5 -23 -69.5 -31c-80.667 -27.333 -144 -41 -190 -41c-16 0 -29.667 4.16699 -41 12.5s-17 19.5 -17 33.5c0 7.33301 10 22.333 30 45l51 55c-44 -6.66699 -95.333 -24 -154 -52c-91.333 -43.333 -141 -65 -149 -65
c-15.333 0 -23 8.33301 -23 25c0 9.33301 13.5 26 40.5 50s40.5 40 40.5 48c0 18.667 1.5 33.334 4.5 44.001s14.5 16 34.5 16c10 0 17.667 -5.16699 23 -15.5s7 -22.166 5 -35.499c-2 -14 -7.66699 -28 -17 -42c27.333 12 72 29.667 134 53c64 20.667 113.333 31 148 31
c14 0 21 -7.66699 21 -23c0 -6 -11 -16 -33 -30c-28.667 -18 -47.667 -32 -57 -42c-32 -34 -48 -54.667 -48 -62c0 -8.66699 10 -13 30 -13c30 0 78.333 10.333 145 31c16.667 5.33301 40 14.333 70 27c26 11.333 40 17 42 17c8.66699 0 13 -3 13 -9z" />
    <glyph glyph-name="o" unicode="o" horiz-adv-x="376" 
d="M488 153c0 -10.667 -16.1699 -19.832 -48.5029 -27.499s-66.166 -11.5 -101.499 -11.5c-23.333 0 -47 5 -71 15c-50 -50 -84 -81.667 -102 -95c-39.333 -30 -78.333 -45 -117 -45c-12.667 0 -24 6 -34 18c-8.66699 10 -13 19.667 -13 29c0 22 10.333 49.167 31 81.5
s47.667 62.833 81 91.5c26.667 22.667 59.334 41.667 98.001 57c30.667 12 53.334 18 68.001 18c8.66699 0 18.334 -5 29.001 -15s16 -22 16 -36s-8.33301 -37.667 -25 -71c9.33301 -4.66699 25.666 -9.33398 48.999 -14.001c18 0 42 2.16699 72 6.5s47 6.5 51 6.5
c11.333 0 17 -2.66699 17 -8zM214.997 140.002c2.66699 9.33301 2.66699 20.333 0 33c-3.33301 16 -8.66602 26.333 -15.999 31c-31.333 -13.333 -57.333 -30.333 -78 -51c-47.333 -48 -71 -83.667 -71 -107c0 -10.667 3.66699 -16 11 -16
c31.333 0 82.666 36.667 153.999 110z" />
    <glyph glyph-name="p" unicode="p" horiz-adv-x="630" 
d="M702 119c0 -8 -14.0029 -15.332 -42.0029 -21.999c-25.333 -6.66699 -51 -13 -77 -19c-81.333 -26 -156.333 -45 -225 -57l-53 -21c-17.333 -6.66699 -31.666 -10 -42.999 -10c-17.333 0 -26.333 7.66699 -27 23c-0.666992 6 3 10.333 11 13
c12.667 2.66699 21.334 6 26.001 10c32 24.667 48 42.667 48 54c0 12 -2.33301 18 -7 18c-22 0 -55 -10 -99 -30c-23.333 -10.667 -38.333 -16 -45 -16c-7.33301 0 -20.333 5.33301 -39 16c-18.667 -13.333 -57.667 -47.333 -117 -102l-165 -151
c-30.667 -27.333 -107.334 -99.333 -230.001 -216c-84 -80 -130.667 -120 -140 -120c-18 0 -27 7.66699 -27 23c0 10 118.667 124.667 356 344l271 241l337 281c29.333 24 63.5 47.667 102.5 71s63.5 35 73.5 35c8.66699 0 13 -6 13 -18c0 -4.66699 -15 -17 -45 -37
c-48 -32 -86 -58.667 -114 -80c-47.333 -36.667 -98.666 -79.334 -153.999 -128.001c-50.667 -44.667 -83.334 -75.334 -98.001 -92.001c2.66699 -2 5 -4 7 -6c4.66699 -3.33301 9.33398 -4.66602 14.001 -3.99902l87 23c30 7.33301 54.667 11 74 11
c10 0 19.167 -3.33301 27.5 -10s12.5 -14.667 12.5 -24c0 -12.667 -13.333 -31.667 -40 -57c38.667 10 102 25.333 190 46c74.667 16 115.334 24 122.001 24c10 0 15 -4.33301 15 -13z" />
    <glyph glyph-name="q" unicode="q" horiz-adv-x="324" 
d="M343 208c0 -18 -28.3311 -59.666 -84.998 -124.999l-74 -90c2.66699 -2 10 0.666992 22 8s19 11 21 11c20.667 0 31 -6.33301 31 -19c0 -8 -55.333 -42.333 -166 -103c-24.667 -29.333 -50.667 -56.333 -78 -81c-35.333 -32.667 -59.333 -55.667 -72 -69l-112 -122
c-35.333 0 -53 9 -53 27c0 5.33301 15.667 23 47 53l87 81c23.333 20.667 66.666 62.667 129.999 126c32 21.333 65 57 99 107c-36 0 -65.333 5.33301 -88 16c-28.667 13.333 -45.667 31.666 -51 54.999c-8.66699 39.333 66.666 87 225.999 143
c26.667 9.33301 52.667 14 78 14s38 -10.667 38 -32zM268.002 174.001c0 5.33301 -3.33301 8.00098 -10 8.00098c-22.667 0 -58 -12 -106 -36c-61.333 -30.667 -92 -51.667 -92 -63c0 -10.667 7.33301 -18.334 22 -23.001c30.667 -10 58.667 -10 84 0
c68 59.333 102 97.333 102 114z" />
    <glyph glyph-name="r" unicode="r" horiz-adv-x="387" 
d="M445 80c0 -5.33301 -15.8311 -15.6709 -47.498 -31.0039s-62.834 -28.666 -93.501 -39.999c-41.333 -14.667 -68.666 -23.667 -81.999 -27c-26 -6.66699 -56.333 -10 -91 -10c-10.667 0 -24.334 4.66699 -41.001 14c-20 12 -30 25.667 -30 41
c0 10.667 13 30.334 39 59.001c29.333 31.333 44.666 48.333 45.999 51c-21.333 11.333 -33.666 16.333 -36.999 15s-15.833 -13.666 -37.5 -36.999s-34.167 -35 -37.5 -35c-18.667 0 -28 11 -28 33c0 8 17.5 32.833 52.5 74.5s59.5 62.5 73.5 62.5
c19.333 0 31 -6.33301 35 -19c0.666992 -12 1.5 -24.167 2.5 -36.5s7.5 -18.5 19.5 -18.5c11.333 0 28 7.5 50 22.5s40 22.5 54 22.5c23.333 0 35 -12 35 -36c0 -11.333 -11.667 -22.333 -35 -33l-79 -31c-60.667 -27.333 -91 -58.666 -91 -93.999
c0 -9.33301 7.66699 -14 23 -14c30 0 83 12 159 36c16.667 5.33301 41.667 15.333 75 30c27.333 12.667 43.666 19 48.999 19c7.33301 0 12 -1 14 -3s3 -7 3 -15z" />
    <glyph glyph-name="s" unicode="s" horiz-adv-x="425" 
d="M503 139l-160.001 -64c-22.667 -7.33301 -58 -20.666 -106 -39.999c-22 -18 -47.167 -34.5 -75.5 -49.5s-47.5 -22.5 -57.5 -22.5c-16.667 0 -25 8.66699 -25 26c0 2 8.33301 10 25 24l51 45c18.667 17.333 31.334 31.666 38.001 42.999
c0.666992 0.666992 4.66699 13.667 12 39l-102 -46c-2 -0.666992 -20 -9.66699 -54 -27c-20 -10 -33.333 -15 -40 -15c-8.66699 0 -13 7.33301 -13 22c0 8 56.667 41 170 99l111 59c34 18 56.333 27 67 27c12.667 0 19 -9.33301 19 -28c0 -7.33301 -12.667 -20.333 -38 -39
l-61 -44c-2 -12.667 -8.33301 -31 -19 -55l112 37c81.333 23.333 123.333 35 126 35c13.333 0 20 -8.66699 20 -26z" />
    <glyph glyph-name="t" unicode="t" horiz-adv-x="389" 
d="M478 216c0 -11.333 -8.66699 -18.3311 -26 -20.998c-2 -0.666992 -20.333 -1.33398 -55 -2.00098h-146c-3.33301 -3.33301 -40.333 -37.666 -111 -102.999c-94 -87.333 -143.333 -131 -148 -131c-14 0 -21 9 -21 27c0 6 13.667 21.667 41 47l75 71
c5.33301 5.33301 39.333 37 102 95c-51.333 0 -81 0.333008 -89 1c-7.33301 0.666992 -17.333 0.666992 -30 0c-16.667 -0.666992 -27 -1 -31 -1c-23.333 0 -35 5.66699 -35 17c0 13.333 12.333 21.666 37 24.999c8 0.666992 31.333 1 70 1h117c28 24.667 68.667 65 122 121
c60 72 96 108 108 108c13.333 0 20 -7.66699 20 -23c0 -4 -27.667 -37 -83 -99l-108 -112c14 0 36.333 -1.33301 67 -4c28.667 -2.66699 48 -3.66699 58 -3c44 1.33301 66 -3.33398 66 -14.001z" />
    <glyph glyph-name="u" unicode="u" horiz-adv-x="529" 
d="M598 90c0 -12 -32.6689 -29.668 -98.002 -53.001c-52.667 -18.667 -92 -28 -118 -28c-29.333 0 -52.666 5 -69.999 15c-6 2.66699 -17.667 12 -35 28c-42 -21.333 -72.333 -34.333 -91 -39c-28.667 -8 -69 -12 -121 -12c-17.333 0 -32.5 5.66699 -45.5 17
s-19.5 25.333 -19.5 42c0 15.333 26.667 46.333 80 93c52 44.667 87.333 69 106 73c8.66699 2 13 -4.33301 13 -19c0 -6 -23.667 -29.167 -71 -69.5s-71 -66.166 -71 -77.499c0 -12 12.333 -18 37 -18c66 0 132.667 22.667 200 68c13.333 8.66699 40.666 29.667 81.999 63
c28.667 22.667 46.667 34 54 34c10 0 15 -7 15 -21c0 -20 -9 -38 -27 -54c-6.66699 -6 -23 -17.333 -49 -34c-18 -11.333 -27 -20.666 -27 -27.999c0 -18.667 15.667 -28 47 -28c14.667 0 46.334 7.33301 95.001 22c10.667 3.33301 30.334 10.666 59.001 21.999
c22.667 9.33301 36.667 14 42 14c8.66699 0 13 -3.33301 13 -10z" />
    <glyph glyph-name="v" unicode="v" horiz-adv-x="288" 
d="M349 198c0 -6 -23.6641 -26.666 -70.9971 -61.999s-86 -61.333 -116 -78c-80.667 -45.333 -128.334 -68 -143.001 -68s-20.334 14.667 -17.001 44c1.33301 14 6.16602 37.167 14.499 69.5s15.5 55.5 21.5 69.5c24 56 43.667 84 59 84c12.667 0 16.667 -8.66699 12 -26
l-27 -81c-14.667 -46.667 -22 -77.334 -22 -92.001c28 15.333 62 35.333 102 60c6.66699 4 38.667 25.333 96 64c40.667 27.333 63.667 41 69 41c2.66699 0 7 -3.16699 13 -9.5s9 -11.5 9 -15.5z" />
    <glyph glyph-name="w" unicode="w" horiz-adv-x="594" 
d="M634 165c0 -6 -9.33105 -14 -27.998 -24c-39.333 -20 -67.333 -35 -84 -45c-4.66699 -2.66699 -37.334 -25 -98.001 -67c-34 -23.333 -58 -35 -72 -35c-6.66699 0 -12.834 2.16699 -18.501 6.5s-8.83398 8.83301 -9.50098 13.5c-0.666992 9.33301 3 27.666 11 54.999
c-67.333 -28.667 -121.666 -47 -162.999 -55c-70 -13.333 -111.333 -20 -124 -20c-29.333 0 -44 15 -44 45c0 6.66699 4 19 12 37c9.33301 22 20 39.333 32 52l56 58c25.333 24.667 43.333 37 54 37c19.333 0 29 -7 29 -21c0 -4 -9.66699 -14 -29 -30
c-24 -19.333 -40 -34 -48 -44c-31.333 -37.333 -47 -59.666 -47 -66.999c0 -8.66699 6.33301 -13 19 -13c6.66699 0 58 12 154 36c12 3.33301 37.667 12 77 26c33.333 12 53.666 18 60.999 18c12.667 0 31 -10.667 55 -32l93 54c44.667 24 75.334 36 92.001 36
c13.333 0 20 -7 20 -21z" />
    <glyph glyph-name="x" unicode="x" horiz-adv-x="516" 
d="M591 109c0 -10 -31.335 -31.0029 -94.002 -63.0029c-65.333 -33.333 -113.666 -50 -144.999 -50c-16.667 0 -32.667 3.83301 -48 11.5s-25 16.167 -29 25.5c-29.333 -13.333 -67.333 -25.666 -114 -36.999c-54.667 -13.333 -93.667 -20 -117 -20
c-18 0 -33 4.83301 -45 14.5s-18 22.167 -18 37.5c0 21.333 23 49.333 69 84c34 25.333 63.333 44 88 56c4 2 9.16699 1.5 15.5 -1.5s8.83301 -6.5 7.5 -10.5c-1.33301 -4.66699 -9.83301 -12.5 -25.5 -23.5l-46.5 -32.5c-37.333 -28 -56 -50.333 -56 -67
c0 -12.667 15.333 -19 46 -19c32.667 0 71.334 10 116.001 30c48.667 22 88 49 118 81c35.333 38 53 72.333 53 103c0 18.667 -5.33301 30.667 -16 36c-6.66699 3.33301 -19 4.66602 -37 3.99902c-6 0 -14.5 -2.83301 -25.5 -8.5s-18.833 -8.5 -23.5 -8.5
c-10 0 -15 5.66699 -15 17c0 8 7.66699 14.833 23 20.5s36.666 8.5 63.999 8.5c46.667 0 70 -19.333 70 -58c0 -4 -0.333008 -10 -1 -18v-13c28.667 13.333 49 20 61 20c20.667 0 31 -4.33301 31 -13c0 -8 -4.83301 -14.667 -14.5 -20l-27.5 -15
c-27.333 -17.333 -50 -35.666 -68 -54.999c-34 -35.333 -51 -57.666 -51 -66.999c0 -11.333 1.33301 -18.666 4 -21.999c4 -5.33301 12.667 -8 26 -8c12.667 0 51.334 14.667 116.001 44c10.667 4.66699 30 14.667 58 30c22 12 34.333 18 37 18
c9.33301 0 14 -3.66699 14 -11z" />
    <glyph glyph-name="y" unicode="y" horiz-adv-x="411" 
d="M506 129c0 -4.66699 -13.668 -11.9971 -41.001 -21.9971c-44 -16 -68.667 -25.333 -74 -28l-126.5 -55.5c-41.667 -18.333 -95.834 -44.833 -162.501 -79.5l-160 -157c-33.333 -32.667 -104 -98.334 -212 -197.001l-148 -138c-60.667 -52.667 -108.334 -79 -143.001 -79
c-6 0 -11.833 3.5 -17.5 10.5s-9.16699 14.167 -10.5 21.5c-5.33301 38 45 106.333 151 205c37.333 34.667 90.666 78 159.999 130c40.667 30.667 88.334 62 143.001 94c84.667 48.667 131.667 76 141 82l103 98l77 72c-50 -15.333 -86 -23 -108 -23
c-15.333 0 -29 3.33301 -41 10c-15.333 8 -23 19 -23 33c0 22 12.667 47.667 38 77c18.667 22 41.334 41 68.001 57s47.334 24 62.001 24c9.33301 0 14 -3.33301 14 -10c0 -4.66699 -8.33301 -12.334 -25 -23.001c-24 -16 -39.667 -27 -47 -33
c-13.333 -11.333 -26.333 -26.333 -39 -45s-19 -30.334 -19 -35.001c0 -11.333 9 -17 27 -17c31.333 0 71 13 119 39l76 44c32.667 18.667 53.334 28 62.001 28c6.66699 0 10 -7 10 -21c0 -6 -19.333 -26.333 -58 -61c-44 -40 -70.333 -65.667 -79 -77l168 59l56.5 20.5
c19 7 32.833 10.5 41.5 10.5c11.333 0 17 -4.66699 17 -14zM-104.001 -198.997c-34 -14 -89.333 -48.333 -166 -103c-56 -40 -100.667 -76 -134 -108c-38 -36 -72.333 -71.833 -103 -107.5s-46 -57.167 -46 -64.5c0 -8.66699 2.33301 -13 7 -13
c17.333 0 50.333 21.667 99 65l149 140c64.667 60 105.667 98.667 123 116c40 38 63.667 63 71 75z" />
    <glyph glyph-name="z" unicode="z" horiz-adv-x="523" 
d="M585 125c0 -4 -52.6689 -34.3359 -158.002 -91.0029l-164 -88c-18 -40.667 -31 -69 -39 -85c-21.333 -40 -44.333 -75 -69 -105c-29.333 -35.333 -61.666 -64.333 -96.999 -87c-40 -26 -77.333 -39 -112 -39c-10.667 0 -22.667 5.66699 -36 17
c-17.333 14.667 -26 33.667 -26 57c0 18.667 15.333 43.334 46 74.001c28 28.667 62.667 56.667 104 84l167 103c-10 6.66699 -20 13 -30 19c-10 8.66699 -15 18.667 -15 30c0 8 11.667 21.333 35 40c54 42.667 87 69.334 99 80.001c52 45.333 78 70 78 74
c0 6 -5 9.33301 -15 10c16.667 -0.666992 8.33398 -1 -24.999 -1c-20 0 -63.333 -13.667 -130 -41c-36.667 -15.333 -70.167 -34.333 -100.5 -57s-45.5 -39.667 -45.5 -51c0 -2 2.16699 -3.33301 6.5 -4s7 -2 8 -4s1.5 -4.33301 1.5 -7c0 -8 -4.66699 -15 -14 -21
s-18.333 -8.66699 -27 -8c-22 2 -33 13 -33 33c0 17.333 16.667 41.333 50 72c36 32.667 79.667 61.334 131 86.001c65.333 31.333 116.333 47 153 47c55.333 0 83 -15.667 83 -47c0 -22 -31 -58 -93 -108l-73.5 -58c-24.333 -19.333 -36.5 -31 -36.5 -35
c0 -12 13.333 -21 40 -27c58 22 112.333 46.667 163 74c97.333 52 150 78 158 78c10.667 0 16 -4.66699 16 -14zM197.998 -92.0029c-77.333 -44.667 -129.001 -76.001 -155.001 -94.001c-73.333 -50 -110 -90.333 -110 -121c0 -3.33301 2.83301 -7.16602 8.5 -11.499
s9.83398 -6.5 12.501 -6.5c46.667 0 100 35.667 160 107c36.667 44 64.667 86 84 126z" />
    <glyph glyph-name="bar" unicode="|" horiz-adv-x="282" 
d="M196 237c2.66699 -66 2.66699 -131 0 -195c-2.66699 -70 -7.66699 -109 -15 -117c-3.33301 -3.33301 -7.33301 -5 -12 -5c-8 0 -17.667 5 -29 15c-2 2 -3 12.667 -3 32c0 20 1.66699 64 5 132c4 74 6.33301 127.333 7 160c1.33301 81.333 2.33301 163 3 245
c2.66699 124 6.66699 188.667 12 194c8 9.33301 17 9.33301 27 0c4.66699 -4.66699 6.66699 -76 6 -214c-0.666992 -166 -1 -248.333 -1 -247z" />
    <glyph glyph-name="nonbreakingspace" unicode="&#xa0;" horiz-adv-x="300" 
 />
    <glyph glyph-name="afii10023" unicode="&#xa8;" horiz-adv-x="398" 
d="M630 704c0 -16.667 -10.332 -39.665 -30.999 -68.998c-2.66699 -2.66699 -24.334 -29.667 -65.001 -81c-61.333 -76 -115.333 -137.333 -162 -184l-136 -133c-120.667 -115.333 -181 -186.333 -181 -213c0 -13.333 3 -20 9 -20c24.667 0 85.334 17.333 182.001 52
c22.667 8 58.667 24.333 108 49c39.333 20 63.333 30 72 30c9.33301 0 14 -4.33301 14 -13c0 -16.667 -62 -50.667 -186 -102c-96.667 -40 -165.667 -60 -207 -60c-12.667 0 -24.334 6.16699 -35.001 18.5s-15 26.166 -13 41.499c3.33301 28.667 27.333 68.667 72 120
c24 27.333 71.667 76.666 143 147.999c36 34 80.667 79 134 135c-11.333 7.33301 -28 21.333 -50 42c-21.333 26.667 -32 51.334 -32 74.001c0 32.667 41.333 78.667 124 138c26.667 19.333 59 36.666 97 51.999c34 14 57.333 21 70 21c17.333 0 33 -3.33301 47 -10
c17.333 -8.66699 26 -20.667 26 -36zM571.001 690.002c0.666992 2 1 3.66699 1 5c0 6 -9.33301 9 -28 9c-31.333 0 -74 -18.667 -128 -56c-30 -20.667 -56.667 -43 -80 -67c-18.667 -19.333 -28 -31 -28 -35c0 -36 24 -65.333 72 -88c21.333 20.667 54 55 98 103l62 70.5
c20.667 24.333 31 43.833 31 58.5z" />
    <glyph glyph-name="afii10023" unicode="&#x401;" horiz-adv-x="398" 
d="M630 704c0 -16.667 -10.332 -39.665 -30.999 -68.998c-2.66699 -2.66699 -24.334 -29.667 -65.001 -81c-61.333 -76 -115.333 -137.333 -162 -184l-136 -133c-120.667 -115.333 -181 -186.333 -181 -213c0 -13.333 3 -20 9 -20c24.667 0 85.334 17.333 182.001 52
c22.667 8 58.667 24.333 108 49c39.333 20 63.333 30 72 30c9.33301 0 14 -4.33301 14 -13c0 -16.667 -62 -50.667 -186 -102c-96.667 -40 -165.667 -60 -207 -60c-12.667 0 -24.334 6.16699 -35.001 18.5s-15 26.166 -13 41.499c3.33301 28.667 27.333 68.667 72 120
c24 27.333 71.667 76.666 143 147.999c36 34 80.667 79 134 135c-11.333 7.33301 -28 21.333 -50 42c-21.333 26.667 -32 51.334 -32 74.001c0 32.667 41.333 78.667 124 138c26.667 19.333 59 36.666 97 51.999c34 14 57.333 21 70 21c17.333 0 33 -3.33301 47 -10
c17.333 -8.66699 26 -20.667 26 -36zM571.001 690.002c0.666992 2 1 3.66699 1 5c0 6 -9.33301 9 -28 9c-31.333 0 -74 -18.667 -128 -56c-30 -20.667 -56.667 -43 -80 -67c-18.667 -19.333 -28 -31 -28 -35c0 -36 24 -65.333 72 -88c21.333 20.667 54 55 98 103l62 70.5
c20.667 24.333 31 43.833 31 58.5z" />
    <glyph glyph-name="hyphen" unicode="&#xad;" horiz-adv-x="728" 
d="M648 237c3.33301 -3.33301 4.99902 -7.33203 4.99902 -11.999c0 -8.66699 -5 -18.334 -15 -29.001c-2 -2 -12 -3 -30 -3c-18.667 0 -62.667 1.66699 -132 5c-73.333 4 -127 6.33301 -161 7c-19.333 0 -48.333 -0.833008 -87 -2.5s-64 -2.5 -76 -2.5
c-24 0 -37.833 1.83301 -41.5 5.5s-5.5 8.16699 -5.5 13.5s1.66699 9.66602 5 12.999c8.66699 8.66699 84.334 15.334 227.001 20.001c67.333 2 132.333 2 195 0c70 -2.66699 108.667 -7.66699 116 -15z" />
    <glyph glyph-name="periodcentered" unicode="&#xb7;" horiz-adv-x="345" 
d="M212 189c0 -10 -3.33496 -19.166 -10.002 -27.499s-14.667 -12.833 -24 -13.5c-11.333 -0.666992 -21.166 2.5 -29.499 9.5s-12.5 16.167 -12.5 27.5c0 10.667 4.33301 20.667 13 30s18.334 13.666 29.001 12.999c22.667 -2 34 -15 34 -39z" />
    <glyph glyph-name="periodcentered" unicode="&#x2219;" horiz-adv-x="345" 
d="M212 189c0 -10 -3.33496 -19.166 -10.002 -27.499s-14.667 -12.833 -24 -13.5c-11.333 -0.666992 -21.166 2.5 -29.499 9.5s-12.5 16.167 -12.5 27.5c0 10.667 4.33301 20.667 13 30s18.334 13.666 29.001 12.999c22.667 -2 34 -15 34 -39z" />
    <glyph glyph-name="afii10071" unicode="&#xb8;" horiz-adv-x="538" 
d="M745 245c0 -16.667 -111.998 -40.334 -335.998 -71.001c-78.667 -10.667 -136.334 -16 -173.001 -16c-37.333 -17.333 -66.666 -46.666 -87.999 -87.999l8 -18c4 -8.66699 5.33301 -16.667 4 -24c-2.66699 -19.333 -12.334 -36.833 -29.001 -52.5s-35 -23.5 -55 -23.5
c-32.667 0 -46.667 25.333 -42 76c3.33301 8.66699 19.5 26.667 48.5 54s45.833 45 50.5 53c-10 5.33301 -23.167 8.5 -39.5 9.5s-32.666 2.16699 -48.999 3.5l-47.5 4c-21.333 4 -32 11.333 -32 22c0 17.333 6.66699 26 20 26c6 0 15.5 -1 28.5 -3s27.833 -3.33301 44.5 -4
h134c53.333 47.333 150.666 128.333 291.999 243c42 32 84.667 61.667 128 89c57.333 36 95.333 54 114 54c12.667 0 19 -5.66699 19 -17c0 -7.33301 -22 -26.333 -66 -57l-145 -99c-63.333 -44.667 -143.333 -111 -240 -199c12.667 0 45 2.66699 97 8
c47.333 4.66699 113.666 15 198.999 31c76 14.667 118 22 126 22c19.333 0 29 -7.66699 29 -23z" />
    <glyph glyph-name="afii10071" unicode="&#x451;" horiz-adv-x="538" 
d="M745 245c0 -16.667 -111.998 -40.334 -335.998 -71.001c-78.667 -10.667 -136.334 -16 -173.001 -16c-37.333 -17.333 -66.666 -46.666 -87.999 -87.999l8 -18c4 -8.66699 5.33301 -16.667 4 -24c-2.66699 -19.333 -12.334 -36.833 -29.001 -52.5s-35 -23.5 -55 -23.5
c-32.667 0 -46.667 25.333 -42 76c3.33301 8.66699 19.5 26.667 48.5 54s45.833 45 50.5 53c-10 5.33301 -23.167 8.5 -39.5 9.5s-32.666 2.16699 -48.999 3.5l-47.5 4c-21.333 4 -32 11.333 -32 22c0 17.333 6.66699 26 20 26c6 0 15.5 -1 28.5 -3s27.833 -3.33301 44.5 -4
h134c53.333 47.333 150.666 128.333 291.999 243c42 32 84.667 61.667 128 89c57.333 36 95.333 54 114 54c12.667 0 19 -5.66699 19 -17c0 -7.33301 -22 -26.333 -66 -57l-145 -99c-63.333 -44.667 -143.333 -111 -240 -199c12.667 0 45 2.66699 97 8
c47.333 4.66699 113.666 15 198.999 31c76 14.667 118 22 126 22c19.333 0 29 -7.66699 29 -23z" />
    <glyph glyph-name="afii61352" unicode="&#xb9;" horiz-adv-x="1272" 
d="M1314 432c3.33301 -28 -3.66602 -41.999 -20.999 -41.999c-6 0 -15.333 11 -28 33c-18 31.333 -31.333 52.333 -40 63c-19.333 23.333 -39 36 -59 38c-23.333 2 -44 -2.66699 -62 -14c-6 -4 -24.333 -19.667 -55 -47l-226 -207l-143 -151
c-1.33301 -1.33301 -18 -21.333 -50 -60c-20 -24.667 -34 -37 -42 -37c-6 0 -11.667 3.5 -17 10.5s-8.33301 13.833 -9 20.5c-0.666992 9.33301 16.666 33.333 51.999 72l99 112c-1.33301 16.667 -1 52 1 106s4.33301 92 7 114c-22 -15.333 -66.333 -52 -133 -110l-141 -123
c-64 -52 -135 -100.5 -213 -145.5s-130.333 -67.5 -157 -67.5c-13.333 0 -26.333 4 -39 12c-18 10.667 -27.667 26.667 -29 48c-1.33301 24 4 50.333 16 79c14 31.333 30.333 47 49 47c10.667 0 17 -6.33301 19 -19c1.33301 -9.33301 -3.33398 -24.333 -14.001 -45
c-12 -22.667 -18.333 -37.667 -19 -45c-0.666992 -5.33301 2.16602 -10.833 8.49902 -16.5s11.5 -8.5 15.5 -8.5c20.667 0 73.667 26.667 159 80c88 54.667 165.667 110 233 166c28.667 24 97.667 85.333 207 184c67.333 60 106.666 90 117.999 90
c12.667 0 18.334 0 17.001 0c4.66699 -0.666992 8.33398 -4.66699 11.001 -12c1.33301 -4 2 -7.66699 2 -11c0 -10.667 -7.33301 -21.667 -22 -33c-19.333 -14 -30 -22.667 -32 -26c-13.333 -76 -17.666 -148.333 -12.999 -217l238 224c30 28 53 46.667 69 56
c26.667 16.667 55.667 24.667 87 24c32 -0.666992 66 -19.334 102 -56.001c33.333 -33.333 51.333 -62 54 -86z" />
    <glyph glyph-name="afii61352" unicode="&#x2116;" horiz-adv-x="1272" 
d="M1314 432c3.33301 -28 -3.66602 -41.999 -20.999 -41.999c-6 0 -15.333 11 -28 33c-18 31.333 -31.333 52.333 -40 63c-19.333 23.333 -39 36 -59 38c-23.333 2 -44 -2.66699 -62 -14c-6 -4 -24.333 -19.667 -55 -47l-226 -207l-143 -151
c-1.33301 -1.33301 -18 -21.333 -50 -60c-20 -24.667 -34 -37 -42 -37c-6 0 -11.667 3.5 -17 10.5s-8.33301 13.833 -9 20.5c-0.666992 9.33301 16.666 33.333 51.999 72l99 112c-1.33301 16.667 -1 52 1 106s4.33301 92 7 114c-22 -15.333 -66.333 -52 -133 -110l-141 -123
c-64 -52 -135 -100.5 -213 -145.5s-130.333 -67.5 -157 -67.5c-13.333 0 -26.333 4 -39 12c-18 10.667 -27.667 26.667 -29 48c-1.33301 24 4 50.333 16 79c14 31.333 30.333 47 49 47c10.667 0 17 -6.33301 19 -19c1.33301 -9.33301 -3.33398 -24.333 -14.001 -45
c-12 -22.667 -18.333 -37.667 -19 -45c-0.666992 -5.33301 2.16602 -10.833 8.49902 -16.5s11.5 -8.5 15.5 -8.5c20.667 0 73.667 26.667 159 80c88 54.667 165.667 110 233 166c28.667 24 97.667 85.333 207 184c67.333 60 106.666 90 117.999 90
c12.667 0 18.334 0 17.001 0c4.66699 -0.666992 8.33398 -4.66699 11.001 -12c1.33301 -4 2 -7.66699 2 -11c0 -10.667 -7.33301 -21.667 -22 -33c-19.333 -14 -30 -22.667 -32 -26c-13.333 -76 -17.666 -148.333 -12.999 -217l238 224c30 28 53 46.667 69 56
c26.667 16.667 55.667 24.667 87 24c32 -0.666992 66 -19.334 102 -56.001c33.333 -33.333 51.333 -62 54 -86z" />
    <glyph glyph-name="afii10194" unicode="&#xbc;" horiz-adv-x="538" 
d="M745 245c0 -16.667 -111.998 -40.334 -335.998 -71.001c-78.667 -10.667 -136.334 -16 -173.001 -16c-37.333 -17.333 -66.666 -46.666 -87.999 -87.999l8 -18c4 -8.66699 5.33301 -16.667 4 -24c-2.66699 -19.333 -12.334 -36.833 -29.001 -52.5s-35 -23.5 -55 -23.5
c-32.667 0 -46.667 25.333 -42 76c3.33301 8.66699 19.5 26.667 48.5 54s45.833 45 50.5 53c-10 5.33301 -23.167 8.5 -39.5 9.5s-32.666 2.16699 -48.999 3.5l-47.5 4c-21.333 4 -32 11.333 -32 22c0 17.333 6.66699 26 20 26c6 0 15.5 -1 28.5 -3s27.833 -3.33301 44.5 -4
h134c53.333 47.333 150.666 128.333 291.999 243c42 32 84.667 61.667 128 89c57.333 36 95.333 54 114 54c12.667 0 19 -5.66699 19 -17c0 -7.33301 -22 -26.333 -66 -57l-145 -99c-63.333 -44.667 -143.333 -111 -240 -199c12.667 0 45 2.66699 97 8
c47.333 4.66699 113.666 15 198.999 31c76 14.667 118 22 126 22c19.333 0 29 -7.66699 29 -23z" />
    <glyph glyph-name="afii10194" unicode="&#x458;" horiz-adv-x="538" 
d="M745 245c0 -16.667 -111.998 -40.334 -335.998 -71.001c-78.667 -10.667 -136.334 -16 -173.001 -16c-37.333 -17.333 -66.666 -46.666 -87.999 -87.999l8 -18c4 -8.66699 5.33301 -16.667 4 -24c-2.66699 -19.333 -12.334 -36.833 -29.001 -52.5s-35 -23.5 -55 -23.5
c-32.667 0 -46.667 25.333 -42 76c3.33301 8.66699 19.5 26.667 48.5 54s45.833 45 50.5 53c-10 5.33301 -23.167 8.5 -39.5 9.5s-32.666 2.16699 -48.999 3.5l-47.5 4c-21.333 4 -32 11.333 -32 22c0 17.333 6.66699 26 20 26c6 0 15.5 -1 28.5 -3s27.833 -3.33301 44.5 -4
h134c53.333 47.333 150.666 128.333 291.999 243c42 32 84.667 61.667 128 89c57.333 36 95.333 54 114 54c12.667 0 19 -5.66699 19 -17c0 -7.33301 -22 -26.333 -66 -57l-145 -99c-63.333 -44.667 -143.333 -111 -240 -199c12.667 0 45 2.66699 97 8
c47.333 4.66699 113.666 15 198.999 31c76 14.667 118 22 126 22c19.333 0 29 -7.66699 29 -23z" />
    <glyph glyph-name="afii10017" unicode="&#xc0;" horiz-adv-x="787" 
d="M1020 645c0 -8.66699 -30.334 -54.6709 -91.001 -138.004c-54.667 -76 -91 -124.333 -109 -145c20 -4.66699 40 -9 60 -13c18 -5.33301 27 -12.666 27 -21.999c0 -21.333 -9.66699 -31.666 -29 -30.999c-6 0 -22.333 3 -49 9c-23.333 5.33301 -39.666 7.33301 -48.999 6
c-16.667 -17.333 -34.5 -39.166 -53.5 -65.499s-33.667 -45.166 -44 -56.499s-35.166 -47.333 -74.499 -108c-32.667 -51.333 -52.667 -77 -60 -77c-22.667 0 -34 7.33301 -34 22c0 8 42 70 126 186c17.333 21.333 42 54.333 74 99c-7.33301 0 -19.833 1.33301 -37.5 4
s-29.834 4 -36.501 4c-86.667 -90 -179.667 -160.667 -279 -212c-64.667 -33.333 -107.334 -54 -128.001 -62c-44 -18 -84.667 -27 -122 -27c-18.667 0 -38.334 5 -59.001 15c-26.667 14 -40 32 -40 54c0 18 7 35.833 21 53.5s30.667 28.5 50 32.5
c2.66699 0.666992 5.83398 0 9.50098 -2s5.16699 -4.33301 4.5 -7c-2 -6.66699 -7.33301 -15 -16 -25c-6.66699 -7.33301 -10 -15.333 -10 -24c0 -28.667 17.667 -43 53 -43c38 0 110.333 27.333 217 82c92 46.667 171 101.667 237 165l-52 12c-22 6 -33 12.333 -33 19
c0 14.667 20.667 22 62 22c8.66699 0 20.834 -0.333008 36.501 -1s26.5 -1 32.5 -1l202.5 185.5c93 84.333 149.5 126.5 169.5 126.5c16 0 24 -12.333 24 -37zM925.999 583.996c-34.667 -27.333 -70 -56.667 -106 -88c-51.333 -44.667 -97.333 -86.667 -138 -126l76 -8
l69 92z" />
    <glyph glyph-name="afii10017" unicode="&#x410;" horiz-adv-x="787" 
d="M1020 645c0 -8.66699 -30.334 -54.6709 -91.001 -138.004c-54.667 -76 -91 -124.333 -109 -145c20 -4.66699 40 -9 60 -13c18 -5.33301 27 -12.666 27 -21.999c0 -21.333 -9.66699 -31.666 -29 -30.999c-6 0 -22.333 3 -49 9c-23.333 5.33301 -39.666 7.33301 -48.999 6
c-16.667 -17.333 -34.5 -39.166 -53.5 -65.499s-33.667 -45.166 -44 -56.499s-35.166 -47.333 -74.499 -108c-32.667 -51.333 -52.667 -77 -60 -77c-22.667 0 -34 7.33301 -34 22c0 8 42 70 126 186c17.333 21.333 42 54.333 74 99c-7.33301 0 -19.833 1.33301 -37.5 4
s-29.834 4 -36.501 4c-86.667 -90 -179.667 -160.667 -279 -212c-64.667 -33.333 -107.334 -54 -128.001 -62c-44 -18 -84.667 -27 -122 -27c-18.667 0 -38.334 5 -59.001 15c-26.667 14 -40 32 -40 54c0 18 7 35.833 21 53.5s30.667 28.5 50 32.5
c2.66699 0.666992 5.83398 0 9.50098 -2s5.16699 -4.33301 4.5 -7c-2 -6.66699 -7.33301 -15 -16 -25c-6.66699 -7.33301 -10 -15.333 -10 -24c0 -28.667 17.667 -43 53 -43c38 0 110.333 27.333 217 82c92 46.667 171 101.667 237 165l-52 12c-22 6 -33 12.333 -33 19
c0 14.667 20.667 22 62 22c8.66699 0 20.834 -0.333008 36.501 -1s26.5 -1 32.5 -1l202.5 185.5c93 84.333 149.5 126.5 169.5 126.5c16 0 24 -12.333 24 -37zM925.999 583.996c-34.667 -27.333 -70 -56.667 -106 -88c-51.333 -44.667 -97.333 -86.667 -138 -126l76 -8
l69 92z" />
    <glyph glyph-name="afii10018" unicode="&#xc1;" horiz-adv-x="347" 
d="M805 720c-11.333 -59.333 -41.0039 -109.336 -89.0039 -150.003c-50.667 -42.667 -107.334 -63.667 -170.001 -63c-60 0.666992 -107.667 21.667 -143 63c-5.33301 6.66699 -14.666 22.667 -27.999 48c-10 19.333 -18 29 -24 29s-25.333 -19.167 -58 -57.5
s-60.667 -75.166 -84 -110.499c-29.333 -44 -63.333 -112.667 -102 -206c25.333 12.667 48 18.667 68 18c54.667 -1.33301 82 -33.666 82 -96.999c0 -18 -2 -38.667 -6 -62c-6 -35.333 -21.333 -67.666 -46 -96.999c-30 -36.667 -65.667 -55 -107 -55
c-24.667 0 -46.667 8.33301 -66 25c-21.333 18 -32 39.667 -32 65c0 10.667 4 36.667 12 78c-4 -2.66699 -10.333 -8.33398 -19 -17.001c-5.33301 -6 -10.333 -9 -15 -9c-5.33301 0 -9.5 2.83301 -12.5 8.5s-3.83301 11.5 -2.5 17.5c1.33301 8 6.33301 16.5 15 25.5l27 27
l46 43.5l42 102c24.667 60.667 49 109.334 73 146.001c96 144 161.667 216 197 216c16 0 28.333 -7.5 37 -22.5s17 -30.167 25 -45.5c34.667 -53.333 75 -80 121 -80c30.667 0 53.834 2.66699 69.501 8s35.5 17 59.5 35c38.667 29.333 65.334 68.333 80.001 117
c4.66699 16 7 32.333 7 49c0 19.333 -3 38.333 -9 57c-2 6.66699 -6.66699 17 -14 31c-5.33301 10.667 -7.66602 17.667 -6.99902 21c1.33301 8.66699 4.33301 14 9 16c2 0.666992 7.66699 1 17 1c14.667 0 26.834 -12.833 36.501 -38.5s14.5 -55.167 14.5 -88.5
c0 -17.333 -1.33301 -33.333 -4 -48zM202.996 147.997c2 10.667 3 21.667 3 33c0 47.333 -15 71 -45 71c-16 0 -45.667 -17.333 -89 -52c-12 -31.333 -19.667 -57.333 -23 -78c-1.33301 -8 -2 -16 -2 -24c0 -46.667 19.667 -71 59 -73c24.667 -1.33301 46.667 13.667 66 45
c16 24.667 26.333 50.667 31 78z" />
    <glyph glyph-name="afii10018" unicode="&#x411;" horiz-adv-x="347" 
d="M805 720c-11.333 -59.333 -41.0039 -109.336 -89.0039 -150.003c-50.667 -42.667 -107.334 -63.667 -170.001 -63c-60 0.666992 -107.667 21.667 -143 63c-5.33301 6.66699 -14.666 22.667 -27.999 48c-10 19.333 -18 29 -24 29s-25.333 -19.167 -58 -57.5
s-60.667 -75.166 -84 -110.499c-29.333 -44 -63.333 -112.667 -102 -206c25.333 12.667 48 18.667 68 18c54.667 -1.33301 82 -33.666 82 -96.999c0 -18 -2 -38.667 -6 -62c-6 -35.333 -21.333 -67.666 -46 -96.999c-30 -36.667 -65.667 -55 -107 -55
c-24.667 0 -46.667 8.33301 -66 25c-21.333 18 -32 39.667 -32 65c0 10.667 4 36.667 12 78c-4 -2.66699 -10.333 -8.33398 -19 -17.001c-5.33301 -6 -10.333 -9 -15 -9c-5.33301 0 -9.5 2.83301 -12.5 8.5s-3.83301 11.5 -2.5 17.5c1.33301 8 6.33301 16.5 15 25.5l27 27
l46 43.5l42 102c24.667 60.667 49 109.334 73 146.001c96 144 161.667 216 197 216c16 0 28.333 -7.5 37 -22.5s17 -30.167 25 -45.5c34.667 -53.333 75 -80 121 -80c30.667 0 53.834 2.66699 69.501 8s35.5 17 59.5 35c38.667 29.333 65.334 68.333 80.001 117
c4.66699 16 7 32.333 7 49c0 19.333 -3 38.333 -9 57c-2 6.66699 -6.66699 17 -14 31c-5.33301 10.667 -7.66602 17.667 -6.99902 21c1.33301 8.66699 4.33301 14 9 16c2 0.666992 7.66699 1 17 1c14.667 0 26.834 -12.833 36.501 -38.5s14.5 -55.167 14.5 -88.5
c0 -17.333 -1.33301 -33.333 -4 -48zM202.996 147.997c2 10.667 3 21.667 3 33c0 47.333 -15 71 -45 71c-16 0 -45.667 -17.333 -89 -52c-12 -31.333 -19.667 -57.333 -23 -78c-1.33301 -8 -2 -16 -2 -24c0 -46.667 19.667 -71 59 -73c24.667 -1.33301 46.667 13.667 66 45
c16 24.667 26.333 50.667 31 78z" />
    <glyph glyph-name="afii10019" unicode="&#xc2;" horiz-adv-x="649" 
d="M772 170c0 -10 -20.6709 -23.335 -62.0039 -40.002l-102 -39c-4.66699 -2 -43.667 -19.667 -117 -53c-48.667 -22.667 -81 -34 -97 -34c-6.66699 0 -11.667 4 -15 12c-3.33301 9.33301 7.33398 19.666 32.001 30.999c32 13.333 52 25.333 60 36
c25.333 32.667 39.333 51.667 42 57c12.667 22 19 48 19 78c0 5.33301 -4.33301 11.833 -13 19.5s-13 14.834 -13 21.501c0 12 9.83301 26.833 29.5 44.5l59.5 52.5c18 16.667 33.833 35.167 47.5 55.5s20.5 35.833 20.5 46.5c0 8 -0.666992 13.333 -2 16
s-5.66602 4 -12.999 4s-37.666 -20 -90.999 -60c-50.667 -36.667 -99.167 -74.667 -145.5 -114s-94.5 -84 -144.5 -134l-177 -175l-62 -64c-18.667 -17.333 -31.334 -24.666 -38.001 -21.999c-13.333 7.33301 -20 14 -20 20c0 20 55.667 102.333 167 247
c22.667 29.333 52 71.333 88 126c45.333 68.667 71.666 108 78.999 118c-20.667 -12 -41 -27.333 -61 -46l-46 -44c-7.33301 -6 -23.666 -23.667 -48.999 -53c-18 -20.667 -31 -31 -39 -31c-2 0 -4 0.833008 -6 2.5s-5.33301 2.83398 -10 3.50098c-2 0.666992 -3 3 -3 7
c0 20 95.333 120.333 286 301c130.667 124 208 186 232 186c5.33301 0 10 -2.83301 14 -8.5s6 -11.5 6 -17.5c0 -13.333 -21.333 -41.666 -64 -84.999c-68 -68.667 -111.333 -114.334 -130 -137.001c-50 -59.333 -102.333 -126.666 -157 -201.999
c-51.333 -71.333 -83.666 -120.333 -96.999 -147c46 44 123.333 113 232 207l150 120c48 34.667 87.333 52 118 52c20 0 30 -19.333 30 -58c0 -22.667 -16.167 -54.834 -48.5 -96.501s-63.166 -70.167 -92.499 -85.5c10.667 -15.333 16 -33 16 -53
c0 -15.333 -5.5 -37.166 -16.5 -65.499s-23.167 -51.833 -36.5 -70.5c19.333 8.66699 51.333 22 96 40c88 30 133.333 45 136 45c5.33301 -4.66699 8 -9.33398 8 -14.001z" />
    <glyph glyph-name="afii10019" unicode="&#x412;" horiz-adv-x="649" 
d="M772 170c0 -10 -20.6709 -23.335 -62.0039 -40.002l-102 -39c-4.66699 -2 -43.667 -19.667 -117 -53c-48.667 -22.667 -81 -34 -97 -34c-6.66699 0 -11.667 4 -15 12c-3.33301 9.33301 7.33398 19.666 32.001 30.999c32 13.333 52 25.333 60 36
c25.333 32.667 39.333 51.667 42 57c12.667 22 19 48 19 78c0 5.33301 -4.33301 11.833 -13 19.5s-13 14.834 -13 21.501c0 12 9.83301 26.833 29.5 44.5l59.5 52.5c18 16.667 33.833 35.167 47.5 55.5s20.5 35.833 20.5 46.5c0 8 -0.666992 13.333 -2 16
s-5.66602 4 -12.999 4s-37.666 -20 -90.999 -60c-50.667 -36.667 -99.167 -74.667 -145.5 -114s-94.5 -84 -144.5 -134l-177 -175l-62 -64c-18.667 -17.333 -31.334 -24.666 -38.001 -21.999c-13.333 7.33301 -20 14 -20 20c0 20 55.667 102.333 167 247
c22.667 29.333 52 71.333 88 126c45.333 68.667 71.666 108 78.999 118c-20.667 -12 -41 -27.333 -61 -46l-46 -44c-7.33301 -6 -23.666 -23.667 -48.999 -53c-18 -20.667 -31 -31 -39 -31c-2 0 -4 0.833008 -6 2.5s-5.33301 2.83398 -10 3.50098c-2 0.666992 -3 3 -3 7
c0 20 95.333 120.333 286 301c130.667 124 208 186 232 186c5.33301 0 10 -2.83301 14 -8.5s6 -11.5 6 -17.5c0 -13.333 -21.333 -41.666 -64 -84.999c-68 -68.667 -111.333 -114.334 -130 -137.001c-50 -59.333 -102.333 -126.666 -157 -201.999
c-51.333 -71.333 -83.666 -120.333 -96.999 -147c46 44 123.333 113 232 207l150 120c48 34.667 87.333 52 118 52c20 0 30 -19.333 30 -58c0 -22.667 -16.167 -54.834 -48.5 -96.501s-63.166 -70.167 -92.499 -85.5c10.667 -15.333 16 -33 16 -53
c0 -15.333 -5.5 -37.166 -16.5 -65.499s-23.167 -51.833 -36.5 -70.5c19.333 8.66699 51.333 22 96 40c88 30 133.333 45 136 45c5.33301 -4.66699 8 -9.33398 8 -14.001z" />
    <glyph glyph-name="afii10020" unicode="&#xc3;" 
d="M1340 718c0 -37.333 -33.335 -74 -100.002 -110c-62 -33.333 -156 -50 -282 -50c-62 0 -130 8.33301 -204 25s-134.333 25 -181 25c-174.667 0 -281.667 -52.667 -321 -158l-16 -54c-6.66699 -21.333 -14 -32 -22 -32c-16 0 -24 11 -24 33c0 82.667 37.667 148 113 196
c66.667 42 147.667 63 243 63c70.667 0 148.834 -9.33301 234.501 -28s147.5 -28 185.5 -28c90.667 0 155.334 5.33301 194.001 16c18 21.333 44.667 48 80 80c28 25.333 48.333 38 61 38c8 0 16.5 -1.83301 25.5 -5.5s13.5 -7.16699 13.5 -10.5zM589.998 450
c0 -18 -93.333 -114.334 -280 -289.001c-64.667 -60.667 -112 -102 -142 -124c-52.667 -38.667 -97.667 -58 -135 -58c-5.33301 0 -13 5.66699 -23 17s-15 21.333 -15 30c0 12.667 6.33301 31.667 19 57c14.667 30 29.334 45 44.001 45c13.333 0 20 -4.66699 20 -14
c0 -3.33301 -5.66699 -13 -17 -29s-17 -27 -17 -33c0 -9.33301 4.66699 -14 14 -14c25.333 0 60.666 18 105.999 54c26 20.667 64.667 56.334 116 107.001l144 133c89.333 84.667 139 127 149 127c11.333 0 17 -3 17 -9z" />
    <glyph glyph-name="afii10020" unicode="&#x413;" 
d="M1340 718c0 -37.333 -33.335 -74 -100.002 -110c-62 -33.333 -156 -50 -282 -50c-62 0 -130 8.33301 -204 25s-134.333 25 -181 25c-174.667 0 -281.667 -52.667 -321 -158l-16 -54c-6.66699 -21.333 -14 -32 -22 -32c-16 0 -24 11 -24 33c0 82.667 37.667 148 113 196
c66.667 42 147.667 63 243 63c70.667 0 148.834 -9.33301 234.501 -28s147.5 -28 185.5 -28c90.667 0 155.334 5.33301 194.001 16c18 21.333 44.667 48 80 80c28 25.333 48.333 38 61 38c8 0 16.5 -1.83301 25.5 -5.5s13.5 -7.16699 13.5 -10.5zM589.998 450
c0 -18 -93.333 -114.334 -280 -289.001c-64.667 -60.667 -112 -102 -142 -124c-52.667 -38.667 -97.667 -58 -135 -58c-5.33301 0 -13 5.66699 -23 17s-15 21.333 -15 30c0 12.667 6.33301 31.667 19 57c14.667 30 29.334 45 44.001 45c13.333 0 20 -4.66699 20 -14
c0 -3.33301 -5.66699 -13 -17 -29s-17 -27 -17 -33c0 -9.33301 4.66699 -14 14 -14c25.333 0 60.666 18 105.999 54c26 20.667 64.667 56.334 116 107.001l144 133c89.333 84.667 139 127 149 127c11.333 0 17 -3 17 -9z" />
    <glyph glyph-name="afii10021" unicode="&#xc4;" horiz-adv-x="1018" 
d="M1230 696c-4.66699 -10.667 -18.3369 -25.998 -41.0039 -45.998c-35.333 -31.333 -54 -48 -56 -50c8 -21.333 13 -39.333 15 -54v-48c0 -38.667 -16 -89 -48 -151c-34 -65.333 -75.333 -122.333 -124 -171c-56 -56 -123.667 -102 -203 -138
c-72 -32 -134.667 -48 -188 -48c-50 0 -110.333 12.667 -181 38c-14 -10 -52 -25.667 -114 -47c-76 -26 -137.333 -39 -184 -39c-94 0 -141 28.667 -141 86c0 26 28 49 84 69c51.333 18 105.333 27.333 162 28c28.667 0.666992 59 -4 91 -14l88 -27c36 36 126 109 270 219
l206 151l193 146c-20 22.667 -49 42 -87 58c-48.667 20 -104 30 -166 30c-42 0 -92 -7.66699 -150 -23c-61.333 -16 -118.333 -37.667 -171 -65c-57.333 -29.333 -109.666 -65 -156.999 -107c-50.667 -45.333 -76 -81.666 -76 -108.999c0 -13.333 4 -22.666 12 -27.999
c4.66699 -2.66699 14.667 -5.33398 30 -8.00098c22 -3.33301 58.333 5.33398 109 26.001s93.667 44 129 70c71.333 53.333 107 98.666 107 135.999c0 10 -1 18.333 -3 25c-0.666992 2.66699 0.333008 6 3 10c8 13.333 17.333 19.333 28 18c12.667 -2 18.334 -13 17.001 -33
c-4 -58.667 -44.667 -118 -122 -178c-42 -32.667 -93.333 -61.334 -154 -86.001c-53.333 -22 -91.333 -33 -114 -33c-23.333 0 -44.833 8.16699 -64.5 24.5s-28.5 35.166 -26.5 56.499c6 68 92.667 151 260 249c56.667 33.333 119.334 59.666 188.001 78.999
c60.667 17.333 112.334 26 155.001 26c112.667 0 210 -31.667 292 -95c12.667 11.333 34 29 64 53l31.5 28c11 9.33301 19.167 14 24.5 14c10.667 0 16 -7.66699 16 -23c0 -6.66699 -1.33301 -13 -4 -19zM1098 498.002c0 14.667 -4 35.3301 -12 61.9971
c-59.333 -51.333 -122 -101.333 -188 -150l-196 -131c-145.333 -103.333 -234.333 -172.666 -267 -207.999c60.667 -18 110.667 -27 150 -27c53.333 0 111.333 13 174 39c70 28 130.333 67 181 117c47.333 46.667 85.5 96.834 114.5 150.501s43.5 102.834 43.5 147.501z
M338.997 43.998c-22.667 5.33301 -44.998 11 -66.998 17c-28.667 6 -54.334 9.33301 -77.001 10c-34.667 1.33301 -74.334 -4.66699 -119.001 -18s-67 -24.333 -67 -33c0 -25.333 32.333 -38 97 -38c26 0 71.667 9.66699 137 29c58.667 17.333 90.667 28.333 96 33z" />
    <glyph glyph-name="afii10021" unicode="&#x414;" horiz-adv-x="1018" 
d="M1230 696c-4.66699 -10.667 -18.3369 -25.998 -41.0039 -45.998c-35.333 -31.333 -54 -48 -56 -50c8 -21.333 13 -39.333 15 -54v-48c0 -38.667 -16 -89 -48 -151c-34 -65.333 -75.333 -122.333 -124 -171c-56 -56 -123.667 -102 -203 -138
c-72 -32 -134.667 -48 -188 -48c-50 0 -110.333 12.667 -181 38c-14 -10 -52 -25.667 -114 -47c-76 -26 -137.333 -39 -184 -39c-94 0 -141 28.667 -141 86c0 26 28 49 84 69c51.333 18 105.333 27.333 162 28c28.667 0.666992 59 -4 91 -14l88 -27c36 36 126 109 270 219
l206 151l193 146c-20 22.667 -49 42 -87 58c-48.667 20 -104 30 -166 30c-42 0 -92 -7.66699 -150 -23c-61.333 -16 -118.333 -37.667 -171 -65c-57.333 -29.333 -109.666 -65 -156.999 -107c-50.667 -45.333 -76 -81.666 -76 -108.999c0 -13.333 4 -22.666 12 -27.999
c4.66699 -2.66699 14.667 -5.33398 30 -8.00098c22 -3.33301 58.333 5.33398 109 26.001s93.667 44 129 70c71.333 53.333 107 98.666 107 135.999c0 10 -1 18.333 -3 25c-0.666992 2.66699 0.333008 6 3 10c8 13.333 17.333 19.333 28 18c12.667 -2 18.334 -13 17.001 -33
c-4 -58.667 -44.667 -118 -122 -178c-42 -32.667 -93.333 -61.334 -154 -86.001c-53.333 -22 -91.333 -33 -114 -33c-23.333 0 -44.833 8.16699 -64.5 24.5s-28.5 35.166 -26.5 56.499c6 68 92.667 151 260 249c56.667 33.333 119.334 59.666 188.001 78.999
c60.667 17.333 112.334 26 155.001 26c112.667 0 210 -31.667 292 -95c12.667 11.333 34 29 64 53l31.5 28c11 9.33301 19.167 14 24.5 14c10.667 0 16 -7.66699 16 -23c0 -6.66699 -1.33301 -13 -4 -19zM1098 498.002c0 14.667 -4 35.3301 -12 61.9971
c-59.333 -51.333 -122 -101.333 -188 -150l-196 -131c-145.333 -103.333 -234.333 -172.666 -267 -207.999c60.667 -18 110.667 -27 150 -27c53.333 0 111.333 13 174 39c70 28 130.333 67 181 117c47.333 46.667 85.5 96.834 114.5 150.501s43.5 102.834 43.5 147.501z
M338.997 43.998c-22.667 5.33301 -44.998 11 -66.998 17c-28.667 6 -54.334 9.33301 -77.001 10c-34.667 1.33301 -74.334 -4.66699 -119.001 -18s-67 -24.333 -67 -33c0 -25.333 32.333 -38 97 -38c26 0 71.667 9.66699 137 29c58.667 17.333 90.667 28.333 96 33z" />
    <glyph glyph-name="afii10022" unicode="&#xc5;" horiz-adv-x="398" 
d="M630 704c0 -16.667 -10.332 -39.665 -30.999 -68.998c-2.66699 -2.66699 -24.334 -29.667 -65.001 -81c-61.333 -76 -115.333 -137.333 -162 -184l-136 -133c-120.667 -115.333 -181 -186.333 -181 -213c0 -13.333 3 -20 9 -20c24.667 0 85.334 17.333 182.001 52
c22.667 8 58.667 24.333 108 49c39.333 20 63.333 30 72 30c9.33301 0 14 -4.33301 14 -13c0 -16.667 -62 -50.667 -186 -102c-96.667 -40 -165.667 -60 -207 -60c-12.667 0 -24.334 6.16699 -35.001 18.5s-15 26.166 -13 41.499c3.33301 28.667 27.333 68.667 72 120
c24 27.333 71.667 76.666 143 147.999c36 34 80.667 79 134 135c-11.333 7.33301 -28 21.333 -50 42c-21.333 26.667 -32 51.334 -32 74.001c0 32.667 41.333 78.667 124 138c26.667 19.333 59 36.666 97 51.999c34 14 57.333 21 70 21c17.333 0 33 -3.33301 47 -10
c17.333 -8.66699 26 -20.667 26 -36zM571.001 690.002c0.666992 2 1 3.66699 1 5c0 6 -9.33301 9 -28 9c-31.333 0 -74 -18.667 -128 -56c-30 -20.667 -56.667 -43 -80 -67c-18.667 -19.333 -28 -31 -28 -35c0 -36 24 -65.333 72 -88c21.333 20.667 54 55 98 103l62 70.5
c20.667 24.333 31 43.833 31 58.5z" />
    <glyph glyph-name="afii10022" unicode="&#x415;" horiz-adv-x="398" 
d="M630 704c0 -16.667 -10.332 -39.665 -30.999 -68.998c-2.66699 -2.66699 -24.334 -29.667 -65.001 -81c-61.333 -76 -115.333 -137.333 -162 -184l-136 -133c-120.667 -115.333 -181 -186.333 -181 -213c0 -13.333 3 -20 9 -20c24.667 0 85.334 17.333 182.001 52
c22.667 8 58.667 24.333 108 49c39.333 20 63.333 30 72 30c9.33301 0 14 -4.33301 14 -13c0 -16.667 -62 -50.667 -186 -102c-96.667 -40 -165.667 -60 -207 -60c-12.667 0 -24.334 6.16699 -35.001 18.5s-15 26.166 -13 41.499c3.33301 28.667 27.333 68.667 72 120
c24 27.333 71.667 76.666 143 147.999c36 34 80.667 79 134 135c-11.333 7.33301 -28 21.333 -50 42c-21.333 26.667 -32 51.334 -32 74.001c0 32.667 41.333 78.667 124 138c26.667 19.333 59 36.666 97 51.999c34 14 57.333 21 70 21c17.333 0 33 -3.33301 47 -10
c17.333 -8.66699 26 -20.667 26 -36zM571.001 690.002c0.666992 2 1 3.66699 1 5c0 6 -9.33301 9 -28 9c-31.333 0 -74 -18.667 -128 -56c-30 -20.667 -56.667 -43 -80 -67c-18.667 -19.333 -28 -31 -28 -35c0 -36 24 -65.333 72 -88c21.333 20.667 54 55 98 103l62 70.5
c20.667 24.333 31 43.833 31 58.5z" />
    <glyph glyph-name="afii10024" unicode="&#xc6;" horiz-adv-x="1201" 
d="M1296 118c0 -9.33301 -21.332 -22.335 -63.999 -39.002l-119 -41c-90 -31.333 -163.333 -47 -220 -47c-36.667 0 -65.334 12.667 -86.001 38c-15.333 18.667 -26.666 45.334 -33.999 80.001l-12 66l-193 -109c-41.333 -20 -132.666 -67.333 -273.999 -142l-165 -141
c-84.667 -72 -156 -129 -214 -171c-62.667 -45.333 -121.167 -82.166 -175.5 -110.499s-92.833 -42.5 -115.5 -42.5c-20 0 -30 9.66699 -30 29c0 18.667 17.667 46 53 82c42 43.333 100.667 88.333 176 135c43.333 26.667 119.666 69.334 228.999 128.001
c90.667 48.667 167.334 94.667 230.001 138c54 50 103 100.333 147 151c37.333 42.667 84 92 140 148l-310 -121c-23.333 -15.333 -61.333 -38.666 -114 -69.999l-80 -46.5c-27.333 -15.667 -47.333 -23.5 -60 -23.5c-7.33301 0 -11 7.66699 -11 23
c0 13.333 12.667 31 38 53l73 60l177 155l134 116c-8.66699 0 -43.667 -7.33301 -105 -22c-13.333 -3.33301 -32 -10.666 -56 -21.999c-20.667 -10 -34.667 -15 -42 -15s-12.333 2.66699 -15 8c-10.667 23.333 50.333 55.333 183 96
c3.33301 1.33301 33.666 12.666 90.999 33.999c44 16.667 72 25 84 25c22 0 33 -7.33301 33 -22c0 -5.33301 -11.333 -16.666 -34 -33.999c-41.333 -31.333 -67.333 -51.666 -78 -60.999c-78 -66 -150.667 -134.333 -218 -205l163 63c66.667 25.333 119.667 48 159 68
c79.333 40 151.333 87 216 141l201 173c47.333 41.333 95.166 78.166 143.499 110.499s79.833 48.5 94.5 48.5c18 0 27 -7.66699 27 -23c0 -36.667 -55.667 -95.667 -167 -177c-33.333 -24.667 -78.5 -55.334 -135.5 -92.001s-109.167 -72.334 -156.5 -107.001
c-36.667 -26.667 -100.334 -83 -191.001 -169c-74 -70 -125 -128.667 -153 -176l315 170l132 72c134 76.667 210.667 115 230 115c8.66699 0 16.5 -3.33301 23.5 -10s10.5 -14.334 10.5 -23.001c0 -10 -26.667 -27.667 -80 -53c-70 -34.667 -117.333 -60 -142 -76
s-49.667 -31.333 -75 -46c-26.667 -16.667 -40 -32 -40 -46c0 -86 19.667 -130.667 59 -134c37.333 -3.33301 105.333 10 204 40c22.667 6.66699 57.334 19.667 104.001 39c39.333 16.667 61.333 25 66 25c19.333 0 29 -4.33301 29 -13zM35.001 -239.002l-3.00098 5
c-56.667 -21.333 -121.667 -56 -195 -104c-85.333 -55.333 -128 -90.333 -128 -105s4.66699 -22 14 -22c14.667 0 64.334 30.667 149.001 92c38 27.333 92.333 72 163 134z" />
    <glyph glyph-name="afii10024" unicode="&#x416;" horiz-adv-x="1201" 
d="M1296 118c0 -9.33301 -21.332 -22.335 -63.999 -39.002l-119 -41c-90 -31.333 -163.333 -47 -220 -47c-36.667 0 -65.334 12.667 -86.001 38c-15.333 18.667 -26.666 45.334 -33.999 80.001l-12 66l-193 -109c-41.333 -20 -132.666 -67.333 -273.999 -142l-165 -141
c-84.667 -72 -156 -129 -214 -171c-62.667 -45.333 -121.167 -82.166 -175.5 -110.499s-92.833 -42.5 -115.5 -42.5c-20 0 -30 9.66699 -30 29c0 18.667 17.667 46 53 82c42 43.333 100.667 88.333 176 135c43.333 26.667 119.666 69.334 228.999 128.001
c90.667 48.667 167.334 94.667 230.001 138c54 50 103 100.333 147 151c37.333 42.667 84 92 140 148l-310 -121c-23.333 -15.333 -61.333 -38.666 -114 -69.999l-80 -46.5c-27.333 -15.667 -47.333 -23.5 -60 -23.5c-7.33301 0 -11 7.66699 -11 23
c0 13.333 12.667 31 38 53l73 60l177 155l134 116c-8.66699 0 -43.667 -7.33301 -105 -22c-13.333 -3.33301 -32 -10.666 -56 -21.999c-20.667 -10 -34.667 -15 -42 -15s-12.333 2.66699 -15 8c-10.667 23.333 50.333 55.333 183 96
c3.33301 1.33301 33.666 12.666 90.999 33.999c44 16.667 72 25 84 25c22 0 33 -7.33301 33 -22c0 -5.33301 -11.333 -16.666 -34 -33.999c-41.333 -31.333 -67.333 -51.666 -78 -60.999c-78 -66 -150.667 -134.333 -218 -205l163 63c66.667 25.333 119.667 48 159 68
c79.333 40 151.333 87 216 141l201 173c47.333 41.333 95.166 78.166 143.499 110.499s79.833 48.5 94.5 48.5c18 0 27 -7.66699 27 -23c0 -36.667 -55.667 -95.667 -167 -177c-33.333 -24.667 -78.5 -55.334 -135.5 -92.001s-109.167 -72.334 -156.5 -107.001
c-36.667 -26.667 -100.334 -83 -191.001 -169c-74 -70 -125 -128.667 -153 -176l315 170l132 72c134 76.667 210.667 115 230 115c8.66699 0 16.5 -3.33301 23.5 -10s10.5 -14.334 10.5 -23.001c0 -10 -26.667 -27.667 -80 -53c-70 -34.667 -117.333 -60 -142 -76
s-49.667 -31.333 -75 -46c-26.667 -16.667 -40 -32 -40 -46c0 -86 19.667 -130.667 59 -134c37.333 -3.33301 105.333 10 204 40c22.667 6.66699 57.334 19.667 104.001 39c39.333 16.667 61.333 25 66 25c19.333 0 29 -4.33301 29 -13zM35.001 -239.002l-3.00098 5
c-56.667 -21.333 -121.667 -56 -195 -104c-85.333 -55.333 -128 -90.333 -128 -105s4.66699 -22 14 -22c14.667 0 64.334 30.667 149.001 92c38 27.333 92.333 72 163 134z" />
    <glyph glyph-name="afii10025" unicode="&#xc7;" 
d="M787 643c0 -65.333 -87.666 -163.669 -262.999 -295.002c17.333 -26.667 26 -52.667 26 -78s-19.667 -59.666 -59 -102.999c-42.667 -47.333 -92.667 -86.666 -150 -117.999c-68.667 -38 -135 -57 -199 -57c-39.333 0 -72 13 -98 39c-21.333 21.333 -32 42 -32 62
c0 10 3.33301 16.333 10 19c4 1.33301 13.333 2 28 2c2.66699 0 7 -7 13 -21c7.33301 -17.333 16 -30.666 26 -39.999c15.333 -14 36 -21 62 -21c64.667 0 136.167 28 214.5 84s117.5 107.333 117.5 154c0 18.667 -6.66699 31.667 -20 39c-2.66699 1.33301 -15 5 -37 11
c-13.333 3.33301 -20 9.66602 -20 18.999c0 7.33301 8.33301 15 25 23c37.333 18.667 59.333 30 66 34c34 19.333 66.333 44 97 74l86 79c36 38 54 69.333 54 94c0 14 -9.66699 24.333 -29 31c-14 5.33301 -29.333 8 -46 8c-38 0 -119.333 -41 -244 -123
c-36.667 -24 -85 -64.667 -145 -122c-49.333 -46.667 -78 -70 -86 -70c-9.33301 0 -14 4.33301 -14 13c0 9.33301 25.333 38.333 76 87c53.333 50.667 103.666 92 150.999 124c129.333 88.667 219.333 133 270 133c34.667 0 62.667 -6.66699 84 -20
c24 -14.667 36 -35 36 -61z" />
    <glyph glyph-name="afii10025" unicode="&#x417;" 
d="M787 643c0 -65.333 -87.666 -163.669 -262.999 -295.002c17.333 -26.667 26 -52.667 26 -78s-19.667 -59.666 -59 -102.999c-42.667 -47.333 -92.667 -86.666 -150 -117.999c-68.667 -38 -135 -57 -199 -57c-39.333 0 -72 13 -98 39c-21.333 21.333 -32 42 -32 62
c0 10 3.33301 16.333 10 19c4 1.33301 13.333 2 28 2c2.66699 0 7 -7 13 -21c7.33301 -17.333 16 -30.666 26 -39.999c15.333 -14 36 -21 62 -21c64.667 0 136.167 28 214.5 84s117.5 107.333 117.5 154c0 18.667 -6.66699 31.667 -20 39c-2.66699 1.33301 -15 5 -37 11
c-13.333 3.33301 -20 9.66602 -20 18.999c0 7.33301 8.33301 15 25 23c37.333 18.667 59.333 30 66 34c34 19.333 66.333 44 97 74l86 79c36 38 54 69.333 54 94c0 14 -9.66699 24.333 -29 31c-14 5.33301 -29.333 8 -46 8c-38 0 -119.333 -41 -244 -123
c-36.667 -24 -85 -64.667 -145 -122c-49.333 -46.667 -78 -70 -86 -70c-9.33301 0 -14 4.33301 -14 13c0 9.33301 25.333 38.333 76 87c53.333 50.667 103.666 92 150.999 124c129.333 88.667 219.333 133 270 133c34.667 0 62.667 -6.66699 84 -20
c24 -14.667 36 -35 36 -61z" />
    <glyph glyph-name="afii10026" unicode="&#xc8;" horiz-adv-x="849" 
d="M972 165c0 -6.66699 -24.6631 -21.334 -73.9961 -44.001l-135 -61l-200 -93c-70 -28.667 -132.333 -43 -187 -43c-12.667 0 -25.834 6.83301 -39.501 20.5s-20.5 26.167 -20.5 37.5c0 8 6 27.333 18 58c14 36 28 64.333 42 85c-44.667 -34 -96 -65.667 -154 -95
c-64.667 -32 -113.334 -48 -146.001 -48c-16.667 0 -31.334 4.33301 -44.001 13c-16.667 10.667 -25 26.667 -25 48c0 18.667 24.333 55.5 73 110.5l147 164.5l-151 -75c-6 -2.66699 -34.667 -16.667 -86 -42c-30 -15.333 -51 -23 -63 -23
c-4.66699 0 -9.16699 2.83301 -13.5 8.5s-6.5 10.834 -6.5 15.501c0 5.33301 20.333 18 61 38l108 52c52.667 28 125.334 64.667 218.001 110c68 49.333 132 102.666 192 159.999c97.333 93.333 152.666 140 165.999 140c12.667 0 19 -6 19 -18
c0 -13.333 -15 -34.666 -45 -63.999l-110 -100l-164 -156l-185 -187c-68 -71.333 -102 -116 -102 -134c0 -5.33301 1.33301 -8.33301 4 -9s11.667 -1 27 -1c45.333 0 115 30.333 209 91c88.667 57.333 177.667 127.333 267 210c47.333 43.333 108.666 105.333 183.999 186
c22.667 24 48.834 48.333 78.501 73s47.5 37 53.5 37c5.33301 0 10.166 -2.5 14.499 -7.5s6.5 -10.5 6.5 -16.5c0 -10.667 -14.333 -29 -43 -55c-50.667 -46 -76.667 -69.667 -78 -71l-168 -172c-162.667 -166 -244 -270 -244 -312c0 -16.667 7.33301 -25 22 -25
c34 0 84 12.333 150 37l186 76c23.333 9.33301 67.333 29.333 132 60c48 22.667 76 34 84 34c14.667 0 22 -4.33301 22 -13z" />
    <glyph glyph-name="afii10026" unicode="&#x418;" horiz-adv-x="849" 
d="M972 165c0 -6.66699 -24.6631 -21.334 -73.9961 -44.001l-135 -61l-200 -93c-70 -28.667 -132.333 -43 -187 -43c-12.667 0 -25.834 6.83301 -39.501 20.5s-20.5 26.167 -20.5 37.5c0 8 6 27.333 18 58c14 36 28 64.333 42 85c-44.667 -34 -96 -65.667 -154 -95
c-64.667 -32 -113.334 -48 -146.001 -48c-16.667 0 -31.334 4.33301 -44.001 13c-16.667 10.667 -25 26.667 -25 48c0 18.667 24.333 55.5 73 110.5l147 164.5l-151 -75c-6 -2.66699 -34.667 -16.667 -86 -42c-30 -15.333 -51 -23 -63 -23
c-4.66699 0 -9.16699 2.83301 -13.5 8.5s-6.5 10.834 -6.5 15.501c0 5.33301 20.333 18 61 38l108 52c52.667 28 125.334 64.667 218.001 110c68 49.333 132 102.666 192 159.999c97.333 93.333 152.666 140 165.999 140c12.667 0 19 -6 19 -18
c0 -13.333 -15 -34.666 -45 -63.999l-110 -100l-164 -156l-185 -187c-68 -71.333 -102 -116 -102 -134c0 -5.33301 1.33301 -8.33301 4 -9s11.667 -1 27 -1c45.333 0 115 30.333 209 91c88.667 57.333 177.667 127.333 267 210c47.333 43.333 108.666 105.333 183.999 186
c22.667 24 48.834 48.333 78.501 73s47.5 37 53.5 37c5.33301 0 10.166 -2.5 14.499 -7.5s6.5 -10.5 6.5 -16.5c0 -10.667 -14.333 -29 -43 -55c-50.667 -46 -76.667 -69.667 -78 -71l-168 -172c-162.667 -166 -244 -270 -244 -312c0 -16.667 7.33301 -25 22 -25
c34 0 84 12.333 150 37l186 76c23.333 9.33301 67.333 29.333 132 60c48 22.667 76 34 84 34c14.667 0 22 -4.33301 22 -13z" />
    <glyph glyph-name="afii10027" unicode="&#xc9;" horiz-adv-x="853" 
d="M1046 882c0 -5.33301 -14.999 -18.666 -44.999 -39.999c-42.667 -28.667 -69.667 -47.834 -81 -57.501s-34 -31.167 -68 -64.5c-24 -23.333 -38.333 -35 -43 -35c-17.333 0 -26 5.66699 -26 17c0 14.667 37.667 52 113 112c71.333 56.667 116.666 85 135.999 85
c9.33301 0 14 -5.66699 14 -17zM972.001 165c0 -6.66699 -24.6631 -21.334 -73.9961 -44.001l-135 -61l-200 -93c-70 -28.667 -132.333 -43 -187 -43c-12.667 0 -25.834 6.83301 -39.501 20.5s-20.5 26.167 -20.5 37.5c0 8 6 27.333 18 58c14 36 28 64.333 42 85
c-44.667 -34 -96 -65.667 -154 -95c-64.667 -32 -113.334 -48 -146.001 -48c-16.667 0 -31.334 4.33301 -44.001 13c-16.667 10.667 -25 26.667 -25 48c0 18.667 24.333 55.5 73 110.5l147 164.5l-151 -75c-6 -2.66699 -34.667 -16.667 -86 -42c-30 -15.333 -51 -23 -63 -23
c-4.66699 0 -9.16699 2.83301 -13.5 8.5s-6.5 10.834 -6.5 15.501c0 5.33301 20.333 18 61 38l108 52c52.667 28 125.334 64.667 218.001 110c68 49.333 132 102.666 192 159.999c97.333 93.333 152.666 140 165.999 140c12.667 0 19 -6 19 -18
c0 -13.333 -15 -34.666 -45 -63.999l-110 -100l-164 -156l-185 -187c-68 -71.333 -102 -116 -102 -134c0 -5.33301 1.33301 -8.33301 4 -9s11.667 -1 27 -1c45.333 0 115 30.333 209 91c88.667 57.333 177.667 127.333 267 210c47.333 43.333 108.666 105.333 183.999 186
c22.667 24 48.834 48.333 78.501 73s47.5 37 53.5 37c5.33301 0 10.166 -2.5 14.499 -7.5s6.5 -10.5 6.5 -16.5c0 -10.667 -14.333 -29 -43 -55c-50.667 -46 -76.667 -69.667 -78 -71l-168 -172c-162.667 -166 -244 -270 -244 -312c0 -16.667 7.33301 -25 22 -25
c34 0 84 12.333 150 37l186 76c23.333 9.33301 67.333 29.333 132 60c48 22.667 76 34 84 34c14.667 0 22 -4.33301 22 -13z" />
    <glyph glyph-name="afii10027" unicode="&#x419;" horiz-adv-x="853" 
d="M1046 882c0 -5.33301 -14.999 -18.666 -44.999 -39.999c-42.667 -28.667 -69.667 -47.834 -81 -57.501s-34 -31.167 -68 -64.5c-24 -23.333 -38.333 -35 -43 -35c-17.333 0 -26 5.66699 -26 17c0 14.667 37.667 52 113 112c71.333 56.667 116.666 85 135.999 85
c9.33301 0 14 -5.66699 14 -17zM972.001 165c0 -6.66699 -24.6631 -21.334 -73.9961 -44.001l-135 -61l-200 -93c-70 -28.667 -132.333 -43 -187 -43c-12.667 0 -25.834 6.83301 -39.501 20.5s-20.5 26.167 -20.5 37.5c0 8 6 27.333 18 58c14 36 28 64.333 42 85
c-44.667 -34 -96 -65.667 -154 -95c-64.667 -32 -113.334 -48 -146.001 -48c-16.667 0 -31.334 4.33301 -44.001 13c-16.667 10.667 -25 26.667 -25 48c0 18.667 24.333 55.5 73 110.5l147 164.5l-151 -75c-6 -2.66699 -34.667 -16.667 -86 -42c-30 -15.333 -51 -23 -63 -23
c-4.66699 0 -9.16699 2.83301 -13.5 8.5s-6.5 10.834 -6.5 15.501c0 5.33301 20.333 18 61 38l108 52c52.667 28 125.334 64.667 218.001 110c68 49.333 132 102.666 192 159.999c97.333 93.333 152.666 140 165.999 140c12.667 0 19 -6 19 -18
c0 -13.333 -15 -34.666 -45 -63.999l-110 -100l-164 -156l-185 -187c-68 -71.333 -102 -116 -102 -134c0 -5.33301 1.33301 -8.33301 4 -9s11.667 -1 27 -1c45.333 0 115 30.333 209 91c88.667 57.333 177.667 127.333 267 210c47.333 43.333 108.666 105.333 183.999 186
c22.667 24 48.834 48.333 78.501 73s47.5 37 53.5 37c5.33301 0 10.166 -2.5 14.499 -7.5s6.5 -10.5 6.5 -16.5c0 -10.667 -14.333 -29 -43 -55c-50.667 -46 -76.667 -69.667 -78 -71l-168 -172c-162.667 -166 -244 -270 -244 -312c0 -16.667 7.33301 -25 22 -25
c34 0 84 12.333 150 37l186 76c23.333 9.33301 67.333 29.333 132 60c48 22.667 76 34 84 34c14.667 0 22 -4.33301 22 -13z" />
    <glyph glyph-name="afii10028" unicode="&#xca;" horiz-adv-x="812" 
d="M1006 631c0 -11.333 -82.001 -72.333 -246.001 -183c-70.667 -48 -146.667 -94.667 -228 -140c-68.667 -38.667 -125.667 -68.667 -171 -90c17.333 -35.333 39.666 -69.666 66.999 -102.999c34 -40.667 62.667 -61 86 -61c18 0 71 8.66699 159 26
c20.667 4 53.667 12.333 99 25c36.667 10 58.667 15 66 15c12 0 18 -5 18 -15c0 -14 -55.333 -35.667 -166 -65c-97.333 -26 -161 -39 -191 -39c-24.667 0 -62.667 26.333 -114 79c-7.33301 8 -20.666 25.333 -39.999 52c-13.333 18.667 -23.333 28 -30 28
c-10.667 0 -26.5 -8 -47.5 -24l-63.5 -48c-100 -72 -154.333 -108 -163 -108c-10.667 0 -21.167 5.16699 -31.5 15.5s-15.5 22.166 -15.5 35.499c0 8.66699 25 30.667 75 66c72 50.667 117 83.334 135 98.001c93.333 77.333 199.666 174 318.999 290
c44 42.667 94 94 150 154c10 0 16.667 -1.83301 20 -5.5s5 -10.5 5 -20.5s-17.333 -32.333 -52 -67c-55.333 -56.667 -87 -89.334 -95 -98.001c-31.333 -30 -78.666 -80.667 -141.999 -152c44 15.333 154.333 78.333 331 189c30 18.667 81.333 53.667 154 105
c55.333 40 86 60 92 60c10.667 0 17.334 -6.33301 20.001 -19z" />
    <glyph glyph-name="afii10028" unicode="&#x41a;" horiz-adv-x="812" 
d="M1006 631c0 -11.333 -82.001 -72.333 -246.001 -183c-70.667 -48 -146.667 -94.667 -228 -140c-68.667 -38.667 -125.667 -68.667 -171 -90c17.333 -35.333 39.666 -69.666 66.999 -102.999c34 -40.667 62.667 -61 86 -61c18 0 71 8.66699 159 26
c20.667 4 53.667 12.333 99 25c36.667 10 58.667 15 66 15c12 0 18 -5 18 -15c0 -14 -55.333 -35.667 -166 -65c-97.333 -26 -161 -39 -191 -39c-24.667 0 -62.667 26.333 -114 79c-7.33301 8 -20.666 25.333 -39.999 52c-13.333 18.667 -23.333 28 -30 28
c-10.667 0 -26.5 -8 -47.5 -24l-63.5 -48c-100 -72 -154.333 -108 -163 -108c-10.667 0 -21.167 5.16699 -31.5 15.5s-15.5 22.166 -15.5 35.499c0 8.66699 25 30.667 75 66c72 50.667 117 83.334 135 98.001c93.333 77.333 199.666 174 318.999 290
c44 42.667 94 94 150 154c10 0 16.667 -1.83301 20 -5.5s5 -10.5 5 -20.5s-17.333 -32.333 -52 -67c-55.333 -56.667 -87 -89.334 -95 -98.001c-31.333 -30 -78.666 -80.667 -141.999 -152c44 15.333 154.333 78.333 331 189c30 18.667 81.333 53.667 154 105
c55.333 40 86 60 92 60c10.667 0 17.334 -6.33301 20.001 -19z" />
    <glyph glyph-name="afii10029" unicode="&#xcb;" horiz-adv-x="960" 
d="M1050 637c0 -2 -22.002 -25.9961 -66.002 -71.9961c-49.333 -51.333 -82 -89.666 -98 -114.999c-29.333 -40.667 -74 -107.334 -134 -200.001c-20.667 -33.333 -37.667 -68.333 -51 -105c-11.333 -31.333 -17 -53.333 -17 -66c0 -12 6 -21.333 18 -28
c10 -6.66699 22 -10 36 -10c17.333 0 43.666 5.5 78.999 16.5s64.333 22.667 87 35l68 37c22.667 12.333 37.334 18.5 44.001 18.5c9.33301 0 14 -4.66699 14 -14c0 -6.66699 -10.333 -16.334 -31 -29.001c-7.33301 -4.66699 -35.666 -20.334 -84.999 -47.001
c-44.667 -24.667 -77.667 -41 -99 -49c-28.667 -10.667 -57.667 -16 -87 -16c-28 0 -51.667 8 -71 24s-29 33.667 -29 53c0 10 6.66699 33.333 20 70c15.333 42 32 78.667 50 110l75 117l-98.5 -57l-133.5 -78c-48 -28 -93.667 -51.333 -137 -70
c-161.333 -69.333 -258.666 -104 -291.999 -104c-27.333 0 -51.5 9 -72.5 27s-31.5 34.333 -31.5 49c0 38.667 10.333 58 31 58c26 0 39 -6 39 -18c0 -10 -4.66699 -23.333 -14 -40c16 -9.33301 28 -14.333 36 -15c25.333 -2.66699 66.333 6.66602 123 27.999l159 65
c110 44 206 93.333 288 148c48 32 78 52.333 90 61c28.667 21.333 54 43.666 76 66.999c106.667 114 166.667 171 180 171c22.667 0 34 -7.33301 34 -22z" />
    <glyph glyph-name="afii10029" unicode="&#x41b;" horiz-adv-x="960" 
d="M1050 637c0 -2 -22.002 -25.9961 -66.002 -71.9961c-49.333 -51.333 -82 -89.666 -98 -114.999c-29.333 -40.667 -74 -107.334 -134 -200.001c-20.667 -33.333 -37.667 -68.333 -51 -105c-11.333 -31.333 -17 -53.333 -17 -66c0 -12 6 -21.333 18 -28
c10 -6.66699 22 -10 36 -10c17.333 0 43.666 5.5 78.999 16.5s64.333 22.667 87 35l68 37c22.667 12.333 37.334 18.5 44.001 18.5c9.33301 0 14 -4.66699 14 -14c0 -6.66699 -10.333 -16.334 -31 -29.001c-7.33301 -4.66699 -35.666 -20.334 -84.999 -47.001
c-44.667 -24.667 -77.667 -41 -99 -49c-28.667 -10.667 -57.667 -16 -87 -16c-28 0 -51.667 8 -71 24s-29 33.667 -29 53c0 10 6.66699 33.333 20 70c15.333 42 32 78.667 50 110l75 117l-98.5 -57l-133.5 -78c-48 -28 -93.667 -51.333 -137 -70
c-161.333 -69.333 -258.666 -104 -291.999 -104c-27.333 0 -51.5 9 -72.5 27s-31.5 34.333 -31.5 49c0 38.667 10.333 58 31 58c26 0 39 -6 39 -18c0 -10 -4.66699 -23.333 -14 -40c16 -9.33301 28 -14.333 36 -15c25.333 -2.66699 66.333 6.66602 123 27.999l159 65
c110 44 206 93.333 288 148c48 32 78 52.333 90 61c28.667 21.333 54 43.666 76 66.999c106.667 114 166.667 171 180 171c22.667 0 34 -7.33301 34 -22z" />
    <glyph glyph-name="afii10030" unicode="&#xcc;" horiz-adv-x="1255" 
d="M1326 224c0 -14.667 -16.165 -29.6689 -48.498 -45.002l-97.5 -46c-84.667 -42.667 -139 -64 -163 -64c-8.66699 0 -17.334 4.83301 -26.001 14.5s-13 18.5 -13 26.5c0 22.667 9.33301 52 28 88c8 14.667 30.333 52 67 112c4 6.66699 23.667 33 59 79
c26 34.667 39 57 39 67c0 9.33301 -4.66699 14 -14 14c-8 0 -38 -11.333 -90 -34c-56.667 -25.333 -101.334 -48.333 -134.001 -69c-38 -24 -75.667 -52.667 -113 -86l-99 -91l-76 -71c-31.333 -28.667 -52.333 -43 -63 -43c-7.33301 0 -14.5 2.33301 -21.5 7
s-10.5 10.334 -10.5 17.001c0 12 17 37 51 75c30 33.333 56.667 59 80 77l107 79c42 31.333 72.333 57.333 91 78c75.333 84 113 147.333 113 190c0 20 -4.66699 30 -14 30c-22 0 -74.667 -33 -158 -99l-258 -217c-57.333 -51.333 -141.333 -121.666 -252 -210.999
c-52 -37.333 -104.333 -65.666 -157 -84.999c-38 -14 -68 -21 -90 -21c-20.667 0 -36.334 11.333 -47.001 34c-8.66699 18 -13 38.667 -13 62c0 42 20 63 60 63c19.333 0 32.333 -3.33301 39 -10c4.66699 -4 8.33398 -13.333 11.001 -28c2 -11.333 3.33301 -21.333 4 -30
c0 -6 -0.5 -11.667 -1.5 -17s-1.5 -8.33301 -1.5 -9c16 0 42 9 78 27c38.667 19.333 78.667 44.333 120 75c14 10.667 93 77.334 237 200.001c66 56.667 167 138.667 303 246c70 55.333 120.333 83 151 83c14 0 25.833 -4.83301 35.5 -14.5s14.5 -21.834 14.5 -36.501
c0 -28.667 -10.333 -64.334 -31 -107.001c-28 -58 -42 -87.333 -42 -88c104 46.667 174.667 70 212 70c11.333 0 21 -4.5 29 -13.5s12 -17.5 12 -25.5c0 -14 -11.667 -39 -35 -75l-71 -108c-60 -92 -90 -142 -90 -150c0 -7.33301 5.33301 -11 16 -11c18.667 0 61 16 127 48
l84 42c21.333 11.333 35 17 41 17c14 0 21 -5.33301 21 -16z" />
    <glyph glyph-name="afii10030" unicode="&#x41c;" horiz-adv-x="1255" 
d="M1326 224c0 -14.667 -16.165 -29.6689 -48.498 -45.002l-97.5 -46c-84.667 -42.667 -139 -64 -163 -64c-8.66699 0 -17.334 4.83301 -26.001 14.5s-13 18.5 -13 26.5c0 22.667 9.33301 52 28 88c8 14.667 30.333 52 67 112c4 6.66699 23.667 33 59 79
c26 34.667 39 57 39 67c0 9.33301 -4.66699 14 -14 14c-8 0 -38 -11.333 -90 -34c-56.667 -25.333 -101.334 -48.333 -134.001 -69c-38 -24 -75.667 -52.667 -113 -86l-99 -91l-76 -71c-31.333 -28.667 -52.333 -43 -63 -43c-7.33301 0 -14.5 2.33301 -21.5 7
s-10.5 10.334 -10.5 17.001c0 12 17 37 51 75c30 33.333 56.667 59 80 77l107 79c42 31.333 72.333 57.333 91 78c75.333 84 113 147.333 113 190c0 20 -4.66699 30 -14 30c-22 0 -74.667 -33 -158 -99l-258 -217c-57.333 -51.333 -141.333 -121.666 -252 -210.999
c-52 -37.333 -104.333 -65.666 -157 -84.999c-38 -14 -68 -21 -90 -21c-20.667 0 -36.334 11.333 -47.001 34c-8.66699 18 -13 38.667 -13 62c0 42 20 63 60 63c19.333 0 32.333 -3.33301 39 -10c4.66699 -4 8.33398 -13.333 11.001 -28c2 -11.333 3.33301 -21.333 4 -30
c0 -6 -0.5 -11.667 -1.5 -17s-1.5 -8.33301 -1.5 -9c16 0 42 9 78 27c38.667 19.333 78.667 44.333 120 75c14 10.667 93 77.334 237 200.001c66 56.667 167 138.667 303 246c70 55.333 120.333 83 151 83c14 0 25.833 -4.83301 35.5 -14.5s14.5 -21.834 14.5 -36.501
c0 -28.667 -10.333 -64.334 -31 -107.001c-28 -58 -42 -87.333 -42 -88c104 46.667 174.667 70 212 70c11.333 0 21 -4.5 29 -13.5s12 -17.5 12 -25.5c0 -14 -11.667 -39 -35 -75l-71 -108c-60 -92 -90 -142 -90 -150c0 -7.33301 5.33301 -11 16 -11c18.667 0 61 16 127 48
l84 42c21.333 11.333 35 17 41 17c14 0 21 -5.33301 21 -16z" />
    <glyph glyph-name="afii10031" unicode="&#xcd;" horiz-adv-x="655" 
d="M738 227c0 -14 -45.6719 -49.3359 -137.005 -106.003c-81.333 -50.667 -140.333 -76 -177 -76c-21.333 0 -39.833 7.83301 -55.5 23.5s-23.5 33.167 -23.5 52.5c0 20.667 12 62.667 36 126c-22 10.667 -48.667 14 -80 10c-26 -3.33301 -49.667 -12.666 -71 -27.999
c-12 -9.33301 -30.667 -27.333 -56 -54c-10 -10.667 -38 -47 -84 -109c-33.333 -45.333 -55.666 -68 -66.999 -68c-15.333 0 -23 5.33301 -23 16c0 12 12 41 36 87l76 146c-4 1.33301 -8.5 4.83301 -13.5 10.5s-7.5 11.5 -7.5 17.5c0 2.66699 0.666992 5.33398 2 8.00098
c12 19.333 44 54 96 104c68 66.667 110.667 109.334 128 128.001c116.667 126.667 182.334 190 197.001 190c11.333 0 17 -6.33301 17 -19c0 -18.667 -25 -54.667 -75 -108l-125 -127c-55.333 -58.667 -93.666 -112 -114.999 -160c10 0 28.667 2.66699 56 8s44.333 8 51 8
c3.33301 0 15.666 -2.66699 36.999 -8s37.333 -8 48 -8c36 52 72.333 98 109 138c84.667 92 135.334 138 152.001 138c8.66699 0 13 -3.66699 13 -11c0 -5.33301 -15.333 -24.333 -46 -57c-41.333 -44 -68.666 -74 -81.999 -90l-58 -68.5
c-19.333 -23 -35.333 -46.167 -48 -69.5c-34.667 -62.667 -52 -106.667 -52 -132c0 -13.333 4 -24.333 12 -33s17 -13 27 -13c36.667 0 87.334 20 152.001 60l84.5 55c29 18.667 46.5 28 52.5 28c9.33301 0 14 -3 14 -9z" />
    <glyph glyph-name="afii10031" unicode="&#x41d;" horiz-adv-x="655" 
d="M738 227c0 -14 -45.6719 -49.3359 -137.005 -106.003c-81.333 -50.667 -140.333 -76 -177 -76c-21.333 0 -39.833 7.83301 -55.5 23.5s-23.5 33.167 -23.5 52.5c0 20.667 12 62.667 36 126c-22 10.667 -48.667 14 -80 10c-26 -3.33301 -49.667 -12.666 -71 -27.999
c-12 -9.33301 -30.667 -27.333 -56 -54c-10 -10.667 -38 -47 -84 -109c-33.333 -45.333 -55.666 -68 -66.999 -68c-15.333 0 -23 5.33301 -23 16c0 12 12 41 36 87l76 146c-4 1.33301 -8.5 4.83301 -13.5 10.5s-7.5 11.5 -7.5 17.5c0 2.66699 0.666992 5.33398 2 8.00098
c12 19.333 44 54 96 104c68 66.667 110.667 109.334 128 128.001c116.667 126.667 182.334 190 197.001 190c11.333 0 17 -6.33301 17 -19c0 -18.667 -25 -54.667 -75 -108l-125 -127c-55.333 -58.667 -93.666 -112 -114.999 -160c10 0 28.667 2.66699 56 8s44.333 8 51 8
c3.33301 0 15.666 -2.66699 36.999 -8s37.333 -8 48 -8c36 52 72.333 98 109 138c84.667 92 135.334 138 152.001 138c8.66699 0 13 -3.66699 13 -11c0 -5.33301 -15.333 -24.333 -46 -57c-41.333 -44 -68.666 -74 -81.999 -90l-58 -68.5
c-19.333 -23 -35.333 -46.167 -48 -69.5c-34.667 -62.667 -52 -106.667 -52 -132c0 -13.333 4 -24.333 12 -33s17 -13 27 -13c36.667 0 87.334 20 152.001 60l84.5 55c29 18.667 46.5 28 52.5 28c9.33301 0 14 -3 14 -9z" />
    <glyph glyph-name="afii10032" unicode="&#xce;" horiz-adv-x="691" 
d="M855 456c-3.33301 -50.667 -41.6689 -112.669 -115.002 -186.002c-76 -76 -166 -139.667 -270 -191c-118 -58.667 -231 -88 -339 -88c-87.333 0 -131 40.667 -131 122c0 22.667 18.333 60.334 55 113.001c33.333 46.667 67.666 87 102.999 121
c-27.333 -13.333 -71.666 -33.666 -132.999 -60.999c-13.333 -5.33301 -39.333 -19 -78 -41c-29.333 -17.333 -49.333 -26 -60 -26c-2 0 -4 2 -6 6s-3.33301 6.5 -4 7.5s-1 2.5 -1 4.5c0 20 49.667 52 149 96c78 34.667 170 72 276 112c33.333 24.667 78.333 53.667 135 87
c63.333 38 102 57 116 57c10 0 15 -6 15 -18c0 -4.66699 -5 -10.667 -15 -18c-15.333 -11.333 -25.666 -20 -30.999 -26c98.667 20.667 158.334 31 179.001 31c108 0 159.667 -34 155 -102zM808.997 444.998c0 46 -36.333 69 -109 69c-62 0 -127.333 -14 -196 -42l-188 -86
c-94 -76 -149.667 -123 -167 -141c-60.667 -60 -91 -113.667 -91 -161c0 -36.667 37.667 -53.667 113 -51c76 2.66699 167 31 273 85c95.333 49.333 180 106.833 254 172.5s111 117.167 111 154.5z" />
    <glyph glyph-name="afii10032" unicode="&#x41e;" horiz-adv-x="691" 
d="M855 456c-3.33301 -50.667 -41.6689 -112.669 -115.002 -186.002c-76 -76 -166 -139.667 -270 -191c-118 -58.667 -231 -88 -339 -88c-87.333 0 -131 40.667 -131 122c0 22.667 18.333 60.334 55 113.001c33.333 46.667 67.666 87 102.999 121
c-27.333 -13.333 -71.666 -33.666 -132.999 -60.999c-13.333 -5.33301 -39.333 -19 -78 -41c-29.333 -17.333 -49.333 -26 -60 -26c-2 0 -4 2 -6 6s-3.33301 6.5 -4 7.5s-1 2.5 -1 4.5c0 20 49.667 52 149 96c78 34.667 170 72 276 112c33.333 24.667 78.333 53.667 135 87
c63.333 38 102 57 116 57c10 0 15 -6 15 -18c0 -4.66699 -5 -10.667 -15 -18c-15.333 -11.333 -25.666 -20 -30.999 -26c98.667 20.667 158.334 31 179.001 31c108 0 159.667 -34 155 -102zM808.997 444.998c0 46 -36.333 69 -109 69c-62 0 -127.333 -14 -196 -42l-188 -86
c-94 -76 -149.667 -123 -167 -141c-60.667 -60 -91 -113.667 -91 -161c0 -36.667 37.667 -53.667 113 -51c76 2.66699 167 31 273 85c95.333 49.333 180 106.833 254 172.5s111 117.167 111 154.5z" />
    <glyph glyph-name="afii10033" unicode="&#xcf;" horiz-adv-x="648" 
d="M714 140c0 -59.333 -44.002 -102.665 -132.002 -129.998c-76 -24 -152.333 -30 -229 -18c-26 4 -39 17 -39 39c0 18 28 57.667 84 119c44.667 49.333 84.667 89.333 120 120c95.333 83.333 143 137.666 143 162.999c0 11.333 -4 17 -12 17c-23.333 0 -60 -9 -110 -27
c-39.333 -14.667 -73.666 -29.667 -102.999 -45c-66.667 -34.667 -152 -94.667 -256 -180c-9.33301 -7.33301 -37.666 -33.333 -84.999 -78c-35.333 -32 -55.666 -48 -60.999 -48c-13.333 0 -20 7.66699 -20 23c0 10 44 55 132 135
c44.667 37.333 107.334 92.666 188.001 165.999l164 157c61.333 58 92 91.667 92 101s-4 14 -12 14c-10.667 0 -58.334 -26 -143.001 -78c-122 -76 -199.667 -123.333 -233 -142c-80.667 -46 -161.334 -94.667 -242.001 -146c-100 -64 -154 -96 -162 -96c-12 0 -18 3 -18 9
c0 18 136 109 408 273l241 147c87.333 50.667 144 76 170 76c10.667 0 20 -3.16699 28 -9.5s12 -14.5 12 -24.5c0 -25.333 -22.333 -64.333 -67 -117l-100 -112c24 8 59 18 105 30c54.667 13.333 89.667 20 105 20c21.333 0 32 -16.667 32 -50
c0 -40.667 -55.167 -113.167 -165.5 -217.5s-165.5 -162.5 -165.5 -174.5c0 -5.33301 5 -8 15 -8c29.333 0 79.333 15.667 150 47c86.667 38.667 136 58 148 58s18 -4.33301 18 -13z" />
    <glyph glyph-name="afii10033" unicode="&#x41f;" horiz-adv-x="648" 
d="M714 140c0 -59.333 -44.002 -102.665 -132.002 -129.998c-76 -24 -152.333 -30 -229 -18c-26 4 -39 17 -39 39c0 18 28 57.667 84 119c44.667 49.333 84.667 89.333 120 120c95.333 83.333 143 137.666 143 162.999c0 11.333 -4 17 -12 17c-23.333 0 -60 -9 -110 -27
c-39.333 -14.667 -73.666 -29.667 -102.999 -45c-66.667 -34.667 -152 -94.667 -256 -180c-9.33301 -7.33301 -37.666 -33.333 -84.999 -78c-35.333 -32 -55.666 -48 -60.999 -48c-13.333 0 -20 7.66699 -20 23c0 10 44 55 132 135
c44.667 37.333 107.334 92.666 188.001 165.999l164 157c61.333 58 92 91.667 92 101s-4 14 -12 14c-10.667 0 -58.334 -26 -143.001 -78c-122 -76 -199.667 -123.333 -233 -142c-80.667 -46 -161.334 -94.667 -242.001 -146c-100 -64 -154 -96 -162 -96c-12 0 -18 3 -18 9
c0 18 136 109 408 273l241 147c87.333 50.667 144 76 170 76c10.667 0 20 -3.16699 28 -9.5s12 -14.5 12 -24.5c0 -25.333 -22.333 -64.333 -67 -117l-100 -112c24 8 59 18 105 30c54.667 13.333 89.667 20 105 20c21.333 0 32 -16.667 32 -50
c0 -40.667 -55.167 -113.167 -165.5 -217.5s-165.5 -162.5 -165.5 -174.5c0 -5.33301 5 -8 15 -8c29.333 0 79.333 15.667 150 47c86.667 38.667 136 58 148 58s18 -4.33301 18 -13z" />
    <glyph glyph-name="afii10034" unicode="&#xd0;" horiz-adv-x="556" 
d="M847 641c0 -61.333 -49.6689 -138.334 -149.002 -231.001c-28.667 -26.667 -69 -56.667 -121 -90c-48.667 -30.667 -78 -46 -88 -46c-7.33301 0 -11 5.66699 -11 17c0 4 27 25.333 81 64c62 44.667 101.333 75.334 118 92.001c70 70 105 132.333 105 187
c0 24.667 -22.333 40 -67 46c-8 1.33301 -16 2 -24 2c-60 0 -131 -24 -213 -72c-51.333 -30 -98 -65 -140 -105c-44.667 -42.667 -69 -77.334 -73 -104.001c-2 -11.333 4 -20.666 18 -27.999c12 -6 24 -9 36 -9c12.667 0 30.334 6.66699 53.001 20l63 40
c21.333 13.333 53.666 38.666 96.999 75.999c35.333 30 56.333 45 63 45c15.333 0 23 -10.333 23 -31c0 -20 -43 -65 -129 -135l-250 -203c-25.333 -20 -68.666 -59 -129.999 -117c-49.333 -46.667 -76.666 -70 -81.999 -70c-17.333 0 -26 9.33301 -26 28
c0 8.66699 22.333 32.334 67 71.001l124 106l138 121c-82.667 0 -124 28.667 -124 86c0 30 27.667 71.333 83 124c53.333 50.667 112.333 93 177 127c96.667 51.333 179.667 77 249 77c16 0 39 -6.33301 69 -19c42 -18 63 -41 63 -69z" />
    <glyph glyph-name="afii10034" unicode="&#x420;" horiz-adv-x="556" 
d="M847 641c0 -61.333 -49.6689 -138.334 -149.002 -231.001c-28.667 -26.667 -69 -56.667 -121 -90c-48.667 -30.667 -78 -46 -88 -46c-7.33301 0 -11 5.66699 -11 17c0 4 27 25.333 81 64c62 44.667 101.333 75.334 118 92.001c70 70 105 132.333 105 187
c0 24.667 -22.333 40 -67 46c-8 1.33301 -16 2 -24 2c-60 0 -131 -24 -213 -72c-51.333 -30 -98 -65 -140 -105c-44.667 -42.667 -69 -77.334 -73 -104.001c-2 -11.333 4 -20.666 18 -27.999c12 -6 24 -9 36 -9c12.667 0 30.334 6.66699 53.001 20l63 40
c21.333 13.333 53.666 38.666 96.999 75.999c35.333 30 56.333 45 63 45c15.333 0 23 -10.333 23 -31c0 -20 -43 -65 -129 -135l-250 -203c-25.333 -20 -68.666 -59 -129.999 -117c-49.333 -46.667 -76.666 -70 -81.999 -70c-17.333 0 -26 9.33301 -26 28
c0 8.66699 22.333 32.334 67 71.001l124 106l138 121c-82.667 0 -124 28.667 -124 86c0 30 27.667 71.333 83 124c53.333 50.667 112.333 93 177 127c96.667 51.333 179.667 77 249 77c16 0 39 -6.33301 69 -19c42 -18 63 -41 63 -69z" />
    <glyph glyph-name="afii10035" unicode="&#xd1;" horiz-adv-x="566" 
d="M763 593c0 -43.333 -28.833 -91.4961 -86.5 -144.496s-105.5 -79.5 -143.5 -79.5c-15.333 0 -28.333 3.66699 -39 11c-12.667 8 -19 18.667 -19 32c0 32.667 25.667 58 77 76c6.66699 2 12.5 -4.5 17.5 -19.5s10.833 -22.5 17.5 -22.5c13.333 0 34.666 13.667 63.999 41
c32 30.667 48 58 48 82c0 7.33301 -3.5 13.833 -10.5 19.5s-12.833 8.5 -17.5 8.5c-13.333 0 -39 -8.66699 -77 -26c-55.333 -24.667 -110.333 -58.334 -165 -101.001c-82.667 -64.667 -159 -132.667 -229 -204c-87.333 -88.667 -131 -153.667 -131 -195
c0 -4.66699 2.66699 -9.33398 8 -14.001s10.666 -7 15.999 -7c47.333 0 147.333 17.667 300 53c51.333 12 121.333 31.667 210 59c78.667 24.667 118.334 37 119.001 37c16.667 0 25 -5.33301 25 -16c0 -8 -37.333 -24.667 -112 -50c-64 -21.333 -133.333 -42 -208 -62
c-167.333 -44.667 -285.333 -67 -354 -67c-45.333 0 -68 22.333 -68 67c0 16 12.333 43.333 37 82c29.333 46 69.666 95.667 120.999 149c62.667 65.333 155.334 144.666 278.001 237.999c38.667 29.333 86.334 55.666 143.001 78.999c50.667 20.667 87.667 31 111 31
c45.333 0 68 -19 68 -57z" />
    <glyph glyph-name="afii10035" unicode="&#x421;" horiz-adv-x="566" 
d="M763 593c0 -43.333 -28.833 -91.4961 -86.5 -144.496s-105.5 -79.5 -143.5 -79.5c-15.333 0 -28.333 3.66699 -39 11c-12.667 8 -19 18.667 -19 32c0 32.667 25.667 58 77 76c6.66699 2 12.5 -4.5 17.5 -19.5s10.833 -22.5 17.5 -22.5c13.333 0 34.666 13.667 63.999 41
c32 30.667 48 58 48 82c0 7.33301 -3.5 13.833 -10.5 19.5s-12.833 8.5 -17.5 8.5c-13.333 0 -39 -8.66699 -77 -26c-55.333 -24.667 -110.333 -58.334 -165 -101.001c-82.667 -64.667 -159 -132.667 -229 -204c-87.333 -88.667 -131 -153.667 -131 -195
c0 -4.66699 2.66699 -9.33398 8 -14.001s10.666 -7 15.999 -7c47.333 0 147.333 17.667 300 53c51.333 12 121.333 31.667 210 59c78.667 24.667 118.334 37 119.001 37c16.667 0 25 -5.33301 25 -16c0 -8 -37.333 -24.667 -112 -50c-64 -21.333 -133.333 -42 -208 -62
c-167.333 -44.667 -285.333 -67 -354 -67c-45.333 0 -68 22.333 -68 67c0 16 12.333 43.333 37 82c29.333 46 69.666 95.667 120.999 149c62.667 65.333 155.334 144.666 278.001 237.999c38.667 29.333 86.334 55.666 143.001 78.999c50.667 20.667 87.667 31 111 31
c45.333 0 68 -19 68 -57z" />
    <glyph glyph-name="afii10036" unicode="&#xd2;" horiz-adv-x="1255" 
d="M1431 199c0 -8.66699 -16.3301 -18.667 -48.9971 -30c-1.33301 -0.666992 -35 -11.334 -101 -32.001l-174 -56c-63.333 -18.667 -114.333 -28 -153 -28c-10.667 0 -21.5 5.5 -32.5 16.5s-16.5 23.833 -16.5 38.5c0 7.33301 26.667 46.5 80 117.5s80 113.167 80 126.5
s-7.66699 20 -23 20c-18.667 0 -62.667 -19.667 -132 -59c-74.667 -41.333 -133.667 -81.333 -177 -120c-14.667 -13.333 -56 -54 -124 -122c-41.333 -41.333 -68.333 -62 -81 -62c-8 0 -12 4.33301 -12 13c0 18 19.667 47.333 59 88l126 122
c34.667 36 64.667 73.667 90 113c28.667 44 43 78.333 43 103c0 10.667 -0.833008 17.834 -2.5 21.501s-6.5 5.5 -14.5 5.5c-17.333 0 -63.333 -23 -138 -69c-80.667 -48.667 -158.334 -102.667 -233.001 -162c-32 -25.333 -98 -83 -198 -173
c-76.667 -69.333 -119.334 -104 -128.001 -104c-4 0 -8 2.66699 -12 8s-6 9.66602 -6 12.999c0 8.66699 30.333 39.667 91 93c87.333 76 156.333 140 207 192c36.667 35.333 90 89.666 160 162.999c18.667 21.333 35 44 49 68c12.667 21.333 19 35 19 41
c0 7.33301 -2.83301 14.333 -8.5 21s-12.167 10 -19.5 10c-44 0 -132.667 -33.667 -266 -101c-52.667 -26.667 -122.667 -68 -210 -124c-66 -42.667 -105 -64 -117 -64c-2 0 -4 5.66699 -6 17c-4 10.667 32 40 108 88c70.667 45.333 141.334 85.333 212.001 120
c160 78.667 266.333 118 319 118c22.667 0 38.167 -3.66699 46.5 -11s12.5 -21 12.5 -41c0 -8.66699 -6.66699 -26 -20 -52l-40 -78c94.667 52 165 78 211 78c15.333 0 28.333 -5.33301 39 -16s16 -22 16 -34c0 -26.667 -11.333 -64.667 -34 -114
c33.333 16 75.666 31.333 126.999 46c49.333 14 84.333 21 105 21c11.333 0 20.833 -3.66699 28.5 -11s11.5 -16.666 11.5 -27.999c0 -20 -29.333 -67.167 -88 -141.5s-88 -118.166 -88 -131.499c0 -12 7 -18 21 -18c35.333 0 129.666 24.333 282.999 73
c90 28.667 139 43 147 43c8.66699 0 13 -5.33301 13 -16z" />
    <glyph glyph-name="afii10036" unicode="&#x422;" horiz-adv-x="1255" 
d="M1431 199c0 -8.66699 -16.3301 -18.667 -48.9971 -30c-1.33301 -0.666992 -35 -11.334 -101 -32.001l-174 -56c-63.333 -18.667 -114.333 -28 -153 -28c-10.667 0 -21.5 5.5 -32.5 16.5s-16.5 23.833 -16.5 38.5c0 7.33301 26.667 46.5 80 117.5s80 113.167 80 126.5
s-7.66699 20 -23 20c-18.667 0 -62.667 -19.667 -132 -59c-74.667 -41.333 -133.667 -81.333 -177 -120c-14.667 -13.333 -56 -54 -124 -122c-41.333 -41.333 -68.333 -62 -81 -62c-8 0 -12 4.33301 -12 13c0 18 19.667 47.333 59 88l126 122
c34.667 36 64.667 73.667 90 113c28.667 44 43 78.333 43 103c0 10.667 -0.833008 17.834 -2.5 21.501s-6.5 5.5 -14.5 5.5c-17.333 0 -63.333 -23 -138 -69c-80.667 -48.667 -158.334 -102.667 -233.001 -162c-32 -25.333 -98 -83 -198 -173
c-76.667 -69.333 -119.334 -104 -128.001 -104c-4 0 -8 2.66699 -12 8s-6 9.66602 -6 12.999c0 8.66699 30.333 39.667 91 93c87.333 76 156.333 140 207 192c36.667 35.333 90 89.666 160 162.999c18.667 21.333 35 44 49 68c12.667 21.333 19 35 19 41
c0 7.33301 -2.83301 14.333 -8.5 21s-12.167 10 -19.5 10c-44 0 -132.667 -33.667 -266 -101c-52.667 -26.667 -122.667 -68 -210 -124c-66 -42.667 -105 -64 -117 -64c-2 0 -4 5.66699 -6 17c-4 10.667 32 40 108 88c70.667 45.333 141.334 85.333 212.001 120
c160 78.667 266.333 118 319 118c22.667 0 38.167 -3.66699 46.5 -11s12.5 -21 12.5 -41c0 -8.66699 -6.66699 -26 -20 -52l-40 -78c94.667 52 165 78 211 78c15.333 0 28.333 -5.33301 39 -16s16 -22 16 -34c0 -26.667 -11.333 -64.667 -34 -114
c33.333 16 75.666 31.333 126.999 46c49.333 14 84.333 21 105 21c11.333 0 20.833 -3.66699 28.5 -11s11.5 -16.666 11.5 -27.999c0 -20 -29.333 -67.167 -88 -141.5s-88 -118.166 -88 -131.499c0 -12 7 -18 21 -18c35.333 0 129.666 24.333 282.999 73
c90 28.667 139 43 147 43c8.66699 0 13 -5.33301 13 -16z" />
    <glyph glyph-name="afii10037" unicode="&#xd3;" horiz-adv-x="382" 
d="M663 621c0 -10 -28.6689 -44.0039 -86.002 -102.004c-76 -77.333 -121.667 -125 -137 -143c-58.667 -69.333 -104 -131.666 -136 -186.999l-56 -107l107 51l69.5 32c23.667 10.667 40.167 16 49.5 16c20 0 30 -5.33301 30 -16c0 -8.66699 -10.333 -17.334 -31 -26.001
c-67.333 -27.333 -126 -52.666 -176 -75.999l-50 -24c-13.333 -8 -45.333 -29 -96 -63l-152 -208c-76 -102 -147.667 -186 -215 -252c-105.333 -103.333 -165 -161.333 -179 -174c-66.667 -60 -113 -90 -139 -90c-13.333 0 -25 4.83301 -35 14.5s-15 20.834 -15 33.501
c0 21.333 24.667 62.333 74 123c41.333 51.333 91 106 149 164c53.333 53.333 113 108.333 179 165l195 164c29.333 23.333 80.333 66.333 153 129c57.333 74 108.333 161 153 261c-69.333 -49.333 -125.333 -74 -168 -74c-9.33301 0 -19 4.16699 -29 12.5
s-15 16.833 -15 25.5c0 15.333 11 39 33 71l75 101c58 78.667 87 129.667 87 153c0 14.667 0.333008 20.334 1 17.001c-1.33301 6 -5.66602 9 -12.999 9c-17.333 0 -53 -13.333 -107 -40c-59.333 -29.333 -116 -63 -170 -101c-45.333 -32 -104.666 -83.667 -177.999 -155
c-62.667 -62 -95.667 -93 -99 -93c-12 0 -18 8.66699 -18 26c0 6.66699 31.667 40.334 95 101.001c66.667 64 124.834 115.167 174.501 153.5s107.834 72.5 174.501 102.5c62.667 28.667 107.667 43 135 43c38.667 0 58 -17.667 58 -53c0 -38.667 -31 -95.334 -93 -170.001
c-22.667 -27.333 -46.334 -59 -71.001 -95c-22 -31.333 -33 -48.666 -33 -51.999c0 -12 6.66699 -18 20 -18c17.333 0 55.333 22.667 114 68c51.333 40.667 105.666 88 162.999 142c119.333 113.333 181.333 170 186 170c14.667 0 22 -9.66699 22 -29zM35.998 -114.004
c-39.333 -28.667 -95.667 -75 -169 -139c-78.667 -68.667 -143.667 -128.667 -195 -180c-156 -155.333 -228.333 -244.333 -217 -267c2.66699 -6 9.66699 -9 21 -9c16.667 0 50.667 24 102 72l167 162c100.667 98 197.667 218.333 291 361z" />
    <glyph glyph-name="afii10037" unicode="&#x423;" horiz-adv-x="382" 
d="M663 621c0 -10 -28.6689 -44.0039 -86.002 -102.004c-76 -77.333 -121.667 -125 -137 -143c-58.667 -69.333 -104 -131.666 -136 -186.999l-56 -107l107 51l69.5 32c23.667 10.667 40.167 16 49.5 16c20 0 30 -5.33301 30 -16c0 -8.66699 -10.333 -17.334 -31 -26.001
c-67.333 -27.333 -126 -52.666 -176 -75.999l-50 -24c-13.333 -8 -45.333 -29 -96 -63l-152 -208c-76 -102 -147.667 -186 -215 -252c-105.333 -103.333 -165 -161.333 -179 -174c-66.667 -60 -113 -90 -139 -90c-13.333 0 -25 4.83301 -35 14.5s-15 20.834 -15 33.501
c0 21.333 24.667 62.333 74 123c41.333 51.333 91 106 149 164c53.333 53.333 113 108.333 179 165l195 164c29.333 23.333 80.333 66.333 153 129c57.333 74 108.333 161 153 261c-69.333 -49.333 -125.333 -74 -168 -74c-9.33301 0 -19 4.16699 -29 12.5
s-15 16.833 -15 25.5c0 15.333 11 39 33 71l75 101c58 78.667 87 129.667 87 153c0 14.667 0.333008 20.334 1 17.001c-1.33301 6 -5.66602 9 -12.999 9c-17.333 0 -53 -13.333 -107 -40c-59.333 -29.333 -116 -63 -170 -101c-45.333 -32 -104.666 -83.667 -177.999 -155
c-62.667 -62 -95.667 -93 -99 -93c-12 0 -18 8.66699 -18 26c0 6.66699 31.667 40.334 95 101.001c66.667 64 124.834 115.167 174.501 153.5s107.834 72.5 174.501 102.5c62.667 28.667 107.667 43 135 43c38.667 0 58 -17.667 58 -53c0 -38.667 -31 -95.334 -93 -170.001
c-22.667 -27.333 -46.334 -59 -71.001 -95c-22 -31.333 -33 -48.666 -33 -51.999c0 -12 6.66699 -18 20 -18c17.333 0 55.333 22.667 114 68c51.333 40.667 105.666 88 162.999 142c119.333 113.333 181.333 170 186 170c14.667 0 22 -9.66699 22 -29zM35.998 -114.004
c-39.333 -28.667 -95.667 -75 -169 -139c-78.667 -68.667 -143.667 -128.667 -195 -180c-156 -155.333 -228.333 -244.333 -217 -267c2.66699 -6 9.66699 -9 21 -9c16.667 0 50.667 24 102 72l167 162c100.667 98 197.667 218.333 291 361z" />
    <glyph glyph-name="afii10038" unicode="&#xd4;" horiz-adv-x="977" 
d="M1029 125c0 -9.33301 -7.66699 -17.0068 -23 -23.0068s-30.333 -11.333 -45 -16c-65.333 -26.667 -119.333 -40 -162 -40c-18.667 0 -35.334 2.33301 -50.001 7c-14.667 -13.333 -26.834 -21.666 -36.501 -24.999s-24.834 -5 -45.501 -5
c-11.333 0 -26.166 7.66699 -44.499 23s-27.5 28.666 -27.5 39.999c0 10.667 4.66699 19.834 14 27.501s20 11.5 32 11.5c4 0 11.167 -3.83301 21.5 -11.5s20.833 -11.5 31.5 -11.5l17 -2c6 -1.33301 10.333 -0.666016 13 2.00098c10.667 14 20 41 28 81
c8 37.333 12 71 12 101c0 11.333 -2.33301 23.166 -7 35.499s-9.66699 18.5 -15 18.5c-10.667 0 -42 -28 -94 -84c-33.333 -36 -60.333 -74.667 -81 -116l-49 -100l-28 -97c-16 -53.333 -32 -97.666 -48 -132.999l-52 -132c-20.667 -46.667 -42.667 -70 -66 -70
c-14 0 -21 8.66699 -21 26c0 16.667 17.333 71.334 52 164.001c25.333 67.333 43.666 113.333 54.999 138c19.333 43.333 43.333 86 72 128l87 295c14.667 44.667 31.334 105.334 50.001 182.001c-20 -25.333 -53 -72.666 -99 -141.999
c-43.333 -64.667 -77.333 -112.334 -102 -143.001c-73.333 -90 -124 -147.333 -152 -172c-57.333 -50.667 -116 -76 -176 -76c-28 0 -50.333 13.333 -67 40c-14 22.667 -21 49 -21 79c0 26.667 7.33301 67.334 22 122.001c16 58.667 35.333 113.334 58 164.001
c44 98 88.667 171.333 134 220c57.333 61.333 107 92 149 92c16.667 0 31.334 -5 44.001 -15c15.333 -12 23 -27.333 23 -46c0 -62 -19.333 -134.667 -58 -218c-10 -22 -29.667 -51.167 -59 -87.5s-47.666 -54.5 -54.999 -54.5c-9.33301 0 -14 2.66699 -14 8
c0 9.33301 12.333 32 37 68c29.333 42.667 48.666 76 57.999 100c26.667 69.333 40 124 40 164c0 21.333 -8.66699 32 -26 32c-16.667 0 -37 -8.33301 -61 -25c-26 -18 -48.667 -40.667 -68 -68c-49.333 -70 -88 -142 -116 -216c-16 -42 -29.667 -88.667 -41 -140
c-10.667 -46.667 -16 -80 -16 -100c0 -42 19 -63 57 -63c74 0 171.667 80 293 240c55.333 72.667 110.666 151.667 165.999 237c62 95.333 103.667 143 125 143c11.333 0 17 -6.33301 17 -19c0 -3.33301 -0.333008 -6.66602 -1 -9.99902
c-3.33301 -16 -9.66602 -36.333 -18.999 -61l-24 -69c-18 -66.667 -44.667 -158.667 -80 -276c78 91.333 129.667 137 155 137c16.667 0 31.167 -8.33301 43.5 -25s18.5 -35.667 18.5 -57c0 -32 -3.66699 -70.167 -11 -114.5s-14.666 -72.833 -21.999 -85.5
c7.33301 -5.33301 18.333 -8 33 -8c28 0 75 9.66699 141 29c6.66699 2 19 7.33301 37 16c14 6 25 9 33 9c9.33301 0 14 -7.66699 14 -23z" />
    <glyph glyph-name="afii10038" unicode="&#x424;" horiz-adv-x="977" 
d="M1029 125c0 -9.33301 -7.66699 -17.0068 -23 -23.0068s-30.333 -11.333 -45 -16c-65.333 -26.667 -119.333 -40 -162 -40c-18.667 0 -35.334 2.33301 -50.001 7c-14.667 -13.333 -26.834 -21.666 -36.501 -24.999s-24.834 -5 -45.501 -5
c-11.333 0 -26.166 7.66699 -44.499 23s-27.5 28.666 -27.5 39.999c0 10.667 4.66699 19.834 14 27.501s20 11.5 32 11.5c4 0 11.167 -3.83301 21.5 -11.5s20.833 -11.5 31.5 -11.5l17 -2c6 -1.33301 10.333 -0.666016 13 2.00098c10.667 14 20 41 28 81
c8 37.333 12 71 12 101c0 11.333 -2.33301 23.166 -7 35.499s-9.66699 18.5 -15 18.5c-10.667 0 -42 -28 -94 -84c-33.333 -36 -60.333 -74.667 -81 -116l-49 -100l-28 -97c-16 -53.333 -32 -97.666 -48 -132.999l-52 -132c-20.667 -46.667 -42.667 -70 -66 -70
c-14 0 -21 8.66699 -21 26c0 16.667 17.333 71.334 52 164.001c25.333 67.333 43.666 113.333 54.999 138c19.333 43.333 43.333 86 72 128l87 295c14.667 44.667 31.334 105.334 50.001 182.001c-20 -25.333 -53 -72.666 -99 -141.999
c-43.333 -64.667 -77.333 -112.334 -102 -143.001c-73.333 -90 -124 -147.333 -152 -172c-57.333 -50.667 -116 -76 -176 -76c-28 0 -50.333 13.333 -67 40c-14 22.667 -21 49 -21 79c0 26.667 7.33301 67.334 22 122.001c16 58.667 35.333 113.334 58 164.001
c44 98 88.667 171.333 134 220c57.333 61.333 107 92 149 92c16.667 0 31.334 -5 44.001 -15c15.333 -12 23 -27.333 23 -46c0 -62 -19.333 -134.667 -58 -218c-10 -22 -29.667 -51.167 -59 -87.5s-47.666 -54.5 -54.999 -54.5c-9.33301 0 -14 2.66699 -14 8
c0 9.33301 12.333 32 37 68c29.333 42.667 48.666 76 57.999 100c26.667 69.333 40 124 40 164c0 21.333 -8.66699 32 -26 32c-16.667 0 -37 -8.33301 -61 -25c-26 -18 -48.667 -40.667 -68 -68c-49.333 -70 -88 -142 -116 -216c-16 -42 -29.667 -88.667 -41 -140
c-10.667 -46.667 -16 -80 -16 -100c0 -42 19 -63 57 -63c74 0 171.667 80 293 240c55.333 72.667 110.666 151.667 165.999 237c62 95.333 103.667 143 125 143c11.333 0 17 -6.33301 17 -19c0 -3.33301 -0.333008 -6.66602 -1 -9.99902
c-3.33301 -16 -9.66602 -36.333 -18.999 -61l-24 -69c-18 -66.667 -44.667 -158.667 -80 -276c78 91.333 129.667 137 155 137c16.667 0 31.167 -8.33301 43.5 -25s18.5 -35.667 18.5 -57c0 -32 -3.66699 -70.167 -11 -114.5s-14.666 -72.833 -21.999 -85.5
c7.33301 -5.33301 18.333 -8 33 -8c28 0 75 9.66699 141 29c6.66699 2 19 7.33301 37 16c14 6 25 9 33 9c9.33301 0 14 -7.66699 14 -23z" />
    <glyph glyph-name="afii10039" unicode="&#xd5;" horiz-adv-x="809" 
d="M905 683c-1.33301 -8 -25.3291 -37.001 -71.9961 -87.001l-129 -137c-76.667 -82.667 -148.667 -157 -216 -223l65 -107c33.333 -49.333 59.333 -74 78 -74c25.333 0 73.666 17.333 144.999 52c65.333 32 101.666 48 108.999 48c12 0 16.667 -5.66699 14 -17
c-4.66699 -19.333 -45.334 -45.666 -122.001 -78.999l-82 -37c-34.667 -14 -59 -21 -73 -21c-21.333 0 -52.333 28 -93 84c-30 41.333 -54.333 80.333 -73 117c-174 -146.667 -298 -220 -372 -220c-31.333 0 -55.333 13.667 -72 41c-13.333 22 -20.333 50.667 -21 86
c-0.666992 20 1.33301 40.333 6 61c6 26 18 39 36 39c4 0 6 -4 6 -12c0 -4.66699 -1.5 -17.334 -4.5 -38.001s-4.16699 -36 -3.5 -46c1.33301 -20 8 -37.333 20 -52c13.333 -17.333 31.333 -26 54 -26c36.667 0 91.667 24.667 165 74c20.667 14 74.334 59 161.001 135
c-2.66699 8 -12.834 29.333 -30.501 64s-29.5 62.334 -35.5 83.001c-21.333 70 -30.666 111.333 -27.999 124c4.66699 24 13.667 36 27 36c4 0 10 -16.333 18 -49c11.333 -45.333 19.666 -75.666 24.999 -90.999c26.667 -74 47 -119.333 61 -136
c53.333 49.333 123.333 118.666 210 207.999c8.66699 8.66699 50.667 55.667 126 141c46 52 74.333 78 85 78c13.333 0 18.666 -6.33301 15.999 -19z" />
    <glyph glyph-name="afii10039" unicode="&#x425;" horiz-adv-x="809" 
d="M905 683c-1.33301 -8 -25.3291 -37.001 -71.9961 -87.001l-129 -137c-76.667 -82.667 -148.667 -157 -216 -223l65 -107c33.333 -49.333 59.333 -74 78 -74c25.333 0 73.666 17.333 144.999 52c65.333 32 101.666 48 108.999 48c12 0 16.667 -5.66699 14 -17
c-4.66699 -19.333 -45.334 -45.666 -122.001 -78.999l-82 -37c-34.667 -14 -59 -21 -73 -21c-21.333 0 -52.333 28 -93 84c-30 41.333 -54.333 80.333 -73 117c-174 -146.667 -298 -220 -372 -220c-31.333 0 -55.333 13.667 -72 41c-13.333 22 -20.333 50.667 -21 86
c-0.666992 20 1.33301 40.333 6 61c6 26 18 39 36 39c4 0 6 -4 6 -12c0 -4.66699 -1.5 -17.334 -4.5 -38.001s-4.16699 -36 -3.5 -46c1.33301 -20 8 -37.333 20 -52c13.333 -17.333 31.333 -26 54 -26c36.667 0 91.667 24.667 165 74c20.667 14 74.334 59 161.001 135
c-2.66699 8 -12.834 29.333 -30.501 64s-29.5 62.334 -35.5 83.001c-21.333 70 -30.666 111.333 -27.999 124c4.66699 24 13.667 36 27 36c4 0 10 -16.333 18 -49c11.333 -45.333 19.666 -75.666 24.999 -90.999c26.667 -74 47 -119.333 61 -136
c53.333 49.333 123.333 118.666 210 207.999c8.66699 8.66699 50.667 55.667 126 141c46 52 74.333 78 85 78c13.333 0 18.666 -6.33301 15.999 -19z" />
    <glyph glyph-name="afii10040" unicode="&#xd6;" horiz-adv-x="852" 
d="M888 173c0 -3.33301 -13.667 -18.9961 -41 -46.9961l-78 -79l-125 -149c23.333 -40 35 -70 35 -90c0 -29.333 -23.333 -68 -70 -116c-50.667 -53.333 -98.667 -80 -144 -80c-13.333 0 -24.666 5.5 -33.999 16.5s-14 24.167 -14 39.5c0 10.667 7.33301 26.667 22 48l42 58
c25.333 38 53 76 83 114l-49 56c-23.333 27.333 -40 51.666 -50 72.999c-19.333 40.667 -29.333 90 -30 148c0 27.333 10 76.666 30 147.999c-4.66699 -4.66699 -58.334 -51.334 -161.001 -140.001c-128 -111.333 -213.667 -167 -257 -167c-6.66699 0 -13 3 -19 9
s-9 12.333 -9 19c0 16 23.333 60 70 132s94.334 137 143.001 195c112.667 134 201.334 235 266.001 303c-18 -3.33301 -91.333 -30 -220 -80l-193 -77c-18 -7.33301 -70 -30 -156 -68c-54.667 -24 -87.667 -36 -99 -36c-12.667 0 -19 4.33301 -19 13
c0 10 29.333 28.333 88 55l161 70c1.33301 0.666992 74 29.334 218 86.001c21.333 8.66699 83 35.334 185 80.001c67.333 29.333 107.666 44 120.999 44c19.333 0 29 -7.66699 29 -23c0 -10 -13 -28.333 -39 -55c-46 -47.333 -74 -77 -84 -89
c-48 -54 -124 -144.333 -228 -271c-70.667 -92.667 -126.334 -171.334 -167.001 -236.001c34.667 19.333 93 61 175 125c40 31.333 86.667 73 140 125c57.333 55.333 104 97.666 140 126.999l136 113c50 40 82 60 96 60c8.66699 0 13 -14.333 13 -43
c0 -9.33301 -29.333 -35 -88 -77c0 -0.666992 -15.667 -14.334 -47 -41.001c-35.333 -30.667 -60.666 -56.667 -75.999 -78c-40.667 -56.667 -62.334 -87.334 -65.001 -92.001c-19.333 -34 -29 -71.333 -29 -112c0 -35.333 0.666992 -58.666 2 -69.999
c3.33301 -20.667 10.666 -43 21.999 -67c16 -32.667 49 -70 99 -112c12.667 10.667 32.334 32 59.001 64c29.333 36 52.333 62 69 78l80 81c29.333 29.333 47.333 44 54 44c8.66699 0 13 -9.66699 13 -29zM613 -201.996c0 16.667 -5 27.667 -15 33
c-4.66699 1.33301 -21 -15.167 -49 -49.5s-42 -56.833 -42 -67.5s5.66699 -16 17 -16c6 0 22.333 14 49 42s40 47.333 40 58z" />
    <glyph glyph-name="afii10040" unicode="&#x426;" horiz-adv-x="852" 
d="M888 173c0 -3.33301 -13.667 -18.9961 -41 -46.9961l-78 -79l-125 -149c23.333 -40 35 -70 35 -90c0 -29.333 -23.333 -68 -70 -116c-50.667 -53.333 -98.667 -80 -144 -80c-13.333 0 -24.666 5.5 -33.999 16.5s-14 24.167 -14 39.5c0 10.667 7.33301 26.667 22 48l42 58
c25.333 38 53 76 83 114l-49 56c-23.333 27.333 -40 51.666 -50 72.999c-19.333 40.667 -29.333 90 -30 148c0 27.333 10 76.666 30 147.999c-4.66699 -4.66699 -58.334 -51.334 -161.001 -140.001c-128 -111.333 -213.667 -167 -257 -167c-6.66699 0 -13 3 -19 9
s-9 12.333 -9 19c0 16 23.333 60 70 132s94.334 137 143.001 195c112.667 134 201.334 235 266.001 303c-18 -3.33301 -91.333 -30 -220 -80l-193 -77c-18 -7.33301 -70 -30 -156 -68c-54.667 -24 -87.667 -36 -99 -36c-12.667 0 -19 4.33301 -19 13
c0 10 29.333 28.333 88 55l161 70c1.33301 0.666992 74 29.334 218 86.001c21.333 8.66699 83 35.334 185 80.001c67.333 29.333 107.666 44 120.999 44c19.333 0 29 -7.66699 29 -23c0 -10 -13 -28.333 -39 -55c-46 -47.333 -74 -77 -84 -89
c-48 -54 -124 -144.333 -228 -271c-70.667 -92.667 -126.334 -171.334 -167.001 -236.001c34.667 19.333 93 61 175 125c40 31.333 86.667 73 140 125c57.333 55.333 104 97.666 140 126.999l136 113c50 40 82 60 96 60c8.66699 0 13 -14.333 13 -43
c0 -9.33301 -29.333 -35 -88 -77c0 -0.666992 -15.667 -14.334 -47 -41.001c-35.333 -30.667 -60.666 -56.667 -75.999 -78c-40.667 -56.667 -62.334 -87.334 -65.001 -92.001c-19.333 -34 -29 -71.333 -29 -112c0 -35.333 0.666992 -58.666 2 -69.999
c3.33301 -20.667 10.666 -43 21.999 -67c16 -32.667 49 -70 99 -112c12.667 10.667 32.334 32 59.001 64c29.333 36 52.333 62 69 78l80 81c29.333 29.333 47.333 44 54 44c8.66699 0 13 -9.66699 13 -29zM613 -201.996c0 16.667 -5 27.667 -15 33
c-4.66699 1.33301 -21 -15.167 -49 -49.5s-42 -56.833 -42 -67.5s5.66699 -16 17 -16c6 0 22.333 14 49 42s40 47.333 40 58z" />
    <glyph glyph-name="afii10041" unicode="&#xd7;" horiz-adv-x="587" 
d="M674 102c0 -6.66699 -23.9971 -18.667 -71.9971 -36c-43.333 -15.333 -88 -29 -134 -41c-83.333 -21.333 -174.333 -32 -273 -32c-26 0 -50.333 6.33301 -73 19c-25.333 14 -38 31.333 -38 52s53.333 102 160 244l73 108c-48.667 -9.33301 -81.334 -14 -98.001 -14
c-11.333 0 -22 1.33301 -32 4c-16.667 4 -34 15 -52 33c-21.333 21.333 -34 43.666 -38 66.999c-35.333 -27.333 -90.333 -67.666 -165 -120.999c-117.333 -76.667 -187.333 -115 -210 -115c-10 0 -15 5.33301 -15 16c0 2.66699 26.667 19.334 80 50.001
c64 36.667 110.333 66 139 88c51.333 39.333 111.333 93.333 180 162c58.667 58.667 104 88 136 88c24 0 36 -12 36 -36c0 -14.667 -11.333 -33.667 -34 -57c-20.667 -20.667 -45.667 -40.334 -75 -59.001c7.33301 -22.667 13.666 -37.667 18.999 -45c12 -16 30 -24 54 -24
c36.667 0 80 11.333 130 34s95.333 51 136 85l58 52c24 21.333 40 32 48 32c22 0 33 -6 33 -18s-10.833 -27.5 -32.5 -46.5l-64.5 -55.5c-17.333 -15.333 -39.666 -31 -66.999 -47c-32 -19.333 -55 -34.333 -69 -45c-35.333 -33.333 -80.333 -85.333 -135 -156
c-24.667 -32 -52.334 -72.333 -83.001 -121c-34 -52 -51 -83 -51 -93s4.5 -19 13.5 -27s21.167 -12 36.5 -12c91.333 0 177.666 8.66699 258.999 26c31.333 6.66699 74 19 128 37c48 16.667 72.333 25 73 25c12.667 0 19 -7 19 -21z" />
    <glyph glyph-name="afii10041" unicode="&#x427;" horiz-adv-x="587" 
d="M674 102c0 -6.66699 -23.9971 -18.667 -71.9971 -36c-43.333 -15.333 -88 -29 -134 -41c-83.333 -21.333 -174.333 -32 -273 -32c-26 0 -50.333 6.33301 -73 19c-25.333 14 -38 31.333 -38 52s53.333 102 160 244l73 108c-48.667 -9.33301 -81.334 -14 -98.001 -14
c-11.333 0 -22 1.33301 -32 4c-16.667 4 -34 15 -52 33c-21.333 21.333 -34 43.666 -38 66.999c-35.333 -27.333 -90.333 -67.666 -165 -120.999c-117.333 -76.667 -187.333 -115 -210 -115c-10 0 -15 5.33301 -15 16c0 2.66699 26.667 19.334 80 50.001
c64 36.667 110.333 66 139 88c51.333 39.333 111.333 93.333 180 162c58.667 58.667 104 88 136 88c24 0 36 -12 36 -36c0 -14.667 -11.333 -33.667 -34 -57c-20.667 -20.667 -45.667 -40.334 -75 -59.001c7.33301 -22.667 13.666 -37.667 18.999 -45c12 -16 30 -24 54 -24
c36.667 0 80 11.333 130 34s95.333 51 136 85l58 52c24 21.333 40 32 48 32c22 0 33 -6 33 -18s-10.833 -27.5 -32.5 -46.5l-64.5 -55.5c-17.333 -15.333 -39.666 -31 -66.999 -47c-32 -19.333 -55 -34.333 -69 -45c-35.333 -33.333 -80.333 -85.333 -135 -156
c-24.667 -32 -52.334 -72.333 -83.001 -121c-34 -52 -51 -83 -51 -93s4.5 -19 13.5 -27s21.167 -12 36.5 -12c91.333 0 177.666 8.66699 258.999 26c31.333 6.66699 74 19 128 37c48 16.667 72.333 25 73 25c12.667 0 19 -7 19 -21z" />
    <glyph glyph-name="afii10042" unicode="&#xd8;" horiz-adv-x="992" 
d="M1048 160c0 -9.33301 -30.333 -27.6709 -91 -55.0039s-103.334 -41 -128.001 -41c-36 0 -65 10 -87 30c-16 14.667 -34.333 42 -55 82c-26 -26 -55 -49.333 -87 -70c-70.667 -46 -120.667 -69 -150 -69c-13.333 0 -25.333 4.66699 -36 14c-13.333 10.667 -20 25 -20 43
c-0.666992 47.333 4.66602 98.333 15.999 153c-53.333 -61.333 -117.666 -118 -192.999 -170c-86 -60 -151.333 -87 -196 -81c-8 1.33301 -12 12.333 -12 33c0 14 23 61.333 69 142l114 199c19.333 27.333 55 89.333 107 186l-12 10l-133 -81
c-5.33301 -3.33301 -21.666 -15.333 -48.999 -36c-16 -12.667 -26.667 -19 -32 -19c-10.667 0 -16 4.66699 -16 14c0 8 14 22.333 42 43l78 54c32 24 64.333 45 97 63c30.667 16.667 50.667 25 60 25c20 0 30 -6.33301 30 -19c0 -10.667 -12.5 -38.667 -37.5 -84l-74.5 -136
c-16.667 -31.333 -52 -94 -106 -188c-40.667 -71.333 -61 -109.666 -61 -114.999c0 -10 5.33301 -15 16 -15c14 0 47 17.667 99 53s94.333 70 127 104c23.333 24.667 64.333 75.334 123 152.001l52 71c18.667 22 33.667 31.333 45 28c10.667 -2.66699 16 -14.667 16 -36
c0 -8.66699 -7 -25 -21 -49c-22.667 -38.667 -37.667 -65 -45 -79c-14 -28 -25.667 -65.333 -35 -112c-8 -37.333 -12 -65.333 -12 -84c0 -22 5 -33 15 -33c16 0 33 4.66699 51 14l64 41c30 19.333 57.333 45 82 77c4.66699 6 25 35.333 61 88
c2 2.66699 15.667 26.334 41 71.001c16 28 27.333 42 34 42c20.667 0 31 -16.667 31 -50c0 -4 -14.667 -33.667 -44 -89c-20.667 -39.333 -31 -71.666 -31 -96.999c0 -19.333 7.66699 -37.5 23 -54.5s28.666 -24.833 39.999 -23.5c44.667 6 91.667 19.333 141 40
c46.667 20 73.334 30 80.001 30s10 -5.33301 10 -16z" />
    <glyph glyph-name="afii10042" unicode="&#x428;" horiz-adv-x="992" 
d="M1048 160c0 -9.33301 -30.333 -27.6709 -91 -55.0039s-103.334 -41 -128.001 -41c-36 0 -65 10 -87 30c-16 14.667 -34.333 42 -55 82c-26 -26 -55 -49.333 -87 -70c-70.667 -46 -120.667 -69 -150 -69c-13.333 0 -25.333 4.66699 -36 14c-13.333 10.667 -20 25 -20 43
c-0.666992 47.333 4.66602 98.333 15.999 153c-53.333 -61.333 -117.666 -118 -192.999 -170c-86 -60 -151.333 -87 -196 -81c-8 1.33301 -12 12.333 -12 33c0 14 23 61.333 69 142l114 199c19.333 27.333 55 89.333 107 186l-12 10l-133 -81
c-5.33301 -3.33301 -21.666 -15.333 -48.999 -36c-16 -12.667 -26.667 -19 -32 -19c-10.667 0 -16 4.66699 -16 14c0 8 14 22.333 42 43l78 54c32 24 64.333 45 97 63c30.667 16.667 50.667 25 60 25c20 0 30 -6.33301 30 -19c0 -10.667 -12.5 -38.667 -37.5 -84l-74.5 -136
c-16.667 -31.333 -52 -94 -106 -188c-40.667 -71.333 -61 -109.666 -61 -114.999c0 -10 5.33301 -15 16 -15c14 0 47 17.667 99 53s94.333 70 127 104c23.333 24.667 64.333 75.334 123 152.001l52 71c18.667 22 33.667 31.333 45 28c10.667 -2.66699 16 -14.667 16 -36
c0 -8.66699 -7 -25 -21 -49c-22.667 -38.667 -37.667 -65 -45 -79c-14 -28 -25.667 -65.333 -35 -112c-8 -37.333 -12 -65.333 -12 -84c0 -22 5 -33 15 -33c16 0 33 4.66699 51 14l64 41c30 19.333 57.333 45 82 77c4.66699 6 25 35.333 61 88
c2 2.66699 15.667 26.334 41 71.001c16 28 27.333 42 34 42c20.667 0 31 -16.667 31 -50c0 -4 -14.667 -33.667 -44 -89c-20.667 -39.333 -31 -71.666 -31 -96.999c0 -19.333 7.66699 -37.5 23 -54.5s28.666 -24.833 39.999 -23.5c44.667 6 91.667 19.333 141 40
c46.667 20 73.334 30 80.001 30s10 -5.33301 10 -16z" />
    <glyph glyph-name="afii10043" unicode="&#xd9;" horiz-adv-x="1012" 
d="M1048 142c0 -3.33301 -10.334 -11.6709 -31.001 -25.0039c-44.667 -28 -68.334 -43 -71.001 -45c-9.33301 -6 -40 -27.333 -92 -64l-39 -126c-32 -94 -62.667 -137.333 -92 -130c-34.667 8.66699 -52 23.334 -52 44.001c0 6.66699 14.667 31 44 73
c28.667 40 49 66.333 61 79c0 1.33301 2 9.66602 6 24.999c2.66699 9.33301 3.66699 17 3 23c-4 26 -11 46.667 -21 62c-16 21.333 -41.667 60.666 -77 117.999c-26 -26 -55 -49.333 -87 -70c-70.667 -46 -120.667 -69 -150 -69c-13.333 0 -25.333 4.66699 -36 14
c-13.333 10.667 -20 25 -20 43c-0.666992 47.333 4.66602 98.333 15.999 153c-53.333 -61.333 -117.666 -118 -192.999 -170c-86 -60 -151.333 -87 -196 -81c-8 1.33301 -12 12.333 -12 33c0 14 23 61.333 69 142l114 199c19.333 27.333 55 89.333 107 186l-12 10l-133 -81
c-5.33301 -3.33301 -21.666 -15.333 -48.999 -36c-16 -12.667 -26.667 -19 -32 -19c-10.667 0 -16 4.66699 -16 14c0 8 14 22.333 42 43l78 54c32 24 64.333 45 97 63c30.667 16.667 50.667 25 60 25c20 0 30 -6.33301 30 -19c0 -10.667 -12.5 -38.667 -37.5 -84l-74.5 -136
c-16.667 -31.333 -52 -94 -106 -188c-40.667 -71.333 -61 -109.666 -61 -114.999c0 -10 5.33301 -15 16 -15c14 0 47 17.667 99 53s94.333 70 127 104c23.333 24.667 64.333 75.334 123 152.001l52 71c18.667 22 33.667 31.333 45 28c10.667 -2.66699 16 -14.667 16 -36
c0 -8.66699 -7 -25 -21 -49c-22.667 -38.667 -37.667 -65 -45 -79c-14 -28 -25.667 -65.333 -35 -112c-8 -37.333 -12 -65.333 -12 -84c0 -22 5 -33 15 -33c16 0 33 4.66699 51 14l64 41c30 19.333 57.333 45 82 77c4.66699 6 25 35.333 61 88
c2 2.66699 15.667 26.334 41 71.001c16 28 27.333 42 34 42c20.667 0 31 -16.667 31 -50c0 -4 -14.667 -33.667 -44 -89c-20.667 -39.333 -31 -71.666 -31 -96.999c0 -19.333 10 -42.666 30 -69.999c16.667 -24 34.334 -42.667 53.001 -56c13.333 4.66699 29.333 12 48 22
l45 26l64 36c18.667 10.667 30 16 34 16c13.333 0 20 -5.33301 20 -16z" />
    <glyph glyph-name="afii10043" unicode="&#x429;" horiz-adv-x="1012" 
d="M1048 142c0 -3.33301 -10.334 -11.6709 -31.001 -25.0039c-44.667 -28 -68.334 -43 -71.001 -45c-9.33301 -6 -40 -27.333 -92 -64l-39 -126c-32 -94 -62.667 -137.333 -92 -130c-34.667 8.66699 -52 23.334 -52 44.001c0 6.66699 14.667 31 44 73
c28.667 40 49 66.333 61 79c0 1.33301 2 9.66602 6 24.999c2.66699 9.33301 3.66699 17 3 23c-4 26 -11 46.667 -21 62c-16 21.333 -41.667 60.666 -77 117.999c-26 -26 -55 -49.333 -87 -70c-70.667 -46 -120.667 -69 -150 -69c-13.333 0 -25.333 4.66699 -36 14
c-13.333 10.667 -20 25 -20 43c-0.666992 47.333 4.66602 98.333 15.999 153c-53.333 -61.333 -117.666 -118 -192.999 -170c-86 -60 -151.333 -87 -196 -81c-8 1.33301 -12 12.333 -12 33c0 14 23 61.333 69 142l114 199c19.333 27.333 55 89.333 107 186l-12 10l-133 -81
c-5.33301 -3.33301 -21.666 -15.333 -48.999 -36c-16 -12.667 -26.667 -19 -32 -19c-10.667 0 -16 4.66699 -16 14c0 8 14 22.333 42 43l78 54c32 24 64.333 45 97 63c30.667 16.667 50.667 25 60 25c20 0 30 -6.33301 30 -19c0 -10.667 -12.5 -38.667 -37.5 -84l-74.5 -136
c-16.667 -31.333 -52 -94 -106 -188c-40.667 -71.333 -61 -109.666 -61 -114.999c0 -10 5.33301 -15 16 -15c14 0 47 17.667 99 53s94.333 70 127 104c23.333 24.667 64.333 75.334 123 152.001l52 71c18.667 22 33.667 31.333 45 28c10.667 -2.66699 16 -14.667 16 -36
c0 -8.66699 -7 -25 -21 -49c-22.667 -38.667 -37.667 -65 -45 -79c-14 -28 -25.667 -65.333 -35 -112c-8 -37.333 -12 -65.333 -12 -84c0 -22 5 -33 15 -33c16 0 33 4.66699 51 14l64 41c30 19.333 57.333 45 82 77c4.66699 6 25 35.333 61 88
c2 2.66699 15.667 26.334 41 71.001c16 28 27.333 42 34 42c20.667 0 31 -16.667 31 -50c0 -4 -14.667 -33.667 -44 -89c-20.667 -39.333 -31 -71.666 -31 -96.999c0 -19.333 10 -42.666 30 -69.999c16.667 -24 34.334 -42.667 53.001 -56c13.333 4.66699 29.333 12 48 22
l45 26l64 36c18.667 10.667 30 16 34 16c13.333 0 20 -5.33301 20 -16z" />
    <glyph glyph-name="afii10044" unicode="&#xda;" horiz-adv-x="376" 
d="M370 476l-128 -195.001c-18.667 -27.333 -53.334 -69.333 -104.001 -126c-39.333 -44.667 -59.333 -71.334 -60 -80.001c-2 -7.33301 2.16699 -14.166 12.5 -20.499s19.5 -9.5 27.5 -9.5c43.333 0 81.333 11 114 33c29.333 20 65 57 107 111l35 50.5
c12 17 22.333 25.5 31 25.5c10 0 16.333 -1.16699 19 -3.5s3.66699 -8.16602 3 -17.499c-2 -30.667 -35.333 -76 -100 -136c-43.333 -40 -78.333 -67.667 -105 -83c-37.333 -21.333 -78.333 -32 -123 -32c-61.333 0 -92 24.667 -92 74c0 6.66699 0.666992 13.167 2 19.5
s21.333 30.833 60 73.5c48 53.333 81.667 92.666 101 117.999c62 82.667 107.333 148.334 136 197.001c14.667 44 36 82.667 64 116l45 61c16.667 18.667 40.334 28 71.001 28c28 0 42 -10.333 42 -31c0 -25.333 -21.333 -57 -64 -95z" />
    <glyph glyph-name="afii10044" unicode="&#x42a;" horiz-adv-x="376" 
d="M370 476l-128 -195.001c-18.667 -27.333 -53.334 -69.333 -104.001 -126c-39.333 -44.667 -59.333 -71.334 -60 -80.001c-2 -7.33301 2.16699 -14.166 12.5 -20.499s19.5 -9.5 27.5 -9.5c43.333 0 81.333 11 114 33c29.333 20 65 57 107 111l35 50.5
c12 17 22.333 25.5 31 25.5c10 0 16.333 -1.16699 19 -3.5s3.66699 -8.16602 3 -17.499c-2 -30.667 -35.333 -76 -100 -136c-43.333 -40 -78.333 -67.667 -105 -83c-37.333 -21.333 -78.333 -32 -123 -32c-61.333 0 -92 24.667 -92 74c0 6.66699 0.666992 13.167 2 19.5
s21.333 30.833 60 73.5c48 53.333 81.667 92.666 101 117.999c62 82.667 107.333 148.334 136 197.001c14.667 44 36 82.667 64 116l45 61c16.667 18.667 40.334 28 71.001 28c28 0 42 -10.333 42 -31c0 -25.333 -21.333 -57 -64 -95z" />
    <glyph glyph-name="afii10045" unicode="&#xdb;" horiz-adv-x="1019" 
d="M1136 174c0 -15.333 -63.6699 -50.667 -191.003 -106c-70.667 -30.667 -119.667 -51 -147 -61c-50 -17.333 -92.333 -26 -127 -26c-16.667 0 -33.667 4.66699 -51 14c-19.333 10 -29 21.667 -29 35c0 22.667 11.667 56.334 35 101.001c-50 -20 -82.667 -32.667 -98 -38
c-32 -9.33301 -64.667 -13.666 -98 -12.999c-64 0.666992 -116.667 15 -158 43c-81.333 -70.667 -153.666 -106 -216.999 -106c-30.667 0 -46 16 -46 48c0 26.667 37.667 80 113 160c62.667 65.333 137.334 135.333 224.001 210c60 51.333 126.667 102.833 200 154.5
s117.666 77.5 132.999 77.5c6 0 9.83301 -1 11.5 -3s2.16699 -5.33301 1.5 -10c-1.33301 -6.66699 -2 -11 -2 -13c0 -6.66699 -21 -24.667 -63 -54c-66.667 -46 -101.667 -70.333 -105 -73c-26.667 -20.667 -64 -52 -112 -94l-98 -86c9.33301 0 23 0.333008 41 1
c10.667 0 19.334 -0.333008 26.001 -1s15.667 -2.66699 27 -6c22 -6.66699 33 -18 33 -34c0 -32 -33.333 -77.333 -100 -136c26.667 -14 41 -21.333 43 -22c15.333 -6 35.333 -9 60 -9c51.333 0 124 22 218 66c36.667 17.333 83.667 42.666 141 75.999
c38 22 62.333 33 73 33c26.667 0 40 -8 40 -24c0 -12 -14 -25.667 -42 -41c-60.667 -34 -95.334 -54 -104.001 -60c-20 -13.333 -45.5 -35.833 -76.5 -67.5s-46.5 -50.834 -46.5 -57.501c0 -20.667 11.333 -31 34 -31c12.667 0 43.334 7.66699 92.001 23
c54 16.667 103 35.334 147 56.001l115 56c50.667 24 79.334 35.667 86.001 35c11.333 -2.66699 17 -8.33398 17 -17.001zM308.997 247.999c0.666992 8 -4.66699 15 -16 21c-13.333 8 -20.333 12.667 -21 14c-127.333 -105.333 -191 -168.333 -191 -189
c0 -13.333 8.33301 -20 25 -20c11.333 0 37 11 77 33c43.333 23.333 73.333 45.333 90 66c11.333 18.667 23.333 43.667 36 75z" />
    <glyph glyph-name="afii10045" unicode="&#x42b;" horiz-adv-x="1019" 
d="M1136 174c0 -15.333 -63.6699 -50.667 -191.003 -106c-70.667 -30.667 -119.667 -51 -147 -61c-50 -17.333 -92.333 -26 -127 -26c-16.667 0 -33.667 4.66699 -51 14c-19.333 10 -29 21.667 -29 35c0 22.667 11.667 56.334 35 101.001c-50 -20 -82.667 -32.667 -98 -38
c-32 -9.33301 -64.667 -13.666 -98 -12.999c-64 0.666992 -116.667 15 -158 43c-81.333 -70.667 -153.666 -106 -216.999 -106c-30.667 0 -46 16 -46 48c0 26.667 37.667 80 113 160c62.667 65.333 137.334 135.333 224.001 210c60 51.333 126.667 102.833 200 154.5
s117.666 77.5 132.999 77.5c6 0 9.83301 -1 11.5 -3s2.16699 -5.33301 1.5 -10c-1.33301 -6.66699 -2 -11 -2 -13c0 -6.66699 -21 -24.667 -63 -54c-66.667 -46 -101.667 -70.333 -105 -73c-26.667 -20.667 -64 -52 -112 -94l-98 -86c9.33301 0 23 0.333008 41 1
c10.667 0 19.334 -0.333008 26.001 -1s15.667 -2.66699 27 -6c22 -6.66699 33 -18 33 -34c0 -32 -33.333 -77.333 -100 -136c26.667 -14 41 -21.333 43 -22c15.333 -6 35.333 -9 60 -9c51.333 0 124 22 218 66c36.667 17.333 83.667 42.666 141 75.999
c38 22 62.333 33 73 33c26.667 0 40 -8 40 -24c0 -12 -14 -25.667 -42 -41c-60.667 -34 -95.334 -54 -104.001 -60c-20 -13.333 -45.5 -35.833 -76.5 -67.5s-46.5 -50.834 -46.5 -57.501c0 -20.667 11.333 -31 34 -31c12.667 0 43.334 7.66699 92.001 23
c54 16.667 103 35.334 147 56.001l115 56c50.667 24 79.334 35.667 86.001 35c11.333 -2.66699 17 -8.33398 17 -17.001zM308.997 247.999c0.666992 8 -4.66699 15 -16 21c-13.333 8 -20.333 12.667 -21 14c-127.333 -105.333 -191 -168.333 -191 -189
c0 -13.333 8.33301 -20 25 -20c11.333 0 37 11 77 33c43.333 23.333 73.333 45.333 90 66c11.333 18.667 23.333 43.667 36 75z" />
    <glyph glyph-name="afii10046" unicode="&#xdc;" horiz-adv-x="448" 
d="M635 609c2 -8 -18.001 -28.667 -60.001 -62c-56.667 -45.333 -93.667 -77 -111 -95l-86 -86c-31.333 -31.333 -60.666 -64.666 -87.999 -99.999c44 -18.667 66 -44 66 -76c0 -32.667 -24 -71.334 -72 -116.001c-54.667 -50.667 -112 -76 -172 -76
c-62 0 -98 23.333 -108 70c-4 17.333 3.33301 39.5 22 66.5s44.334 53.167 77.001 78.5c16.667 13.333 41 28.333 73 45c41.333 21.333 64.333 33.333 69 36l88 96c32 33.333 65.333 65.333 100 96c108 95.333 169 143 183 143c9.33301 0 15.666 -6.66699 18.999 -20z
M289.999 190c-2.66699 22 -13.333 33 -32 33c-42 0 -85 -22 -129 -66s-63.667 -78.667 -59 -104c4.66699 -10 14.667 -15 30 -15c26.667 0 63 13.333 109 40c54.667 31.333 82 64.333 82 99c0 4 -0.333008 8.33301 -1 13z" />
    <glyph glyph-name="afii10046" unicode="&#x42c;" horiz-adv-x="448" 
d="M635 609c2 -8 -18.001 -28.667 -60.001 -62c-56.667 -45.333 -93.667 -77 -111 -95l-86 -86c-31.333 -31.333 -60.666 -64.666 -87.999 -99.999c44 -18.667 66 -44 66 -76c0 -32.667 -24 -71.334 -72 -116.001c-54.667 -50.667 -112 -76 -172 -76
c-62 0 -98 23.333 -108 70c-4 17.333 3.33301 39.5 22 66.5s44.334 53.167 77.001 78.5c16.667 13.333 41 28.333 73 45c41.333 21.333 64.333 33.333 69 36l88 96c32 33.333 65.333 65.333 100 96c108 95.333 169 143 183 143c9.33301 0 15.666 -6.66699 18.999 -20z
M289.999 190c-2.66699 22 -13.333 33 -32 33c-42 0 -85 -22 -129 -66s-63.667 -78.667 -59 -104c4.66699 -10 14.667 -15 30 -15c26.667 0 63 13.333 109 40c54.667 31.333 82 64.333 82 99c0 4 -0.333008 8.33301 -1 13z" />
    <glyph glyph-name="afii10047" unicode="&#xdd;" horiz-adv-x="514" 
d="M590 498c0 -50 -18.1689 -108.166 -54.502 -174.499s-82.833 -125.5 -139.5 -177.5c-46 -42 -97.167 -77.333 -153.5 -106s-101.166 -43 -134.499 -43c-50 0 -75.333 29 -76 87c0 11.333 3 24.833 9 40.5s13.667 23.5 23 23.5c2.66699 0 5 -0.666992 7 -2
c6.66699 -2.66699 10.167 -4.83398 10.5 -6.50098s0.5 -11.834 0.5 -30.501c0 -40 8.66699 -60 26 -60c46 0 108.333 25.333 187 76c31.333 20 65 47.667 101 83c-28 12 -53.333 30 -76 54c-4.66699 4.66699 -10 17 -16 37c-5.33301 16 -11 24 -17 24s-13 -11.667 -21 -35
c-9.33301 -27.333 -15.666 -41 -18.999 -41c-16.667 0 -25 9 -25 27c0 25.333 6 46.333 18 63c19.333 27.333 40 41 62 41c10.667 0 21.667 -12 33 -36c13.333 -30.667 23 -48.667 29 -54c12.667 -12.667 36.334 -24 71.001 -34c70.667 104 106 187.667 106 251
c0 33.333 -16 64.333 -48 93c-35.333 32 -78.333 48 -129 48c-82.667 0 -160 -41 -232 -123c-27.333 -30.667 -50 -68.667 -68 -114c-16 -39.333 -24 -70.666 -24 -93.999c0 -8 0.666992 -19.167 2 -33.5s2 -23.833 2 -28.5c0 -15.333 -4 -23 -12 -23
c-14.667 0 -24.334 12.667 -29.001 38c-3.33301 18 -4 36.333 -2 55c8.66699 87.333 47.667 168 117 242c82.667 88.667 162 133 238 133c59.333 0 112.333 -18.333 159 -55c50 -38.667 75 -87 75 -145z" />
    <glyph glyph-name="afii10047" unicode="&#x42d;" horiz-adv-x="514" 
d="M590 498c0 -50 -18.1689 -108.166 -54.502 -174.499s-82.833 -125.5 -139.5 -177.5c-46 -42 -97.167 -77.333 -153.5 -106s-101.166 -43 -134.499 -43c-50 0 -75.333 29 -76 87c0 11.333 3 24.833 9 40.5s13.667 23.5 23 23.5c2.66699 0 5 -0.666992 7 -2
c6.66699 -2.66699 10.167 -4.83398 10.5 -6.50098s0.5 -11.834 0.5 -30.501c0 -40 8.66699 -60 26 -60c46 0 108.333 25.333 187 76c31.333 20 65 47.667 101 83c-28 12 -53.333 30 -76 54c-4.66699 4.66699 -10 17 -16 37c-5.33301 16 -11 24 -17 24s-13 -11.667 -21 -35
c-9.33301 -27.333 -15.666 -41 -18.999 -41c-16.667 0 -25 9 -25 27c0 25.333 6 46.333 18 63c19.333 27.333 40 41 62 41c10.667 0 21.667 -12 33 -36c13.333 -30.667 23 -48.667 29 -54c12.667 -12.667 36.334 -24 71.001 -34c70.667 104 106 187.667 106 251
c0 33.333 -16 64.333 -48 93c-35.333 32 -78.333 48 -129 48c-82.667 0 -160 -41 -232 -123c-27.333 -30.667 -50 -68.667 -68 -114c-16 -39.333 -24 -70.666 -24 -93.999c0 -8 0.666992 -19.167 2 -33.5s2 -23.833 2 -28.5c0 -15.333 -4 -23 -12 -23
c-14.667 0 -24.334 12.667 -29.001 38c-3.33301 18 -4 36.333 -2 55c8.66699 87.333 47.667 168 117 242c82.667 88.667 162 133 238 133c59.333 0 112.333 -18.333 159 -55c50 -38.667 75 -87 75 -145z" />
    <glyph glyph-name="afii10048" unicode="&#xde;" horiz-adv-x="1071" 
d="M1165 456c-3.33301 -50.667 -41.668 -112.669 -115.001 -186.002c-76 -76 -166 -139.667 -270 -191c-118 -58.667 -231 -88 -339 -88c-87.333 0 -131 40.667 -131 122c0 22.667 18.333 60.334 55 113.001c33.333 46.667 67.666 87 102.999 121
c-27.333 -13.333 -71.666 -33.666 -132.999 -60.999c-50.667 -20.667 -97.334 -41.667 -140.001 -63l-103 -139c-7.33301 -10 -19.666 -30.333 -36.999 -61c-10 -19.333 -18.833 -30 -26.5 -32s-13.5 -3 -17.5 -3c-13.333 0 -18.666 6.66699 -15.999 20
c3.33301 17.333 24.666 54.333 63.999 111l110 157l80.5 123c27 41.333 55.5 79.666 85.5 114.999l73 88c27.333 30.667 45.333 46 54 46c5.33301 0 10.166 -1.83301 14.499 -5.5s5.83301 -7.83398 4.5 -12.501c-2.66699 -7.33301 -18 -26.666 -46 -57.999
c-36.667 -40.667 -61.667 -70 -75 -88c-46 -61.333 -91.333 -130.666 -136 -207.999c12.667 8 49.667 27 111 57c76.667 34 168.667 71.333 276 112c33.333 24.667 78.333 53.667 135 87c63.333 38 102 57 116 57c10 0 15 -6 15 -18c0 -4.66699 -5 -10.667 -15 -18
c-15.333 -11.333 -25.666 -20 -30.999 -26c98.667 20.667 158.334 31 179.001 31c108 0 159.667 -34 155 -102zM1119 444.998c0 46 -36.333 69 -109 69c-62 0 -127.333 -14 -196 -42l-188 -86c-94 -76 -149.667 -123 -167 -141c-60.667 -60 -91 -113.667 -91 -161
c0 -36.667 37.667 -53.667 113 -51c76 2.66699 167 31 273 85c95.333 49.333 180 106.833 254 172.5s111 117.167 111 154.5z" />
    <glyph glyph-name="afii10048" unicode="&#x42e;" horiz-adv-x="1071" 
d="M1165 456c-3.33301 -50.667 -41.668 -112.669 -115.001 -186.002c-76 -76 -166 -139.667 -270 -191c-118 -58.667 -231 -88 -339 -88c-87.333 0 -131 40.667 -131 122c0 22.667 18.333 60.334 55 113.001c33.333 46.667 67.666 87 102.999 121
c-27.333 -13.333 -71.666 -33.666 -132.999 -60.999c-50.667 -20.667 -97.334 -41.667 -140.001 -63l-103 -139c-7.33301 -10 -19.666 -30.333 -36.999 -61c-10 -19.333 -18.833 -30 -26.5 -32s-13.5 -3 -17.5 -3c-13.333 0 -18.666 6.66699 -15.999 20
c3.33301 17.333 24.666 54.333 63.999 111l110 157l80.5 123c27 41.333 55.5 79.666 85.5 114.999l73 88c27.333 30.667 45.333 46 54 46c5.33301 0 10.166 -1.83301 14.499 -5.5s5.83301 -7.83398 4.5 -12.501c-2.66699 -7.33301 -18 -26.666 -46 -57.999
c-36.667 -40.667 -61.667 -70 -75 -88c-46 -61.333 -91.333 -130.666 -136 -207.999c12.667 8 49.667 27 111 57c76.667 34 168.667 71.333 276 112c33.333 24.667 78.333 53.667 135 87c63.333 38 102 57 116 57c10 0 15 -6 15 -18c0 -4.66699 -5 -10.667 -15 -18
c-15.333 -11.333 -25.666 -20 -30.999 -26c98.667 20.667 158.334 31 179.001 31c108 0 159.667 -34 155 -102zM1119 444.998c0 46 -36.333 69 -109 69c-62 0 -127.333 -14 -196 -42l-188 -86c-94 -76 -149.667 -123 -167 -141c-60.667 -60 -91 -113.667 -91 -161
c0 -36.667 37.667 -53.667 113 -51c76 2.66699 167 31 273 85c95.333 49.333 180 106.833 254 172.5s111 117.167 111 154.5z" />
    <glyph glyph-name="afii10049" unicode="&#xdf;" horiz-adv-x="1174" 
d="M1302 195c0 -14.667 -107.998 -55.6689 -323.998 -123.002c-161.333 -50 -261.666 -75 -300.999 -75c-59.333 0 -89 25 -89 75c0 8.66699 8.33301 30.334 25 65.001l37 77c-39.333 -26.667 -105.333 -66.667 -198 -120c-104 -52.667 -166.667 -83 -188 -91
c-64.667 -26.667 -125.334 -40 -182.001 -40c-8.66699 0 -21.667 5.33301 -39 16c-21.333 14 -32 28.667 -32 44c0 18.667 7.5 40.834 22.5 66.501s27.833 38.5 38.5 38.5c15.333 0 23 -11.333 23 -34c0 -6.66699 -3.5 -17 -10.5 -31s-9.83301 -25.333 -8.5 -34
c1.33301 -9.33301 7.66602 -14 18.999 -14c18 0 50.333 7 97 21c53.333 15.333 106.666 34.666 159.999 57.999c101.333 44 192.333 98.667 273 164c-23.333 8.66699 -46 24.334 -68 47.001c-28 28.667 -42 58.334 -42 89.001c0 26 17.667 64 53 114
c38.667 56 83.667 102.333 135 139c61.333 45.333 121.333 68 180 68c74 0 115.667 -26.333 125 -79c2 -10 -0.666992 -34 -8 -72c17.333 10.667 31.333 16 42 16c7.33301 0 11 -5.33301 11 -16c0 -22 -48.333 -74 -145 -156c-39.333 -38 -95.333 -96 -168 -174
c-24.667 -28.667 -47 -60 -67 -94s-30 -56.667 -30 -68c0 -6.66699 3.83301 -12.834 11.5 -18.501s15.167 -8.5 22.5 -8.5c25.333 0 112 20 260 60c47.333 12.667 117 35.667 209 69c78 28 120.667 42 128 42c18.667 0 28 -7 28 -21zM950.002 609.998
c0 20.667 -9.00098 34.332 -27.001 40.999c-10.667 4 -28.667 6 -54 6c-57.333 0 -120.166 -33.5 -188.499 -100.5s-102.5 -123.833 -102.5 -170.5c0 -15.333 8.33301 -30.333 25 -45c6 -5.33301 21.667 -16.666 47 -33.999l15.5 19c5.66699 6.66699 13.834 12 24.501 16
c31.333 10.667 49.666 17 54.999 19c22.667 9.33301 41 20.333 55 33c36 32 70.333 72.667 103 122c31.333 46.667 47 78 47 94z" />
    <glyph glyph-name="afii10049" unicode="&#x42f;" horiz-adv-x="1174" 
d="M1302 195c0 -14.667 -107.998 -55.6689 -323.998 -123.002c-161.333 -50 -261.666 -75 -300.999 -75c-59.333 0 -89 25 -89 75c0 8.66699 8.33301 30.334 25 65.001l37 77c-39.333 -26.667 -105.333 -66.667 -198 -120c-104 -52.667 -166.667 -83 -188 -91
c-64.667 -26.667 -125.334 -40 -182.001 -40c-8.66699 0 -21.667 5.33301 -39 16c-21.333 14 -32 28.667 -32 44c0 18.667 7.5 40.834 22.5 66.501s27.833 38.5 38.5 38.5c15.333 0 23 -11.333 23 -34c0 -6.66699 -3.5 -17 -10.5 -31s-9.83301 -25.333 -8.5 -34
c1.33301 -9.33301 7.66602 -14 18.999 -14c18 0 50.333 7 97 21c53.333 15.333 106.666 34.666 159.999 57.999c101.333 44 192.333 98.667 273 164c-23.333 8.66699 -46 24.334 -68 47.001c-28 28.667 -42 58.334 -42 89.001c0 26 17.667 64 53 114
c38.667 56 83.667 102.333 135 139c61.333 45.333 121.333 68 180 68c74 0 115.667 -26.333 125 -79c2 -10 -0.666992 -34 -8 -72c17.333 10.667 31.333 16 42 16c7.33301 0 11 -5.33301 11 -16c0 -22 -48.333 -74 -145 -156c-39.333 -38 -95.333 -96 -168 -174
c-24.667 -28.667 -47 -60 -67 -94s-30 -56.667 -30 -68c0 -6.66699 3.83301 -12.834 11.5 -18.501s15.167 -8.5 22.5 -8.5c25.333 0 112 20 260 60c47.333 12.667 117 35.667 209 69c78 28 120.667 42 128 42c18.667 0 28 -7 28 -21zM950.002 609.998
c0 20.667 -9.00098 34.332 -27.001 40.999c-10.667 4 -28.667 6 -54 6c-57.333 0 -120.166 -33.5 -188.499 -100.5s-102.5 -123.833 -102.5 -170.5c0 -15.333 8.33301 -30.333 25 -45c6 -5.33301 21.667 -16.666 47 -33.999l15.5 19c5.66699 6.66699 13.834 12 24.501 16
c31.333 10.667 49.666 17 54.999 19c22.667 9.33301 41 20.333 55 33c36 32 70.333 72.667 103 122c31.333 46.667 47 78 47 94z" />
    <glyph glyph-name="afii10065" unicode="&#xe0;" horiz-adv-x="518" 
d="M618 120c0 -10.667 -40.998 -34 -122.998 -70c-58.667 -26 -115.334 -39 -170.001 -39c-16.667 0 -29.667 6.33301 -39 19l-18 34c-70 -48.667 -135.333 -73 -196 -73c-22 0 -39.333 5.66699 -52 17s-19 25.333 -19 42c0 37.333 24.667 71.666 74 102.999
c54.667 34 123 51 205 51c31.333 0 55 -10.667 71 -32c12 8 25.333 12 40 12c10.667 0 16 -9.66699 16 -29c0 -4.66699 -12 -16.167 -36 -34.5s-36 -33.166 -36 -44.499c0 -17.333 5.33301 -26 16 -26c45.333 0 89 10 131 30c71.333 34 111.666 51 120.999 51
c10 0 15 -3.66699 15 -11zM280.002 145c1.33301 6.66699 -6.00098 10 -22.001 10c-32 0 -71.667 -10.333 -119 -31c-54 -24 -81 -48.667 -81 -74c0 -10 4.66699 -15.667 14 -17c24 -4 61.667 5.33301 113 28c56.667 25.333 88.334 53.333 95.001 84z" />
    <glyph glyph-name="afii10065" unicode="&#x430;" horiz-adv-x="518" 
d="M618 120c0 -10.667 -40.998 -34 -122.998 -70c-58.667 -26 -115.334 -39 -170.001 -39c-16.667 0 -29.667 6.33301 -39 19l-18 34c-70 -48.667 -135.333 -73 -196 -73c-22 0 -39.333 5.66699 -52 17s-19 25.333 -19 42c0 37.333 24.667 71.666 74 102.999
c54.667 34 123 51 205 51c31.333 0 55 -10.667 71 -32c12 8 25.333 12 40 12c10.667 0 16 -9.66699 16 -29c0 -4.66699 -12 -16.167 -36 -34.5s-36 -33.166 -36 -44.499c0 -17.333 5.33301 -26 16 -26c45.333 0 89 10 131 30c71.333 34 111.666 51 120.999 51
c10 0 15 -3.66699 15 -11zM280.002 145c1.33301 6.66699 -6.00098 10 -22.001 10c-32 0 -71.667 -10.333 -119 -31c-54 -24 -81 -48.667 -81 -74c0 -10 4.66699 -15.667 14 -17c24 -4 61.667 5.33301 113 28c56.667 25.333 88.334 53.333 95.001 84z" />
    <glyph glyph-name="afii10066" unicode="&#xe1;" horiz-adv-x="380" 
d="M1201 674c0 -16 -14.332 -31.6689 -42.999 -47.002c-25.333 -13.333 -53.666 -23 -84.999 -29c-44 -8 -92.667 -15.667 -146 -23c-92 -11.333 -141.667 -17.666 -149 -18.999l-157 -22c-19.333 -22.667 -44 -55.334 -74 -98.001c-36 -52 -65.667 -93 -89 -123
c-75.333 -98 -160.333 -186.333 -255 -265c-54 -45.333 -103 -68 -147 -68c-17.333 0 -31 5.33301 -41 16s-14.667 23.334 -14 38.001c0.666992 23.333 28.667 61.333 84 114c24 22.667 50.667 43.334 80 62.001s50.333 28 63 28c34.667 0 52 -22 52 -66
c32.667 35.333 81 92.666 145 171.999l109 159c35.333 49.333 59.5 74 72.5 74s72.833 7 179.5 21c41.333 4 100.333 12 177 24c-5.33301 2 -11.333 6.66699 -18 14c-0.666992 2.66699 1 6.33398 5 11.001s8.33301 7 13 7c61.333 0 98 1.33301 110 4
c15.333 3.33301 34.666 9 57.999 17c17.333 5.33301 29.666 8 36.999 8c27.333 0 35 0.333008 23 1c6.66699 0 10 -3.33301 10 -10zM238.001 137.998c0 20 -6.33398 31.332 -19.001 33.999c-16 3.33301 -46.333 -12.667 -91 -48s-67 -60.666 -67 -75.999
c0 -14.667 4.33301 -22 13 -22c28.667 0 83.334 37.333 164.001 112z" />
    <glyph glyph-name="afii10066" unicode="&#x431;" horiz-adv-x="380" 
d="M1201 674c0 -16 -14.332 -31.6689 -42.999 -47.002c-25.333 -13.333 -53.666 -23 -84.999 -29c-44 -8 -92.667 -15.667 -146 -23c-92 -11.333 -141.667 -17.666 -149 -18.999l-157 -22c-19.333 -22.667 -44 -55.334 -74 -98.001c-36 -52 -65.667 -93 -89 -123
c-75.333 -98 -160.333 -186.333 -255 -265c-54 -45.333 -103 -68 -147 -68c-17.333 0 -31 5.33301 -41 16s-14.667 23.334 -14 38.001c0.666992 23.333 28.667 61.333 84 114c24 22.667 50.667 43.334 80 62.001s50.333 28 63 28c34.667 0 52 -22 52 -66
c32.667 35.333 81 92.666 145 171.999l109 159c35.333 49.333 59.5 74 72.5 74s72.833 7 179.5 21c41.333 4 100.333 12 177 24c-5.33301 2 -11.333 6.66699 -18 14c-0.666992 2.66699 1 6.33398 5 11.001s8.33301 7 13 7c61.333 0 98 1.33301 110 4
c15.333 3.33301 34.666 9 57.999 17c17.333 5.33301 29.666 8 36.999 8c27.333 0 35 0.333008 23 1c6.66699 0 10 -3.33301 10 -10zM238.001 137.998c0 20 -6.33398 31.332 -19.001 33.999c-16 3.33301 -46.333 -12.667 -91 -48s-67 -60.666 -67 -75.999
c0 -14.667 4.33301 -22 13 -22c28.667 0 83.334 37.333 164.001 112z" />
    <glyph glyph-name="afii10067" unicode="&#xe2;" horiz-adv-x="496" 
d="M910 666c0 -13.333 -22.002 -40.999 -66.002 -82.999c-50 -47.333 -109 -93.666 -177 -138.999c-44 -29.333 -111 -64 -201 -104c-126.667 -56 -195.5 -88 -206.5 -96l-50.5 -36c-28 -22 -52 -43.667 -72 -65c-58.667 -63.333 -88 -102.333 -88 -117
c0 -10 4.66699 -15 14 -15c16.667 0 43 10.333 79 31l95 58c9.33301 11.333 26 26.666 50 45.999c38 31.333 65.667 47 83 47c13.333 0 20 -7 20 -21c0 -26 -25.667 -56.667 -77 -92c13.333 -10.667 32.333 -16 57 -16c32 0 66.333 4.66699 103 14s59 14 67 14s12 -7 12 -21
c0 -4.66699 -26.667 -13.667 -80 -27c-55.333 -13.333 -96.666 -20 -123.999 -20c-25.333 0 -58.333 11.667 -99 35l-99 -54c-39.333 -19.333 -73.666 -29 -102.999 -29c-15.333 0 -29 6 -41 18c-9.33301 9.33301 -14 17.666 -14 24.999c0 22 11.333 47.333 34 76
c4.66699 5.33301 28.667 31.333 72 78c20.667 22 44.667 43 72 63c50 36.667 76 56 78 58l132 111c72 60 135.333 108 190 144l169 111c62 37.333 104.333 56 127 56c11.333 0 21.5 -5.16699 30.5 -15.5s13.5 -21.833 13.5 -34.5zM863.998 666.001
c0 5.33301 -2.00098 8.00195 -6.00098 8.00195c-27.333 0 -115.666 -53.333 -264.999 -160c-32.667 -23.333 -97.334 -76 -194.001 -158c56 21.333 95 37 117 47c46.667 20.667 89.334 43.667 128.001 69c48 31.333 96.667 68.666 146 111.999s74 70.666 74 81.999z" />
    <glyph glyph-name="afii10067" unicode="&#x432;" horiz-adv-x="496" 
d="M910 666c0 -13.333 -22.002 -40.999 -66.002 -82.999c-50 -47.333 -109 -93.666 -177 -138.999c-44 -29.333 -111 -64 -201 -104c-126.667 -56 -195.5 -88 -206.5 -96l-50.5 -36c-28 -22 -52 -43.667 -72 -65c-58.667 -63.333 -88 -102.333 -88 -117
c0 -10 4.66699 -15 14 -15c16.667 0 43 10.333 79 31l95 58c9.33301 11.333 26 26.666 50 45.999c38 31.333 65.667 47 83 47c13.333 0 20 -7 20 -21c0 -26 -25.667 -56.667 -77 -92c13.333 -10.667 32.333 -16 57 -16c32 0 66.333 4.66699 103 14s59 14 67 14s12 -7 12 -21
c0 -4.66699 -26.667 -13.667 -80 -27c-55.333 -13.333 -96.666 -20 -123.999 -20c-25.333 0 -58.333 11.667 -99 35l-99 -54c-39.333 -19.333 -73.666 -29 -102.999 -29c-15.333 0 -29 6 -41 18c-9.33301 9.33301 -14 17.666 -14 24.999c0 22 11.333 47.333 34 76
c4.66699 5.33301 28.667 31.333 72 78c20.667 22 44.667 43 72 63c50 36.667 76 56 78 58l132 111c72 60 135.333 108 190 144l169 111c62 37.333 104.333 56 127 56c11.333 0 21.5 -5.16699 30.5 -15.5s13.5 -21.833 13.5 -34.5zM863.998 666.001
c0 5.33301 -2.00098 8.00195 -6.00098 8.00195c-27.333 0 -115.666 -53.333 -264.999 -160c-32.667 -23.333 -97.334 -76 -194.001 -158c56 21.333 95 37 117 47c46.667 20.667 89.334 43.667 128.001 69c48 31.333 96.667 68.666 146 111.999s74 70.666 74 81.999z" />
    </font>
</defs>
</svg>
